<?xml version="1.0" standalone="no"?>
  <!DOCTYPE svg PUBLIC "-//W3C//DTD SVG 1.1//EN" "http://www.w3.org/Graphics/SVG/1.1/DTD/svg11.dtd" >
  <svg>
  <metadata>
  Created by font-carrier
  </metadata>
  <defs>
  <font id="IzisOne" horiz-adv-x="1000" vert-adv-y="1000" >
    <font-face
      
      font-family="Izis One"
      
      font-weight="400"
      
      font-stretch="normal"
      
      units-per-em="1000"
      
      ascent="682"
      
      descent="-318"
      
    />
      <missing-glyph />

      

      
      <glyph glyph-name="uni21" unicode="&#x21;" d="M56 203L56 667L112 667L112 203L56 203M122 37Q122 20 110 8Q98-4 81-4Q64-4 52 8Q40 20 40 37Q40 54 52 66Q64 78 81 78Q98 78 110 66Q122 54 122 37Z"  horiz-adv-x="164" vert-adv-y="1000"  />

      
      <glyph glyph-name="uni22" unicode="&#x22;" d="M158 468L134 468L118 612L118 667L174 667L174 612L158 468M90 468L66 468L50 612L50 667L106 667L106 612L90 468Z"  horiz-adv-x="224" vert-adv-y="1000"  />

      
      <glyph glyph-name="uni23" unicode="&#x23;" d="M275 478Q273 458 271.50 438Q270 418 268 398L334 398L334 349L263 349Q259 311 255 269Q251 227 247 190L196 190L212 349L144 349Q141 311 137 269Q133 227 129 190L77 190L93 349L20 349L20 398L98 398Q100 418 101.50 438Q103 458 105 478L38 478L38 527L110 527Q113 561 117 599Q121 637 124 670L175 670L161 527L229 527Q231 561 235 599Q239 637 242 670L294 670L280 527L352 527L352 478L275 478M156 478Q154 458 152.50 438Q151 418 149 398L217 398Q219 418 220.50 438Q222 458 224 478L156 478Z"  horiz-adv-x="373" vert-adv-y="1000"  />

      
      <glyph glyph-name="uni24" unicode="&#x24;" d="M193 398Q260 353 292 307.50Q324 262 324 200Q324 134 290.50 91Q257 48 193 37L193-25L150-25L150 34L149 34Q117 34 83 43.50Q49 53 17 73L33 124Q60 107 90 97Q120 87 150 85L150 364Q91 402 63 437Q35 472 35 520Q35 570 64 599Q93 628 150 633L150 686L193 686L193 631Q216 629 238 620.50Q260 612 283 599L263 553Q230 572 193 578L193 398M193 90Q270 110 270 200Q270 276 193 333L193 90M150 580Q89 577 89 520Q89 491 103.50 471Q118 451 150 428L150 580Z"  horiz-adv-x="359" vert-adv-y="1000"  />

      
      <glyph glyph-name="uni25" unicode="&#x25;" d="M258 513Q258 432 228.50 389.50Q199 347 148 347Q96 347 66.50 389Q37 431 37 513Q37 593 65.50 634Q94 675 148 675Q201 675 229.50 634Q258 593 258 513M530 163Q530 82 500.50 39.50Q471-3 419-3Q368-3 338.50 39Q309 81 309 163Q309 243 337.50 284Q366 325 419 325Q473 325 501.50 284Q530 243 530 163M218-10L166 1L349 678L400 666L218-10M204 513Q204 568 188.50 597.50Q173 627 148 627Q122 627 106.50 598Q91 569 91 513Q91 456 106.50 425.50Q122 395 148 395Q173 395 188.50 425.50Q204 456 204 513M476 163Q476 218 460.50 247.50Q445 277 419 277Q393 277 378 247.50Q363 218 363 163Q363 106 378.50 75.50Q394 45 419 45Q445 45 460.50 75.50Q476 106 476 163Z"  horiz-adv-x="566" vert-adv-y="1000"  />

      
      <glyph glyph-name="uni26" unicode="&#x26;" d="M362 391L362 0L308 0L308 38Q269-3 209-3Q35-3 35 220Q35 326 75 382Q115 438 191 443Q171 498 149.50 555.50Q128 613 108 667L339 667L339 614L189 614Q204 572 219 528.50Q234 485 249 443L427 443L427 391L362 391M308 391L198 391Q150 391 123 347Q96 303 96 220Q96 135 123.50 93Q151 51 210 51Q240 51 263.50 64Q287 77 308 106L308 391Z"  horiz-adv-x="446" vert-adv-y="1000"  />

      
      <glyph glyph-name="uni2019" unicode="&#x2019;" d="M104 610L66 468L42 468L47 612L55 667L113 667L104 610Z"  horiz-adv-x="151" vert-adv-y="1000"  />

      
      <glyph glyph-name="uni28" unicode="&#x28;" d="M197-99Q116-19 74.50 89Q33 197 33 329Q33 463 75 573Q117 683 197 762L238 722Q169 650 132 551Q95 452 95 332Q95 212 131.50 114Q168 16 238-57L197-99Z"  horiz-adv-x="256" vert-adv-y="1000"  />

      
      <glyph glyph-name="uni29" unicode="&#x29;" d="M62 760Q141 682 182 574Q223 466 223 335Q223 201 181 91Q139-19 59-98L18-57Q87 16 124 114.50Q161 213 161 332Q161 451 124 549.50Q87 648 18 722L56 760L62 760Z"  horiz-adv-x="256" vert-adv-y="1000"  />

      
      <glyph glyph-name="uni2a" unicode="&#x2a;" d="M246 505Q263 484 283.50 460Q304 436 321 415L271 380L208 481Q193 457 176.50 430.50Q160 404 146 381L95 417L172 507Q160 510 145 514Q130 518 114.50 521.50Q99 525 84 529Q69 533 58 536L77 595L187 550Q185 578 183 608.50Q181 639 179 667L241 667L233 550Q259 561 288 571.50Q317 582 342 593L360 534L246 505Z"  horiz-adv-x="421" vert-adv-y="1000"  />

      
      <glyph glyph-name="uni2b" unicode="&#x2b;" d="M331 263L331 56L270 56L270 263L95 263L95 323L270 323L270 532L331 532L331 323L505 323L505 263L331 263Z"  horiz-adv-x="600" vert-adv-y="1000"  />

      
      <glyph glyph-name="uni2c" unicode="&#x2c;" d="M93 68L63-73L40-73L36 73L41 124L97 124L93 68Z"  horiz-adv-x="121" vert-adv-y="1000"  />

      
      <glyph glyph-name="uni2d" unicode="&#x2d;" d="M37 267L37 317L236 317L236 267L37 267Z"  horiz-adv-x="273" vert-adv-y="1000"  />

      
      <glyph glyph-name="uni2e" unicode="&#x2e;" d="M114 38Q114 21 102 9Q90-3 73-3Q56-3 44 9Q32 21 32 38Q32 55 44 67Q56 79 73 79Q90 79 102 67Q114 55 114 38Z"  horiz-adv-x="146" vert-adv-y="1000"  />

      
      <glyph glyph-name="uni2f" unicode="&#x2f;" d="M82-53L30-45L173 722L226 713L82-53Z"  horiz-adv-x="248" vert-adv-y="1000"  />

      
      <glyph glyph-name="uni30" unicode="&#x30;" d="M412 333Q412 162 364.50 76Q317-10 226-10Q135-10 87.50 76Q40 162 40 333Q40 504 87.50 589Q135 674 226 674Q317 674 364.50 589Q412 504 412 333M352 332Q352 475 317.50 548Q283 621 226 621Q168 621 134 548Q100 475 100 332Q100 189 134.50 116.50Q169 44 226 44Q283 44 317.50 116.50Q352 189 352 332Z"  horiz-adv-x="452" vert-adv-y="1000"  />

      
      <glyph glyph-name="uni31" unicode="&#x31;" d="M110 0L110 614L32 614L32 667L167 667L167 0L110 0Z"  horiz-adv-x="224" vert-adv-y="1000"  />

      
      <glyph glyph-name="uni32" unicode="&#x32;" d="M38 626Q73 650 108 662Q143 674 181 674Q255 674 294 633Q333 592 333 515Q333 478 318 438.50Q303 399 277.50 357Q252 315 218.50 270Q185 225 148 178Q141 169 134.50 160Q128 151 120 141Q99 115 87.50 92Q76 69 73 52L321 52L321 0L16 0L16 39Q16 85 46.50 131Q77 177 127 239L150 269Q204 338 238.50 396Q273 454 273 511Q273 563 249 591.50Q225 620 183 620Q151 620 122.50 609.50Q94 599 64 576L37 621L38 626Z"  horiz-adv-x="356" vert-adv-y="1000"  />

      
      <glyph glyph-name="uni33" unicode="&#x33;" d="M146 448Q151 449 156.50 449.50Q162 450 168 450Q234 450 273 408Q312 366 312 289Q312 235 292 185.50Q272 136 234.50 97Q197 58 144.50 31Q92 4 26-5L15 45Q70 54 114 77Q158 100 189 131.50Q220 163 236 202.50Q252 242 252 284Q252 398 160 398Q129 398 92 389L65 419L201 614L29 614L29 667L301 667L146 448Z"  horiz-adv-x="347" vert-adv-y="1000"  />

      
      <glyph glyph-name="uni34" unicode="&#x34;" d="M290 165L290 0L233 0L233 165L5 165L217 667L274 667L88 216L233 216L233 482L290 482L290 216L352 216L352 165L290 165Z"  horiz-adv-x="373" vert-adv-y="1000"  />

      
      <glyph glyph-name="uni35" unicode="&#x35;" d="M137 614Q129 570 121 526Q113 482 105 438Q138 447 178 447Q241 447 279.50 405.50Q318 364 318 289Q318 235 298 186.50Q278 138 240.50 98.50Q203 59 150 32Q97 5 30-5L21 45Q76 54 120 77Q164 100 195 131.50Q226 163 242 202.50Q258 242 258 284Q258 395 166 395Q149 395 125.50 390Q102 385 71 374L44 404L96 667L290 667L290 614L137 614L137 614Z"  horiz-adv-x="355" vert-adv-y="1000"  />

      
      <glyph glyph-name="uni36" unicode="&#x36;" d="M354 574Q303 620 252 620Q183 620 142.50 549Q102 478 97 339Q146 427 234 427Q303 427 343.50 371Q384 315 384 212Q384 105 338.50 47.50Q293-10 215-10Q40-10 40 300Q40 486 95 580Q150 674 253 674Q294 674 328.50 660Q363 646 395 615L354 574M324 210Q324 290 297 332.50Q270 375 222 375Q168 375 137.50 332Q107 289 107 210Q107 130 137 85.50Q167 41 213 41Q266 41 295 84Q324 127 324 210Z"  horiz-adv-x="415" vert-adv-y="1000"  />

      
      <glyph glyph-name="uni37" unicode="&#x37;" d="M98 0L40 0L247 614L20 614L20 667L325 667L98 0Z"  horiz-adv-x="333" vert-adv-y="1000"  />

      
      <glyph glyph-name="uni38" unicode="&#x38;" d="M373 532Q373 480 347 443Q321 406 264 370Q336 329 370.50 282.50Q405 236 405 173Q405 88 355.50 39Q306-10 220-10Q134-10 84.50 39Q35 88 35 173Q35 238 69 284Q103 330 176 371Q121 406 94 443.50Q67 481 67 532Q67 598 107 636Q147 674 220 674Q293 674 333 636Q373 598 373 532M345 173Q345 227 314.50 265.50Q284 304 220 339Q155 304 125 265.50Q95 227 95 173Q95 110 128 75.50Q161 41 220 41Q279 41 312 75.50Q345 110 345 173M125 527Q125 488 148.50 458.50Q172 429 222 400Q269 429 292 459Q315 489 315 527Q315 573 290.50 598Q266 623 220 623Q174 623 149.50 598Q125 573 125 527Z"  horiz-adv-x="440" vert-adv-y="1000"  />

      
      <glyph glyph-name="uni39" unicode="&#x39;" d="M167 44Q236 44 276 114.50Q316 185 321 324Q273 237 185 237Q116 237 75.50 293Q35 349 35 453Q35 559 80.50 616.50Q126 674 204 674Q379 674 379 365Q379 179 324 84.50Q269-10 166-10Q124-10 90 4.50Q56 19 24 49L65 90Q114 44 167 44M312 455Q312 535 282 579.50Q252 624 206 624Q153 624 124 581.50Q95 539 95 455Q95 374 122 332Q149 290 197 290Q251 290 281.50 332Q312 374 312 455Z"  horiz-adv-x="419" vert-adv-y="1000"  />

      
      <glyph glyph-name="uni3a" unicode="&#x3a;" d="M114 38Q114 21 102 9Q90-3 73-3Q56-3 44 9Q32 21 32 38Q32 55 44 67Q56 79 73 79Q90 79 102 67Q114 55 114 38M114 392Q114 375 102 363Q90 351 73 351Q56 351 44 363Q32 375 32 392Q32 409 44 421Q56 433 73 433Q90 433 102 421Q114 409 114 392Z"  horiz-adv-x="146" vert-adv-y="1000"  />

      
      <glyph glyph-name="uni3b" unicode="&#x3b;" d="M105 68L76-73L52-73L48 73L53 124L109 124L105 68M114 392Q114 375 102 363Q90 351 73 351Q56 351 44 363Q32 375 32 392Q32 409 44 421Q56 433 73 433Q90 433 102 421Q114 409 114 392Z"  horiz-adv-x="146" vert-adv-y="1000"  />

      
      <glyph glyph-name="uni3c" unicode="&#x3c;" d="M97 274L97 311L504 519L504 451L189 292Q267 252 346.50 213Q426 174 504 134L504 66L97 274Z"  horiz-adv-x="600" vert-adv-y="1000"  />

      
      <glyph glyph-name="uni3d" unicode="&#x3d;" d="M95 368L95 428L505 428L505 368L95 368M95 159L95 219L505 219L505 159L95 159Z"  horiz-adv-x="600" vert-adv-y="1000"  />

      
      <glyph glyph-name="uni3e" unicode="&#x3e;" d="M97 65L97 133L412 293Q334 332 254.50 371Q175 410 97 450L97 518L504 310L504 273L97 65Z"  horiz-adv-x="600" vert-adv-y="1000"  />

      
      <glyph glyph-name="uni3f" unicode="&#x3f;" d="M39 657Q78 673 122 673Q235 673 235 560Q235 517 216 484.50Q197 452 163 415Q160 412 157.50 409Q155 406 152 403Q126 376 109 354Q92 332 92 307Q92 272 133 272Q156 272 190 286L202 238Q182 228 162.50 224Q143 220 123 220Q81 220 58 242Q35 264 35 306Q35 346 55 375Q75 404 107 437Q138 469 158 496Q178 523 178 560Q178 589 163 605.50Q148 622 119 622Q103 622 86 618Q69 614 48 606L37 653L39 657M153 37Q153 20 141 8Q129-4 112-4Q95-4 83.50 8Q72 20 72 37Q72 54 84 66Q96 78 112 78Q129 78 141 66Q153 54 153 37Z"  horiz-adv-x="269" vert-adv-y="1000"  />

      
      <glyph glyph-name="uni40" unicode="&#x40;" d="M471 160Q459 155 447.50 154Q436 153 422 153Q395 153 379.50 163Q364 173 356 193Q332 174 306 163.50Q280 153 257 153Q209 153 183 182Q157 211 157 265Q157 332 204.50 378.50Q252 425 350 466L350 514Q350 553 325 574Q300 595 253 595Q92 595 92 325Q92 193 130.50 126Q169 59 241 59Q286 59 329 81L355 36Q325 19 297.50 12.50Q270 6 239 6Q35 6 35 328Q35 649 255 649Q330 649 367.50 614.50Q405 580 405 514L405 241Q405 222 409.50 213.50Q414 205 428 205Q446 205 463 211L473 165L471 160M350 412Q279 379 246.50 344.50Q214 310 214 262Q214 233 227.50 216.50Q241 200 264 200Q284 200 305 210.50Q326 221 350 240L350 412Z"  horiz-adv-x="509" vert-adv-y="1000"  />

      
      <glyph glyph-name="uni41" unicode="&#x41;" d="M347 0L292 328L130 328Q116 247 103.50 164Q91 81 78 0L21 0L130 667L297 667L406 0L347 0M245 615L176 615Q167 555 158 498Q149 441 139 381L284 381L245 615Z"  horiz-adv-x="427" vert-adv-y="1000"  />

      
      <glyph glyph-name="uni42" unicode="&#x42;" d="M358 541Q358 457 258 366Q330 321 366 272Q402 223 402 163Q402 126 389.50 96Q377 66 354.50 44.50Q332 23 302 11.50Q272 0 237 0L58 0L58 667L212 667Q282 667 320 633Q358 599 358 541M218 52Q276 52 309 81.50Q342 111 342 162Q342 225 284.50 276.50Q227 328 114 384L114 52L218 52L218 52M114 445Q139 432 163 419Q187 406 211 394Q297 468 297 535Q297 572 271.50 593Q246 614 198 614L114 614L114 445L114 445Z"  horiz-adv-x="435" vert-adv-y="1000"  />

      
      <glyph glyph-name="uni43" unicode="&#x43;" d="M378 601Q329 621 285 621Q197 621 146 560.50Q95 500 95 391Q95 335 114 281.50Q133 228 169.50 182Q206 136 258.50 99Q311 62 378 39L347-9Q273 16 215 57Q157 98 117 150.50Q77 203 56 265Q35 327 35 395Q35 460 52.50 512Q70 564 102.50 600Q135 636 181.50 655Q228 674 285 674Q345 674 394 654L378 601Z"  horiz-adv-x="414" vert-adv-y="1000"  />

      
      <glyph glyph-name="uni44" unicode="&#x44;" d="M146 667Q207 667 256 648.50Q305 630 340 595Q375 560 394 510Q413 460 413 397Q413 322 388.50 255.50Q364 189 318 135Q272 81 206 43.50Q140 6 58-10L58 667L146 667L146 667M114 60Q231 103 292 189Q353 275 353 396Q353 446 338.50 486Q324 526 297 554.50Q270 583 232 598Q194 613 147 613L114 613L114 60Z"  horiz-adv-x="448" vert-adv-y="1000"  />

      
      <glyph glyph-name="uni45" unicode="&#x45;" d="M58 0L58 667L337 667L337 614L114 614L114 443L312 443L312 391L114 391L114 52L344 52L344 0L58 0Z"  horiz-adv-x="368" vert-adv-y="1000"  />

      
      <glyph glyph-name="uni46" unicode="&#x46;" d="M114 614L114 429L312 429L312 377L114 377L114 0L58 0L58 667L337 667L337 614L114 614Z"  horiz-adv-x="358" vert-adv-y="1000"  />

      
      <glyph glyph-name="uni47" unicode="&#x47;" d="M389-1Q306 18 240.50 57.50Q175 97 129 150.50Q83 204 59 268Q35 332 35 400Q35 461 53.50 511.50Q72 562 105.50 598Q139 634 185 654Q231 674 286 674Q345 674 394 654L378 602Q331 621 286 621Q244 621 209 605Q174 589 148.50 559.50Q123 530 109 489Q95 448 95 397Q95 295 156.50 209.50Q218 124 338 73L338 373L227 373L227 425L394 425L394 3L389-1Z"  horiz-adv-x="452" vert-adv-y="1000"  />

      
      <glyph glyph-name="uni48" unicode="&#x48;" d="M342 0L342 386L114 386L114 0L58 0L58 667L114 667L114 438L342 438L342 667L399 667L399 0L342 0Z"  horiz-adv-x="456" vert-adv-y="1000"  />

      
      <glyph glyph-name="uni49" unicode="&#x49;" d="M56 0L56 667L113 667L113 0L56 0Z"  horiz-adv-x="168" vert-adv-y="1000"  />

      
      <glyph glyph-name="uni4a" unicode="&#x4a;" d="M234 259Q234 208 225.50 169.50Q217 131 194.50 99.50Q172 68 133 42.50Q94 17 33-8L15 44Q64 66 95.50 87Q127 108 145 132.50Q163 157 170 187.50Q177 218 177 259L177 614L27 614L27 667L234 667L234 259Z"  horiz-adv-x="291" vert-adv-y="1000"  />

      
      <glyph glyph-name="uni4b" unicode="&#x4b;" d="M355 0L208 335Q185 323 161.50 312Q138 301 114 289L114 0L58 0L58 667L114 667L114 349Q131 357 147 365Q163 373 179 381Q310 446 310 578Q310 617 295 658L347 672Q365 627 365 590Q365 450 259 365Q299 274 340.50 182.50Q382 91 422 0L355 0Z"  horiz-adv-x="431" vert-adv-y="1000"  />

      
      <glyph glyph-name="uni4c" unicode="&#x4c;" d="M58 0L58 667L114 667L114 52L328 52L328 0L58 0Z"  horiz-adv-x="353" vert-adv-y="1000"  />

      
      <glyph glyph-name="uni4d" unicode="&#x4d;" d="M406 0L406 551Q404 549 403 546Q402 543 400 541L261 302L122 532Q120 536 114 545L114 0L58 0L58 667L106 667L262 403Q300 469 338.50 535Q377 601 415 667L462 667L462 0L406 0Z"  horiz-adv-x="520" vert-adv-y="1000"  />

      
      <glyph glyph-name="uni4e" unicode="&#x4e;" d="M356 0L356 321Q294 385 235 445.50Q176 506 114 570L114 0L58 0L58 667L103 667L356 403L356 667L413 667L413 0L356 0Z"  horiz-adv-x="471" vert-adv-y="1000"  />

      
      <glyph glyph-name="uni4f" unicode="&#x4f;" d="M469 333Q469 251 452.50 187Q436 123 407 79.50Q378 36 337 13Q296-10 248-10Q200-10 160 12.50Q120 35 91.50 78.50Q63 122 47 186Q31 250 31 333Q31 416 47 479.50Q63 543 91.50 586.50Q120 630 160 652Q200 674 248 674Q298 674 338.50 651.50Q379 629 408 586Q437 543 453 479Q469 415 469 333M408 332Q408 473 365 547Q322 621 250 621Q177 621 134.50 547.50Q92 474 92 332Q92 190 134.50 117Q177 44 250 44Q322 44 365 117.50Q408 191 408 332Z"  horiz-adv-x="508" vert-adv-y="1000"  />

      
      <glyph glyph-name="uni50" unicode="&#x50;" d="M218 667Q293 667 332 633Q371 599 371 536Q371 481 326 426.50Q281 372 193 303L114 239L114 0L58 0L58 667L218 667L218 667M164 347Q235 401 272.50 445Q310 489 310 535Q310 572 284.50 593Q259 614 211 614L114 614L114 309Q126 318 139.50 328Q153 338 164 347Z"  horiz-adv-x="381" vert-adv-y="1000"  />

      
      <glyph glyph-name="uni51" unicode="&#x51;" d="M354 22Q305-10 252-10Q204-10 164 12.50Q124 35 95.50 78.50Q67 122 51 186Q35 250 35 333Q35 416 51 479.50Q67 543 95.50 586.50Q124 630 164 652Q204 674 252 674Q302 674 342.50 651.50Q383 629 412 586Q441 543 457 479Q473 415 473 333Q473 153 395 59Q409 33 425 6.50Q441-20 455-46L407-74L354 22M280 274L367 113Q387 145 399.50 199.50Q412 254 412 332Q412 473 369 547Q326 621 254 621Q181 621 138.50 547.50Q96 474 96 332Q96 190 138.50 117Q181 44 254 44Q274 44 292 49.50Q310 55 327 68Q304 113 278 157.50Q252 202 228 246L280 274Z"  horiz-adv-x="508" vert-adv-y="1000"  />

      
      <glyph glyph-name="uni52" unicode="&#x52;" d="M352 0L189 301Q170 287 151.50 272Q133 257 114 243L114 0L58 0L58 667L225 667Q296 667 333 633Q370 599 370 536Q370 489 337 441Q304 393 236 338Q282 254 328.50 169Q375 84 421 0L352 0M164 347Q234 401 272 444.50Q310 488 310 535Q310 572 284.50 593Q259 614 211 614L114 614L114 309Q126 318 139.50 328Q153 338 164 347Z"  horiz-adv-x="423" vert-adv-y="1000"  />

      
      <glyph glyph-name="uni53" unicode="&#x53;" d="M290 592Q259 606 233.50 613Q208 620 184 620Q142 620 118.50 600Q95 580 95 544Q95 508 113.50 483Q132 458 169 428L168 428Q176 422 183.50 416Q191 410 199 404Q230 380 257 356Q284 332 304 305.50Q324 279 336 248Q348 217 348 178Q348 92 296 41Q244-10 154-10Q116-10 83-0.50Q50 9 18 31L39 79Q68 61 96.50 52.50Q125 44 154 44Q217 44 252.50 78Q288 112 288 174Q288 240 240 291Q220 312 200 328Q180 344 160 359Q148 368 136.50 377Q125 386 114 394Q73 429 54 464Q35 499 35 544Q35 572 45.50 596Q56 620 75.50 637Q95 654 122.50 664Q150 674 185 674Q247 674 312 644L296 595L290 592Z"  horiz-adv-x="383" vert-adv-y="1000"  />

      
      <glyph glyph-name="uni54" unicode="&#x54;" d="M228 614L228 83L228 0L170 0L170 78L170 614L21 614L21 667L374 667L374 614L228 614Z"  horiz-adv-x="396" vert-adv-y="1000"  />

      
      <glyph glyph-name="uni55" unicode="&#x55;" d="M424 263Q426 246 426 232.50Q426 219 426 208Q426 95 381.50 42.50Q337-10 238-10Q139-10 95 42Q51 94 51 208Q51 222 51.50 235.50Q52 249 53 263L81 667L138 667L108 265Q107 253 107 236Q107 219 107 200Q107 119 138.50 81.50Q170 44 238 44Q310 44 340 83.50Q370 123 370 212Q370 227 369.50 240.50Q369 254 369 265Q361 363 354 466Q347 569 339 667L396 667L424 263L424 263Z"  horiz-adv-x="477" vert-adv-y="1000"  />

      
      <glyph glyph-name="uni56" unicode="&#x56;" d="M220 0L168 0L9 667L67 667L190 143Q192 136 193.50 131.50Q195 127 195 122Q196 130 200 143L325 667L382 667L220 0Z"  horiz-adv-x="391" vert-adv-y="1000"  />

      
      <glyph glyph-name="uni57" unicode="&#x57;" d="M446 0L395 0L294 498Q294 499 293.50 500.50Q293 502 293 503Q292 506 292 505.50Q292 505 292 504Q292 503 292 504.50Q292 506 291 512Q290 507 289 503.50Q288 500 288 498L186 0L135 0L10 667L69 667L160 158Q160 156 162 146Q162 140 163 135Q163 137 163.50 139Q164 141 164 143Q165 148 165.50 152Q166 156 166 159L264 667L317 667L417 171Q418 165 420 156Q421 161 421 164.50Q421 168 422 172L512 667L571 667L446 0Z"  horiz-adv-x="581" vert-adv-y="1000"  />

      
      <glyph glyph-name="uni58" unicode="&#x58;" d="M331 0L201 288Q169 216 136 144Q103 72 71 0L7 0L170 343Q132 424 93 505.50Q54 587 16 667L84 667L202 404Q232 470 261.50 535.50Q291 601 321 667L385 667L233 347Q274 261 315 173.50Q356 86 398 0L331 0Z"  horiz-adv-x="405" vert-adv-y="1000"  />

      
      <glyph glyph-name="uni59" unicode="&#x59;" d="M241 266L241 0L183 0L183 266Q144 362 100 467Q56 572 16 667L82 667L214 331Q246 416 279 499.50Q312 583 344 667L411 667L241 266Z"  horiz-adv-x="426" vert-adv-y="1000"  />

      
      <glyph glyph-name="uni5a" unicode="&#x5a;" d="M81 52L300 52L300 0L4 0L232 614L31 614L31 667L312 667L81 52Z"  horiz-adv-x="319" vert-adv-y="1000"  />

      
      <glyph glyph-name="uni5b" unicode="&#x5b;" d="M60-98L60 765L177 765L177 709L116 709L116-40L177-40L177-98L60-98Z"  horiz-adv-x="207" vert-adv-y="1000"  />

      
      <glyph glyph-name="uni5c" unicode="&#x5c;" d="M174-53L30 713L83 722L226-45L174-53Z"  horiz-adv-x="248" vert-adv-y="1000"  />

      
      <glyph glyph-name="uni5d" unicode="&#x5d;" d="M30-98L30-40L91-40L91 709L30 709L30 765L147 765L147-98L30-98Z"  horiz-adv-x="207" vert-adv-y="1000"  />

      
      <glyph glyph-name="uni5e" unicode="&#x5e;" d="M446 367L298 629Q263 563 226.50 498Q190 433 155 367L82 367L280 712L319 712L518 367L446 367Z"  horiz-adv-x="600" vert-adv-y="1000"  />

      
      <glyph glyph-name="uni5f" unicode="&#x5f;" d="M501-233L-1-233L-1-177L501-177L501-233Z"  horiz-adv-x="500" vert-adv-y="1000"  />

      
      <glyph glyph-name="uni2018" unicode="&#x2018;" d="M67 468L29 610L21 667L78 667L86 612L91 468L67 468Z"  horiz-adv-x="131" vert-adv-y="1000"  />

      
      <glyph glyph-name="uni7b" unicode="&#x7b;" d="M138-96Q90-96 90-44L90 228Q90 303 13 313L13 356Q90 368 90 441L90 713Q90 765 138 765L208 765L208 709L147 709L147 443Q147 395 133.50 369.50Q120 344 82 333Q115 322 131 296.50Q147 271 147 226L147-40L208-40L208-96L138-96Z"  horiz-adv-x="238" vert-adv-y="1000"  />

      
      <glyph glyph-name="uni7c" unicode="&#x7c;" d="M74-232L74 764L135 764L135-232L74-232Z"  horiz-adv-x="210" vert-adv-y="1000"  />

      
      <glyph glyph-name="uni7d" unicode="&#x7d;" d="M222 313Q148 301 148 228L148-44Q148-96 100-96L30-96L30-40L91-40L91 226Q91 271 107 297.50Q123 324 157 336Q91 357 91 443L91 709L30 709L30 765L100 765Q148 765 148 713L148 441Q148 368 225 355L225 317L222 313Z"  horiz-adv-x="238" vert-adv-y="1000"  />

      
      <glyph glyph-name="uni7e" unicode="&#x7e;" d="M518 312Q496 280 466.50 255.50Q437 231 394 231Q366 231 340 241Q314 251 291 265Q272 276 250.50 285.50Q229 295 208 295Q184 295 161 276.50Q138 258 121 229L81 272Q104 305 133.50 330Q163 355 208 355Q237 355 261.50 345.50Q286 336 309 322Q331 309 351 300.50Q371 292 393 292Q417 292 439.50 309.50Q462 327 480 357L518 317L518 312Z"  horiz-adv-x="600" vert-adv-y="1000"  />

      
      <glyph glyph-name="unia1" unicode="&#xa1;" d="M56-79L56 386L112 386L112-79L56-79M122 552Q122 535 110 522.50Q98 510 81 510Q64 510 52 522.50Q40 535 40 552Q40 568 52 580Q64 592 81 592Q98 592 110 580Q122 568 122 552Z"  horiz-adv-x="164" vert-adv-y="1000"  />

      
      <glyph glyph-name="unia2" unicode="&#xa2;" d="M258 434Q235 477 198 485L198 141Q235 149 258 193L301 161Q282 130 257.50 112Q233 94 198 89L198-9L154-9L154 93Q36 125 36 316Q36 504 154 535L154 622L198 622L198 539Q233 534 258 516.50Q283 499 302 467L258 434M154 479Q122 463 107 422.50Q92 382 92 316Q92 181 154 149L154 479Z"  horiz-adv-x="327" vert-adv-y="1000"  />

      
      <glyph glyph-name="unia3" unicode="&#xa3;" d="M379 69Q350 31 317.50 12Q285-7 243-7Q175-7 115 52Q95 38 73 24Q51 10 31-4L2 41L93 103L93 349L46 349L46 402L93 402L93 551Q93 605 129.50 640Q166 675 233 675Q298 675 361 646L341 593Q281 623 237 623Q150 623 150 545L150 402L345 402L345 349L150 349L150 94Q173 71 196.50 59Q220 47 244 47Q276 47 302 63.50Q328 80 351 115L379 73L379 69Z"  horiz-adv-x="411" vert-adv-y="1000"  />

      
      <glyph glyph-name="uni2044" unicode="&#x2044;" d="M31-53L-21-45L122 722L175 713L31-53Z"  horiz-adv-x="153" vert-adv-y="1000"  />

      
      <glyph glyph-name="unia5" unicode="&#xa5;" d="M257 317L356 317L356 267L241 267L241 0L183 0L183 267L68 267L68 317L167 317Q129 405 91 492.50Q53 580 15 667L82 667L214 344Q246 425 279 506Q312 587 344 667L411 667L257 317Z"  horiz-adv-x="426" vert-adv-y="1000"  />

      
      <glyph glyph-name="uni0192" unicode="&#x0192;" d="M242 671Q232 674 223 675Q214 676 205 676Q191 676 184.50 668.50Q178 661 176 647Q170 587 163.50 524.50Q157 462 151 402L238 402L238 349L147 349Q138 258 128 169Q118 80 109-11Q104-56 85.50-75Q67-94 29-94Q5-94-16-88L-11-36Q-1-40 8.50-41Q18-42 28-42Q51-42 55-5Q63 78 73 172Q83 266 91 349L23 349L23 402L95 402Q101 463 108 525Q115 587 121 647Q126 691 145 710Q164 729 202 729Q222 729 246 723L242 671Z"  horiz-adv-x="266" vert-adv-y="1000"  />

      
      <glyph glyph-name="unia7" unicode="&#xa7;" d="M296 598Q273 611 251 617Q229 623 205 623Q135 623 135 563Q135 526 158.50 502.50Q182 479 220 453Q229 446 239 439Q249 432 260 424Q315 383 342.50 341Q370 299 370 241Q370 199 353.50 164.50Q337 130 308 108Q316 89 319.50 69Q323 49 323 28Q323-47 277.50-92Q232-137 155-137Q120-137 87.50-129Q55-121 23-101L40-52Q102-86 155-86Q209-86 239-56Q269-26 269 28Q269 73 246 107Q223 141 175 174Q168 179 161.50 183Q155 187 150 192Q126 209 105 225Q84 241 68 259.50Q52 278 43 299.50Q34 321 34 349Q34 395 59.50 424Q85 453 130 455Q104 478 92.50 504.50Q81 531 81 563Q81 614 114.50 644Q148 674 205 674Q268 674 320 645L302 601L296 598M181 234Q206 217 232.50 197Q259 177 279 153Q296 168 306 189.50Q316 211 316 241Q316 292 286 329.50Q256 367 193 407L194 406Q177 409 158 409Q88 409 88 349Q88 321 101 303Q114 285 141 264Q149 257 160 249Q171 241 181 234Z"  horiz-adv-x="405" vert-adv-y="1000"  />

      
      <glyph glyph-name="unia4" unicode="&#xa4;" d="M485 156Q481 152 476 146.50Q471 141 467 137L402 203Q379 184 348.50 174Q318 164 285 164Q260 164 228.50 172.50Q197 181 168 203L103 137L84 156Q79 161 74.50 165.50Q70 170 66 175Q74 183 84 192.50Q94 202 102 210Q110 218 118 224.50Q126 231 134 239Q118 262 106.50 292Q95 322 95 354Q95 387 105 417Q115 447 133 470Q125 478 117.50 484Q110 490 102 498L66 534Q70 538 75 543.50Q80 549 84 553L103 571L169 505Q200 527 230 535.50Q260 544 285 544Q313 544 344.50 535Q376 526 401 506L430 536Q438 544 448.50 553.50Q459 563 467 571Q471 567 475.50 562.50Q480 558 485 553L504 534Q496 526 485.50 516Q475 506 467 498Q459 490 451.50 483.50Q444 477 436 469Q456 443 466 413Q476 383 476 354Q476 321 465 292.50Q454 264 436 239Q444 231 451.50 224.50Q459 218 467 210Q475 202 485.50 192.50Q496 183 504 175L485 156M424 355Q424 386 412 411.50Q400 437 380.50 455Q361 473 336 482.50Q311 492 286 492Q256 492 230.50 481Q205 470 186.50 451Q168 432 157.50 407Q147 382 147 355Q147 327 158 301.50Q169 276 187.50 257Q206 238 231 227Q256 216 285 216Q313 216 338.50 227Q364 238 383 257Q402 276 413 301Q424 326 424 355Z"  horiz-adv-x="571" vert-adv-y="1000"  />

      
      <glyph glyph-name="uni27" unicode="&#x27;" d="M90 468L65 468L49 612L49 667L106 667L106 612L90 468Z"  horiz-adv-x="155" vert-adv-y="1000"  />

      
      <glyph glyph-name="uni201C" unicode="&#x201C;" d="M167 468L130 610L122 667L178 667L186 612L191 468L167 468M67 468L30 610L22 667L78 667L86 612L91 468L67 468Z"  horiz-adv-x="222" vert-adv-y="1000"  />

      
      <glyph glyph-name="uniab" unicode="&#xab;" d="M246-16L154 238L246 471L295 452L213 238Q222 213 232.50 182Q243 151 254 119Q265 87 275.50 56.50Q286 26 295 1L246-16M130-16L38 238L130 471L179 452L98 238Q107 213 117.50 182Q128 151 138.50 119Q149 87 159.50 56.50Q170 26 179 1L130-16Z"  horiz-adv-x="328" vert-adv-y="1000"  />

      
      <glyph glyph-name="uni2039" unicode="&#x2039;" d="M130-16L38 238L130 471L178 452L97 238Q106 213 116.50 182Q127 151 137.50 119Q148 87 158.50 56.50Q169 26 178 1L130-16Z"  horiz-adv-x="211" vert-adv-y="1000"  />

      
      <glyph glyph-name="uni203A" unicode="&#x203A;" d="M91-16L43 1L124 238Q104 290 83.50 345Q63 400 43 452L91 471L183 238L91-16Z"  horiz-adv-x="211" vert-adv-y="1000"  />

      
      <glyph glyph-name="uni2013" unicode="&#x2013;" d="M38 267L38 317L393 317L393 267L38 267Z"  horiz-adv-x="431" vert-adv-y="1000"  />

      
      <glyph glyph-name="uni2020" unicode="&#x2020;" d="M206 403L206-124L148-124L148 403L39 403L39 457L148 457L148 672L206 672L206 457L315 457L315 403L206 403Z"  horiz-adv-x="354" vert-adv-y="1000"  />

      
      <glyph glyph-name="uni2021" unicode="&#x2021;" d="M206 133L206-124L148-124L148 133L39 133L39 187L148 187L148 403L39 403L39 457L148 457L148 672L206 672L206 457L315 457L315 403L206 403L206 187L315 187L315 133L206 133Z"  horiz-adv-x="354" vert-adv-y="1000"  />

      
      <glyph glyph-name="unib7" unicode="&#xb7;" d="M114 334Q114 317 102 305.50Q90 294 73 294Q56 294 44 305.50Q32 317 32 334Q32 352 44 364Q56 376 73 376Q90 376 102 363.50Q114 351 114 334Z"  horiz-adv-x="146" vert-adv-y="1000"  />

      
      <glyph glyph-name="unib6" unicode="&#xb6;" d="M332-119L332 615L286 615L286-119L230-119L230 233Q226 236 221.50 240Q217 244 214 246Q35 384 35 536Q35 605 75.50 636Q116 667 204 667L388 667L388-119L332-119M230 615L212 615Q149 615 122 593.50Q95 572 95 522Q95 421 230 309L230 615Z"  horiz-adv-x="446" vert-adv-y="1000"  />

      
      <glyph glyph-name="uni2022" unicode="&#x2022;" d="M364 361Q364 330 352 302.50Q340 275 320 254.50Q300 234 272 222Q244 210 213 210Q181 210 153.50 222Q126 234 106 254Q86 274 74 301.50Q62 329 62 361Q62 392 74 419.50Q86 447 106.50 467.50Q127 488 154.50 500Q182 512 213 512Q244 512 271.50 500Q299 488 319.50 467.50Q340 447 352 419.50Q364 392 364 361Z"  horiz-adv-x="426" vert-adv-y="1000"  />

      
      <glyph glyph-name="uni201A" unicode="&#x201A;" d="M114 54L76-88L52-88L57 56L65 112L123 112L114 54Z"  horiz-adv-x="143" vert-adv-y="1000"  />

      
      <glyph glyph-name="uni201E" unicode="&#x201E;" d="M194 54L157-88L133-88L138 56L146 112L203 112L194 54M114 54L77-88L53-88L58 56L66 112L123 112L114 54Z"  horiz-adv-x="224" vert-adv-y="1000"  />

      
      <glyph glyph-name="uni201D" unicode="&#x201D;" d="M204 610L167 468L143 468L148 612L156 667L213 667L204 610M104 610L67 468L43 468L48 612L56 667L113 667L104 610Z"  horiz-adv-x="234" vert-adv-y="1000"  />

      
      <glyph glyph-name="unibb" unicode="&#xbb;" d="M203-16L154 1L235 238Q215 290 194.50 345Q174 400 154 452L203 471L295 238L203-16M87-16L38 1L120 238Q100 290 79 345Q58 400 38 452L87 471L179 238L87-16Z"  horiz-adv-x="328" vert-adv-y="1000"  />

      
      <glyph glyph-name="uni2026" unicode="&#x2026;" d="M870 38Q870 21 858 9Q846-3 829-3Q812-3 800.50 9Q789 21 789 38Q789 55 800.50 67Q812 79 829 79Q846 79 858 67Q870 55 870 38M211 38Q211 21 199.50 9Q188-3 171-3Q154-3 142 9Q130 21 130 38Q130 55 142 67Q154 79 171 79Q188 79 199.50 67Q211 55 211 38M541 38Q541 21 529 9Q517-3 500-3Q483-3 471 9Q459 21 459 38Q459 55 471 67Q483 79 500 79Q517 79 529 67Q541 55 541 38Z"  horiz-adv-x="1000" vert-adv-y="1000"  />

      
      <glyph glyph-name="uni2030" unicode="&#x2030;" d="M779 163Q779 82 749 39.50Q719-3 668-3Q617-3 587 39Q557 81 557 163Q557 243 586 284Q615 325 668 325Q721 325 750 284Q779 243 779 163M260 513Q260 432 230 389.50Q200 347 149 347Q98 347 68 389Q38 431 38 513Q38 593 67 634Q96 675 149 675Q202 675 231 634Q260 593 260 513M532 163Q532 82 502 39.50Q472-3 421-3Q370-3 340 39Q310 81 310 163Q310 243 339 284Q368 325 421 325Q474 325 503 284Q532 243 532 163M219-10L168 1L351 678L401 666L219-10M205 513Q205 568 190 597.50Q175 627 149 627Q123 627 108 598Q93 569 93 513Q93 456 108 425.50Q123 395 149 395Q175 395 190 425.50Q205 456 205 513M724 163Q724 218 709 247.50Q694 277 668 277Q642 277 627 247.50Q612 218 612 163Q612 106 627 75.50Q642 45 668 45Q694 45 709 75.50Q724 106 724 163M477 163Q477 218 461.50 247.50Q446 277 421 277Q395 277 379.50 247.50Q364 218 364 163Q364 106 379.50 75.50Q395 45 421 45Q446 45 461.50 75.50Q477 106 477 163Z"  horiz-adv-x="816" vert-adv-y="1000"  />

      
      <glyph glyph-name="unibf" unicode="&#xbf;" d="M69 351Q106 368 145 368Q186 368 209.50 346Q233 324 233 283Q233 242 213 213Q193 184 162 151Q131 120 111.50 93Q92 66 92 29Q92-34 149-34Q166-34 183-30Q200-26 220-18L232-68Q191-85 146-85Q35-85 35 29Q35 71 54 103.50Q73 136 106 173L115 182Q142 210 159 232.50Q176 255 176 281Q176 316 135 316Q124 316 109.50 312.50Q95 309 78 303L67 346L69 351M196 552Q196 535 184.50 522.50Q173 510 156 510Q139 510 127 522.50Q115 535 115 552Q115 568 127 580Q139 592 156 592Q173 592 184.50 580Q196 568 196 552Z"  horiz-adv-x="269" vert-adv-y="1000"  />

      
      <glyph glyph-name="uni60" unicode="&#x60;" d="M238 482L141 609L211 609L282 482L238 482Z"  horiz-adv-x="500" vert-adv-y="1000"  />

      
      <glyph glyph-name="unib4" unicode="&#xb4;" d="M263 482L220 482L291 609L361 609L263 482Z"  horiz-adv-x="500" vert-adv-y="1000"  />

      
      <glyph glyph-name="uni02C6" unicode="&#x02C6;" d="M321 482L250 569Q232 549 214 526Q196 503 179 482L136 497L230 622L270 622L364 497L321 482Z"  horiz-adv-x="500" vert-adv-y="1000"  />

      
      <glyph glyph-name="uni02DC" unicode="&#x02DC;" d="M369 563Q369 530 352.50 512Q336 494 306 494Q286 494 266.50 507Q247 520 229 535Q217 545 207.50 552.50Q198 560 190 560Q179 560 179 546L179 499L129 499L129 537Q129 569 145.50 587Q162 605 192 605Q214 605 232.50 592Q251 579 268 566Q281 556 290.50 548Q300 540 308 540Q319 540 319 554L319 596L369 596L369 563L369 563Z"  horiz-adv-x="500" vert-adv-y="1000"  />

      
      <glyph glyph-name="uniaf" unicode="&#xaf;" d="M151 516L151 569L345 569L345 516L151 516Z"  horiz-adv-x="500" vert-adv-y="1000"  />

      
      <glyph glyph-name="uni02D8" unicode="&#x02D8;" d="M379 597Q350 483 250 483Q148 483 119 602L170 602Q189 533 250 533Q309 533 329 602L375 602L379 597Z"  horiz-adv-x="500" vert-adv-y="1000"  />

      
      <glyph glyph-name="uni02D9" unicode="&#x02D9;" d="M222 517L222 611L278 611L278 517L222 517Z"  horiz-adv-x="500" vert-adv-y="1000"  />

      
      <glyph glyph-name="unia8" unicode="&#xa8;" d="M353 554Q353 537 341.50 525Q330 513 313 513Q296 513 284.50 525Q273 537 273 554Q273 570 284.50 581Q296 592 313 592Q330 592 341.50 581Q353 570 353 554M228 554Q228 537 216.50 525Q205 513 189 513Q172 513 160 525Q148 537 148 554Q148 570 160 581Q172 592 189 592Q205 592 216.50 581Q228 570 228 554Z"  horiz-adv-x="500" vert-adv-y="1000"  />

      
      <glyph glyph-name="uni02DA" unicode="&#x02DA;" d="M324 557Q324 525 303 503.50Q282 482 251 482Q220 482 199 503.50Q178 525 178 557Q178 587 199 608.50Q220 630 251 630Q282 630 303 608.50Q324 587 324 557M285 557Q285 571 274.50 580.50Q264 590 250 590Q236 590 226 580.50Q216 571 216 557Q216 543 226 533Q236 523 250 523Q264 523 274.50 533Q285 543 285 557Z"  horiz-adv-x="500" vert-adv-y="1000"  />

      
      <glyph glyph-name="unib8" unicode="&#xb8;" d="M276 5L256-25Q296-43 316-63.50Q336-84 336-115Q336-144 313.50-164Q291-184 247-184Q212-184 174-167L189-123Q206-131 220-136Q234-141 248-141Q267-141 278-134.50Q289-128 289-118Q289-98 264-82Q239-66 188-49L241 30L276 5Z"  horiz-adv-x="500" vert-adv-y="1000"  />

      
      <glyph glyph-name="uni02DD" unicode="&#x02DD;" d="M306 482L276 482L309 622L377 622L306 482M208 482L179 482L210 622L279 622L208 482Z"  horiz-adv-x="500" vert-adv-y="1000"  />

      
      <glyph glyph-name="uni02DB" unicode="&#x02DB;" d="M301-170Q268-186 229-186Q187-186 164.50-164Q142-142 142-101Q142-31 249 35L286 11Q238-19 213.50-46Q189-73 189-101Q189-124 200.50-133.50Q212-143 235-143Q244-143 258-139Q272-135 291-126L303-165L301-170Z"  horiz-adv-x="500" vert-adv-y="1000"  />

      
      <glyph glyph-name="uni02C7" unicode="&#x02C7;" d="M269 482L230 482L136 607L179 622L250 535Q268 556 286 578.50Q304 601 321 622L364 607L269 482Z"  horiz-adv-x="500" vert-adv-y="1000"  />

      
      <glyph glyph-name="uni2014" unicode="&#x2014;" d="M39 267L39 317L484 317L484 267L39 267Z"  horiz-adv-x="523" vert-adv-y="1000"  />

      
      <glyph glyph-name="unic6" unicode="&#xc6;" d="M277 0L277 328L156 328Q136 247 116.50 164Q97 81 77 0L22 0L167 667L557 667L557 614L334 614L334 443L531 443L531 391L334 391L334 52L564 52L564 0L277 0M277 614L210 614Q199 555 188 497.50Q177 440 166 381L277 381L277 614Z"  horiz-adv-x="589" vert-adv-y="1000"  />

      
      <glyph glyph-name="uni0141" unicode="&#x0141;" d="M114 52L328 52L328 0L57 0L57 349Q45 344 30.50 338.50Q16 333 5 329L-11 378L57 403L57 667L114 667L114 425Q132 432 154 439.50Q176 447 194 454L208 404L114 370L114 52Z"  horiz-adv-x="353" vert-adv-y="1000"  />

      
      <glyph glyph-name="unid8" unicode="&#xd8;" d="M361 636Q412 594 440.50 519.50Q469 445 469 333Q469 251 452.50 187Q436 123 407 79.50Q378 36 337 13Q296-10 248-10Q212-10 179 3Q172-19 166-41Q160-63 153-85L106-71L135 31Q31 114 31 333Q31 416 47 479.50Q63 543 91.50 586.50Q120 630 160 652Q200 674 248 674Q285 674 317 661Q323 681 328.50 703Q334 725 340 745L388 733L361 636M344 577Q306 446 268.50 316.50Q231 187 195 56Q209 49 222.50 46.50Q236 44 250 44Q322 44 365 117.50Q408 191 408 332Q408 419 391.50 480Q375 541 344 577M152 93Q190 222 227 351Q264 480 301 609Q278 621 250 621Q177 621 134.50 547.50Q92 474 92 332Q92 251 107.50 191Q123 131 152 93Z"  horiz-adv-x="508" vert-adv-y="1000"  />

      
      <glyph glyph-name="uni0152" unicode="&#x0152;" d="M249 0Q148 0 90 84.50Q32 169 32 333Q32 496 91 581.50Q150 667 249 667L604 667L604 614L380 614L380 443L578 443L578 391L380 391L380 52L611 52L611 0L249 0M324 616L251 616Q176 616 134.50 544Q93 472 93 332Q93 193 134.50 122Q176 51 251 51L324 51L324 616Z"  horiz-adv-x="636" vert-adv-y="1000"  />

      
      <glyph glyph-name="uniba" unicode="&#xba;" d="M318 484Q318 389 283.50 340.50Q249 292 186 292Q122 292 88 340.50Q54 389 54 484Q54 579 87.50 626.50Q121 674 186 674Q250 674 284 626Q318 578 318 484M261 484Q261 552 241.50 586.50Q222 621 186 621Q111 621 111 484Q111 415 130.50 379.50Q150 344 186 344Q221 344 241 379.50Q261 415 261 484Z"  horiz-adv-x="372" vert-adv-y="1000"  />

      
      <glyph glyph-name="uni0142" unicode="&#x0142;" d="M112 378L112 0L56 0L56 358Q46 354 34.50 349.50Q23 345 15 342L-1 391L56 411L56 671L112 671L112 432Q122 436 133.50 441Q145 446 154 449L173 401L112 378Z"  horiz-adv-x="168" vert-adv-y="1000"  />

      
      <glyph glyph-name="uni0153" unicode="&#x0153;" d="M289 233L289 224Q289 137 313.50 92.50Q338 48 383 48Q427 48 455 100L501 69Q458-3 381-3Q349-3 326 7Q303 17 283 38Q263 17 240.50 7Q218-3 187-3Q117-3 76.50 55Q36 113 36 224Q36 334 75.50 390.50Q115 447 187 447Q245 447 285 405Q324 447 383 447Q514 447 514 260L514 233L289 233M187 48Q228 48 253 86Q244 109 237.50 143.50Q231 178 231 224Q231 303 253 356Q227 394 187 394Q142 394 117.50 351.50Q93 309 93 224Q93 137 117.50 92.50Q142 48 187 48M382 394Q312 394 294 288L456 288Q454 340 435 367Q416 394 382 394Z"  horiz-adv-x="537" vert-adv-y="1000"  />

      
      <glyph glyph-name="unib9" unicode="&#xb9;" d="M71 263L71 632L20 632L20 666L111 666L111 263L71 263Z"  horiz-adv-x="148" vert-adv-y="1000"  />

      
      <glyph glyph-name="uniac" unicode="&#xac;" d="M444 155L444 355L95 355L95 415L505 415L505 155L444 155Z"  horiz-adv-x="600" vert-adv-y="1000"  />

      
      <glyph glyph-name="unib5" unicode="&#xb5;" d="M84 231Q78 196 78 164Q78 105 100 74.50Q122 44 164 44Q209 44 244 96.50Q279 149 298 244Q309 311 322 382.50Q335 454 347 521L401 521L336 136L333 115Q331 99 329 87Q327 75 327 72Q327 45 349 45Q350 45 353.50 45Q357 45 369 47L361-8Q360-8 358.50-8.50Q357-9 355-9Q338-14 328-14Q273-14 273 51L273 53Q254 21 225.50 3.50Q197-14 158-14Q123-14 95.50 5Q68 24 53 56Q43-8 32-74.50Q21-141 10-205L-45-205L78 521L133 521L84 231Z"  horiz-adv-x="427" vert-adv-y="1000"  />

      
      <glyph glyph-name="uni2122" unicode="&#x2122;" d="M239 667L282 564Q292 590 302 616Q312 642 322 667L378 667L378 495L336 495L336 607Q326 580 315 550.50Q304 521 293 495L269 495L225 606L225 495L182 495L182 667L239 667M158 667L158 632L105 632L105 495L62 495L62 632L8 632L8 667L158 667Z"  horiz-adv-x="409" vert-adv-y="1000"  />

      
      <glyph glyph-name="unid0" unicode="&#xd0;" d="M146 667Q207 667 256.50 648.50Q306 630 341 595Q376 560 394.50 510Q413 460 413 397Q413 322 388.50 255.50Q364 189 318 135Q272 81 206 43.50Q140 6 58-10L58 362L1 362L1 416L58 416L58 667L146 667L146 667M114 60Q230 103 291 189Q352 275 352 396Q352 446 337.50 486Q323 526 296 554.50Q269 583 231 598Q193 613 147 613L114 613L114 416L208 416L208 362L114 362L114 60Z"  horiz-adv-x="448" vert-adv-y="1000"  />

      
      <glyph glyph-name="unibd" unicode="&#xbd;" d="M172-53L121-45L264 722L316 713L172-53M315 354Q361 381 406 381Q454 381 479 358Q504 335 504 291Q504 246 470.50 201Q437 156 386 98Q381 93 377.50 88.50Q374 84 369 79Q356 65 349 53Q342 41 340 33L496 33L496 0L301 0L301 24Q301 49 320 75Q339 101 368 133L386 154Q421 193 442 224.50Q463 256 463 288Q463 316 448 331.50Q433 347 407 347Q370 347 332 322L314 349L315 354M70 289L70 633L21 633L21 666L109 666L109 289L70 289Z"  horiz-adv-x="518" vert-adv-y="1000"  />

      
      <glyph glyph-name="unib1" unicode="&#xb1;" d="M331 320L331 121L270 121L270 320L95 320L95 381L270 381L270 580L331 580L331 381L505 381L505 320L331 320M95 0L95 60L505 60L505 0L95 0Z"  horiz-adv-x="600" vert-adv-y="1000"  />

      
      <glyph glyph-name="unide" unicode="&#xde;" d="M218 537Q293 537 332 502.50Q371 468 371 405Q371 349 325.50 294.50Q280 240 193 172L114 110L114 0L58 0L58 667L114 667L114 537L218 537L218 537M164 217Q235 271 272.50 314.50Q310 358 310 404Q310 442 284.50 462.50Q259 483 211 483L114 483L114 179Q126 188 139.50 198Q153 208 164 217Z"  horiz-adv-x="381" vert-adv-y="1000"  />

      
      <glyph glyph-name="unibc" unicode="&#xbc;" d="M172-53L121-45L264 722L316 713L172-53M477 93L477 0L438 0L438 93L293 93L428 378L468 378L351 125L438 125L438 274L477 274L477 125L515 125L515 93L477 93M70 289L70 633L21 633L21 666L109 666L109 289L70 289Z"  horiz-adv-x="529" vert-adv-y="1000"  />

      
      <glyph glyph-name="unif7" unicode="&#xf7;" d="M95 264L95 323L505 323L505 264L95 264M347 119Q347 99 334 85Q321 71 301 71Q281 71 267.50 85Q254 99 254 119Q254 139 267.50 152.50Q281 166 301 166Q321 166 334 152.50Q347 139 347 119M347 469Q347 449 334 435Q321 421 301 421Q281 421 267.50 435Q254 449 254 469Q254 488 267.50 502Q281 516 301 516Q321 516 334 502.50Q347 489 347 469Z"  horiz-adv-x="600" vert-adv-y="1000"  />

      
      <glyph glyph-name="unia6" unicode="&#xa6;" d="M74-232L74 189L135 189L135-232L74-232M74 344L74 764L135 764L135 344L74 344Z"  horiz-adv-x="210" vert-adv-y="1000"  />

      
      <glyph glyph-name="unib0" unicode="&#xb0;" d="M289 557Q289 533 280 512Q271 491 255 475Q239 459 218 450Q197 441 173 441Q149 441 128 450Q107 459 91.50 474.50Q76 490 66.50 511.50Q57 533 57 557Q57 581 66.50 602Q76 623 91.50 638.50Q107 654 128 663Q149 672 173 672Q197 672 218 663Q239 654 254.50 638Q270 622 279.50 601.50Q289 581 289 557M237 557Q237 583 218.50 602Q200 621 173 621Q146 621 127.50 602.50Q109 584 109 557Q109 529 127 510.50Q145 492 173 492Q201 492 219 511Q237 530 237 557Z"  horiz-adv-x="346" vert-adv-y="1000"  />

      
      <glyph glyph-name="unibe" unicode="&#xbe;" d="M250-53L198-45L342 722L394 713L250-53M554 93L554 0L516 0L516 93L370 93L506 378L545 378L429 125L516 125L516 274L554 274L554 125L593 125L593 93L554 93M97 544L108 544Q151 544 175.50 520Q200 496 200 452Q200 422 187 394Q174 366 150.50 344Q127 322 93 307Q59 292 17 287L9 317Q80 328 120 365.50Q160 403 160 449Q160 512 103 512Q83 512 61 506L41 525L126 633L19 633L19 666L195 666L97 544Z"  horiz-adv-x="607" vert-adv-y="1000"  />

      
      <glyph glyph-name="unib2" unicode="&#xb2;" d="M24 642Q48 656 70.50 663Q93 670 119 670Q169 670 195 645.50Q221 621 221 573Q221 527 185.50 477.50Q150 428 98 368Q93 363 89 358Q85 353 80 348Q55 317 50 298L214 298L214 263L9 263L9 288Q9 316 31 346Q53 376 83 411Q85 413 90.50 419.50Q96 426 98 428Q135 470 156.50 503.50Q178 537 178 571Q178 602 163 618.50Q148 635 121 635Q100 635 81 628.50Q62 622 42 608L23 637L24 642Z"  horiz-adv-x="235" vert-adv-y="1000"  />

      
      <glyph glyph-name="uniae" unicode="&#xae;" d="M33 521Q33 554 45.50 582.50Q58 611 79 632Q100 653 128.50 665Q157 677 189 677Q222 677 250.50 665Q279 653 300 632Q321 611 333.50 582.50Q346 554 346 521Q346 489 334 460.50Q322 432 301 411Q280 390 251.50 377.50Q223 365 190 365Q157 365 128.50 377Q100 389 78.50 410Q57 431 45 459.50Q33 488 33 521M189 646Q138 646 106 614Q74 582 65 521Q74 459 106.50 427.50Q139 396 190 396Q216 396 238.50 406Q261 416 278 433Q295 450 305 472.50Q315 495 315 521Q315 547 305 569.50Q295 592 278 609Q261 626 238 636Q215 646 189 646M188 608Q262 608 262 556Q262 523 229 510Q237 492 247 472Q257 452 266 435L222 435L192 503L168 503L168 435L131 435L131 608L188 608M168 534L193 534Q222 534 222 554Q222 573 191 573L168 573L168 534Z"  horiz-adv-x="379" vert-adv-y="1000"  />

      
      <glyph glyph-name="uni2212" unicode="&#x2212;" d="M95 264L95 323L505 323L505 264L95 264Z"  horiz-adv-x="600" vert-adv-y="1000"  />

      
      <glyph glyph-name="unid7" unicode="&#xd7;" d="M472 73L300 246Q258 204 214.50 160Q171 116 129 73L84 118L256 289Q213 331 170.50 374Q128 417 85 460L130 504L300 333Q342 376 385.50 419.50Q429 463 471 505L516 460L344 289Q387 247 430.50 203.50Q474 160 517 118L472 73Z"  horiz-adv-x="600" vert-adv-y="1000"  />

      
      <glyph glyph-name="unib3" unicode="&#xb3;" d="M100 536L111 536Q155 536 181.50 510.50Q208 485 208 438Q208 405 194.50 375.50Q181 346 156 322Q131 298 95.50 282Q60 266 16 261L8 293Q82 304 123.50 344Q165 384 165 435Q165 502 106 502Q83 502 61 495L42 516L130 632L17 632L17 666L202 666L100 536Z"  horiz-adv-x="229" vert-adv-y="1000"  />

      
      <glyph glyph-name="unia9" unicode="&#xa9;" d="M738 332Q738 260 711 197.50Q684 135 637.50 89Q591 43 528.50 16.50Q466-10 396-10Q327-10 267 16Q207 42 156 91Q55 192 55 332Q55 401 80.50 462.50Q106 524 157 575Q206 625 266.50 649.50Q327 674 396 674Q468 674 530.50 648Q593 622 639 576Q685 530 711.50 467.50Q738 405 738 332M706 332Q706 397 682.50 453.50Q659 510 617 552Q575 594 518.50 618Q462 642 396 642Q330 642 274 617.50Q218 593 176.50 550.50Q135 508 111.50 451.50Q88 395 88 332Q88 269 112 213Q136 157 177.50 115Q219 73 275 48.50Q331 24 396 24Q460 24 516.50 47.50Q573 71 615 112Q657 153 681.50 209.50Q706 266 706 332M555 246Q520 122 395 122Q355 122 322.50 136.50Q290 151 266.50 178Q243 205 230.50 243.50Q218 282 218 330Q218 379 231 419Q244 459 268 487Q292 515 325.50 530Q359 545 400 545Q513 545 552 425L500 425Q490 461 464.50 480Q439 499 402 499Q342 499 309 456Q276 413 276 331Q276 252 309.50 210Q343 168 402 168Q478 168 506 251L551 251L555 246Z"  horiz-adv-x="793" vert-adv-y="1000"  />

      
      <glyph glyph-name="unic1" unicode="&#xc1;" d="M347 0L292 328L130 328Q116 247 103.50 164Q91 81 78 0L21 0L130 667L297 667L406 0L347 0M245 615L176 615Q167 555 158 498Q149 441 139 381L284 381L245 615M227 710L183 710L255 836L325 836L227 710Z"  horiz-adv-x="427" vert-adv-y="1000"  />

      
      <glyph glyph-name="unic2" unicode="&#xc2;" d="M347 0L292 328L130 328Q116 247 103.50 164Q91 81 78 0L21 0L130 667L297 667L406 0L347 0M245 615L176 615Q167 555 158 498Q149 441 139 381L284 381L245 615M285 710L214 797Q196 776 178 753.50Q160 731 143 710L100 725L194 849L234 849L328 725L285 710Z"  horiz-adv-x="427" vert-adv-y="1000"  />

      
      <glyph glyph-name="unic4" unicode="&#xc4;" d="M347 0L292 328L130 328Q116 247 103.50 164Q91 81 78 0L21 0L130 667L297 667L406 0L347 0M245 615L176 615Q167 555 158 498Q149 441 139 381L284 381L245 615M317 781Q317 764 305.50 752.50Q294 741 277 741Q260 741 248.50 752.50Q237 764 237 781Q237 798 248.50 809Q260 820 277 820Q294 820 305.50 809Q317 798 317 781M192 781Q192 764 180.50 752.50Q169 741 153 741Q136 741 124 752.50Q112 764 112 781Q112 798 124 809Q136 820 153 820Q169 820 180.50 809Q192 798 192 781Z"  horiz-adv-x="427" vert-adv-y="1000"  />

      
      <glyph glyph-name="unic0" unicode="&#xc0;" d="M347 0L292 328L130 328Q116 247 103.50 164Q91 81 78 0L21 0L130 667L297 667L406 0L347 0M245 615L176 615Q167 555 158 498Q149 441 139 381L284 381L245 615M202 710L105 836L175 836L247 710L202 710Z"  horiz-adv-x="427" vert-adv-y="1000"  />

      
      <glyph glyph-name="unic5" unicode="&#xc5;" d="M347 0L292 328L130 328Q116 247 103.50 164Q91 81 78 0L21 0L130 667L297 667L406 0L347 0M245 615L176 615Q167 555 158 498Q149 441 139 381L284 381L245 615M284 786Q284 755 263 733.50Q242 712 211 712Q180 712 159 733Q138 754 138 786Q138 818 159 838.50Q180 859 211 859Q242 859 263 838Q284 817 284 786M245 786Q245 800 235 810Q225 820 210 820Q196 820 186 810Q176 800 176 786Q176 772 186 762Q196 752 210 752Q225 752 235 762Q245 772 245 786Z"  horiz-adv-x="427" vert-adv-y="1000"  />

      
      <glyph glyph-name="unic3" unicode="&#xc3;" d="M347 0L292 328L130 328Q116 247 103.50 164Q91 81 78 0L21 0L130 667L297 667L406 0L347 0M245 615L176 615Q167 555 158 498Q149 441 139 381L284 381L245 615M333 790Q333 757 316.50 739.50Q300 722 270 722Q250 722 230.50 735Q211 748 193 762Q181 772 171.50 779.50Q162 787 154 787Q143 787 143 773L143 727L93 727L93 764Q93 797 109.50 814.50Q126 832 156 832Q178 832 196.50 819.50Q215 807 232 793Q245 783 254.50 775Q264 767 272 767Q283 767 283 781L283 824L333 824L333 790L333 790Z"  horiz-adv-x="427" vert-adv-y="1000"  />

      
      <glyph glyph-name="unic7" unicode="&#xc7;" d="M260-25Q342-62 342-111Q342-144 319-164Q296-184 253-184Q236-184 217.50-180Q199-176 179-167L194-123Q212-131 225.50-136Q239-141 250-141Q270-141 282-134.50Q294-128 294-118Q294-98 269-82Q244-66 193-49L248 36Q145 98 90 192Q35 286 35 395Q35 460 52.50 512Q70 564 102.50 600Q135 636 181.50 655Q228 674 285 674Q345 674 394 654L378 601Q329 621 285 621Q197 621 146 560.50Q95 500 95 391Q95 335 114 281.50Q133 228 169.50 182Q206 136 258.50 99Q311 62 378 39L347-9Q333-4 318 1.50Q303 7 286 15L260-25Z"  horiz-adv-x="414" vert-adv-y="1000"  />

      
      <glyph glyph-name="unic9" unicode="&#xc9;" d="M58 0L58 667L337 667L337 614L114 614L114 443L312 443L312 391L114 391L114 52L344 52L344 0L58 0M212 710L168 710L240 836L310 836L212 710Z"  horiz-adv-x="368" vert-adv-y="1000"  />

      
      <glyph glyph-name="unica" unicode="&#xca;" d="M58 0L58 667L337 667L337 614L114 614L114 443L312 443L312 391L114 391L114 52L344 52L344 0L58 0M270 710L199 797Q181 776 163 753.50Q145 731 128 710L85 725L179 849L219 849L313 725L270 710Z"  horiz-adv-x="368" vert-adv-y="1000"  />

      
      <glyph glyph-name="unicb" unicode="&#xcb;" d="M58 0L58 667L337 667L337 614L114 614L114 443L312 443L312 391L114 391L114 52L344 52L344 0L58 0M177 781Q177 764 165.50 752.50Q154 741 138 741Q121 741 109 752.50Q97 764 97 781Q97 798 109 809Q121 820 138 820Q154 820 165.50 809Q177 798 177 781M302 781Q302 764 290.50 752.50Q279 741 262 741Q245 741 233.50 752.50Q222 764 222 781Q222 798 233.50 809Q245 820 262 820Q279 820 290.50 809Q302 798 302 781Z"  horiz-adv-x="368" vert-adv-y="1000"  />

      
      <glyph glyph-name="unic8" unicode="&#xc8;" d="M58 0L58 667L337 667L337 614L114 614L114 443L312 443L312 391L114 391L114 52L344 52L344 0L58 0M187 710L90 836L160 836L232 710L187 710Z"  horiz-adv-x="368" vert-adv-y="1000"  />

      
      <glyph glyph-name="unicd" unicode="&#xcd;" d="M57 0L57 667L113 667L113 0L57 0M97 710L54 710L125 836L195 836L97 710Z"  horiz-adv-x="168" vert-adv-y="1000"  />

      
      <glyph glyph-name="unice" unicode="&#xce;" d="M56 0L56 667L113 667L113 0L56 0M155 710L84 797Q66 776 48 753.50Q30 731 13 710L-30 725L64 849L104 849L198 725L155 710Z"  horiz-adv-x="168" vert-adv-y="1000"  />

      
      <glyph glyph-name="unicf" unicode="&#xcf;" d="M56 0L56 667L113 667L113 0L56 0M62 781Q62 764 50.50 752.50Q39 741 23 741Q6 741-6 752.50Q-18 764-18 781Q-18 798-6 809Q6 820 23 820Q39 820 50.50 809Q62 798 62 781M187 781Q187 764 175.50 752.50Q164 741 147 741Q130 741 118.50 752.50Q107 764 107 781Q107 798 118.50 809Q130 820 147 820Q164 820 175.50 809Q187 798 187 781Z"  horiz-adv-x="168" vert-adv-y="1000"  />

      
      <glyph glyph-name="unicc" unicode="&#xcc;" d="M56 0L56 667L112 667L112 0L56 0M72 710L-25 836L45 836L116 710L72 710Z"  horiz-adv-x="168" vert-adv-y="1000"  />

      
      <glyph glyph-name="unid1" unicode="&#xd1;" d="M356 0L356 321Q294 385 235 445.50Q176 506 114 570L114 0L58 0L58 667L103 667L356 403L356 667L413 667L413 0L356 0M355 790Q355 757 338.50 739.50Q322 722 292 722Q272 722 252.50 735Q233 748 215 762Q203 772 193.50 779.50Q184 787 176 787Q165 787 165 773L165 727L115 727L115 764Q115 797 131.50 814.50Q148 832 178 832Q200 832 218.50 819.50Q237 807 254 793Q267 783 276.50 775Q286 767 294 767Q305 767 305 781L305 824L355 824L355 790L355 790Z"  horiz-adv-x="471" vert-adv-y="1000"  />

      
      <glyph glyph-name="unid3" unicode="&#xd3;" d="M469 333Q469 251 452.50 187Q436 123 407 79.50Q378 36 337 13Q296-10 248-10Q200-10 160 12.50Q120 35 91.50 78.50Q63 122 47 186Q31 250 31 333Q31 416 47 479.50Q63 543 91.50 586.50Q120 630 160 652Q200 674 248 674Q298 674 338.50 651.50Q379 629 408 586Q437 543 453 479Q469 415 469 333M408 332Q408 473 365 547Q322 621 250 621Q177 621 134.50 547.50Q92 474 92 332Q92 190 134.50 117Q177 44 250 44Q322 44 365 117.50Q408 191 408 332M267 710L223 710L294 836L365 836L267 710Z"  horiz-adv-x="508" vert-adv-y="1000"  />

      
      <glyph glyph-name="unid4" unicode="&#xd4;" d="M469 333Q469 251 452.50 187Q436 123 407 79.50Q378 36 337 13Q296-10 248-10Q200-10 160 12.50Q120 35 91.50 78.50Q63 122 47 186Q31 250 31 333Q31 416 47 479.50Q63 543 91.50 586.50Q120 630 160 652Q200 674 248 674Q298 674 338.50 651.50Q379 629 408 586Q437 543 453 479Q469 415 469 333M408 332Q408 473 365 547Q322 621 250 621Q177 621 134.50 547.50Q92 474 92 332Q92 190 134.50 117Q177 44 250 44Q322 44 365 117.50Q408 191 408 332M325 710L254 797Q236 776 218 753.50Q200 731 183 710L140 725L234 849L274 849L368 725L325 710Z"  horiz-adv-x="508" vert-adv-y="1000"  />

      
      <glyph glyph-name="unid6" unicode="&#xd6;" d="M469 333Q469 251 452.50 187Q436 123 407 79.50Q378 36 337 13Q296-10 248-10Q200-10 160 12.50Q120 35 91.50 78.50Q63 122 47 186Q31 250 31 333Q31 416 47 479.50Q63 543 91.50 586.50Q120 630 160 652Q200 674 248 674Q298 674 338.50 651.50Q379 629 408 586Q437 543 453 479Q469 415 469 333M408 332Q408 473 365 547Q322 621 250 621Q177 621 134.50 547.50Q92 474 92 332Q92 190 134.50 117Q177 44 250 44Q322 44 365 117.50Q408 191 408 332M357 781Q357 764 345.50 752.50Q334 741 317 741Q300 741 288.50 752.50Q277 764 277 781Q277 798 288.50 809Q300 820 317 820Q334 820 345.50 809Q357 798 357 781M232 781Q232 764 220.50 752.50Q209 741 193 741Q176 741 164 752.50Q152 764 152 781Q152 798 164 809Q176 820 193 820Q209 820 220.50 809Q232 798 232 781Z"  horiz-adv-x="508" vert-adv-y="1000"  />

      
      <glyph glyph-name="unid2" unicode="&#xd2;" d="M469 333Q469 251 452.50 187Q436 123 407 79.50Q378 36 337 13Q296-10 248-10Q200-10 160 12.50Q120 35 91.50 78.50Q63 122 47 186Q31 250 31 333Q31 416 47 479.50Q63 543 91.50 586.50Q120 630 160 652Q200 674 248 674Q298 674 338.50 651.50Q379 629 408 586Q437 543 453 479Q469 415 469 333M408 332Q408 473 365 547Q322 621 250 621Q177 621 134.50 547.50Q92 474 92 332Q92 190 134.50 117Q177 44 250 44Q322 44 365 117.50Q408 191 408 332M242 710L145 836L215 836L287 710L242 710Z"  horiz-adv-x="508" vert-adv-y="1000"  />

      
      <glyph glyph-name="unid5" unicode="&#xd5;" d="M469 333Q469 251 452.50 187Q436 123 407 79.50Q378 36 337 13Q296-10 248-10Q200-10 160 12.50Q120 35 91.50 78.50Q63 122 47 186Q31 250 31 333Q31 416 47 479.50Q63 543 91.50 586.50Q120 630 160 652Q200 674 248 674Q298 674 338.50 651.50Q379 629 408 586Q437 543 453 479Q469 415 469 333M408 332Q408 473 365 547Q322 621 250 621Q177 621 134.50 547.50Q92 474 92 332Q92 190 134.50 117Q177 44 250 44Q322 44 365 117.50Q408 191 408 332M373 790Q373 757 356.50 739.50Q340 722 310 722Q290 722 270.50 735Q251 748 233 762Q221 772 211.50 779.50Q202 787 194 787Q183 787 183 773L183 727L133 727L133 764Q133 797 149.50 814.50Q166 832 196 832Q218 832 236.50 819.50Q255 807 272 793Q285 783 294.50 775Q304 767 312 767Q323 767 323 781L323 824L373 824L373 790L373 790Z"  horiz-adv-x="508" vert-adv-y="1000"  />

      
      <glyph glyph-name="uni0160" unicode="&#x0160;" d="M290 592Q259 606 233.50 613Q208 620 184 620Q142 620 118.50 600Q95 580 95 544Q95 508 113.50 483Q132 458 169 428L168 428Q176 422 183.50 416Q191 410 199 404Q230 380 257 356Q284 332 304 305.50Q324 279 336 248Q348 217 348 178Q348 92 296 41Q244-10 154-10Q116-10 83-0.50Q50 9 18 31L39 79Q68 61 96.50 52.50Q125 44 154 44Q217 44 252.50 78Q288 112 288 174Q288 240 240 291Q220 312 200 328Q180 344 160 359Q148 368 136.50 377Q125 386 114 394Q73 429 54 464Q35 499 35 544Q35 572 45.50 596Q56 620 75.50 637Q95 654 122.50 664Q150 674 185 674Q247 674 312 644L296 595L290 592M211 710L172 710L78 834L121 849L192 762Q210 783 228 806Q246 829 263 849L306 834L211 710Z"  horiz-adv-x="383" vert-adv-y="1000"  />

      
      <glyph glyph-name="unida" unicode="&#xda;" d="M424 263Q426 246 426 232.50Q426 219 426 208Q426 95 381.50 42.50Q337-10 238-10Q139-10 95 42Q51 94 51 208Q51 222 51.50 235.50Q52 249 53 263L81 667L138 667L108 265Q107 253 107 236Q107 219 107 200Q107 119 138.50 81.50Q170 44 238 44Q310 44 340 83.50Q370 123 370 212Q370 227 369.50 240.50Q369 254 369 265Q361 363 354 466Q347 569 339 667L396 667L424 263L424 263M252 710L208 710L280 836L350 836L252 710Z"  horiz-adv-x="477" vert-adv-y="1000"  />

      
      <glyph glyph-name="unidb" unicode="&#xdb;" d="M424 263Q426 246 426 232.50Q426 219 426 208Q426 95 381.50 42.50Q337-10 238-10Q139-10 95 42Q51 94 51 208Q51 222 51.50 235.50Q52 249 53 263L81 667L138 667L108 265Q107 253 107 236Q107 219 107 200Q107 119 138.50 81.50Q170 44 238 44Q310 44 340 83.50Q370 123 370 212Q370 227 369.50 240.50Q369 254 369 265Q361 363 354 466Q347 569 339 667L396 667L424 263L424 263M310 710L239 797Q221 776 203 753.50Q185 731 168 710L125 725L219 849L259 849L353 725L310 710Z"  horiz-adv-x="477" vert-adv-y="1000"  />

      
      <glyph glyph-name="unidc" unicode="&#xdc;" d="M424 263Q426 246 426 232.50Q426 219 426 208Q426 95 381.50 42.50Q337-10 238-10Q139-10 95 42Q51 94 51 208Q51 222 51.50 235.50Q52 249 53 263L81 667L138 667L108 265Q107 253 107 236Q107 219 107 200Q107 119 138.50 81.50Q170 44 238 44Q310 44 340 83.50Q370 123 370 212Q370 227 369.50 240.50Q369 254 369 265Q361 363 354 466Q347 569 339 667L396 667L424 263L424 263M217 781Q217 764 205.50 752.50Q194 741 178 741Q161 741 149 752.50Q137 764 137 781Q137 798 149 809Q161 820 178 820Q194 820 205.50 809Q217 798 217 781M342 781Q342 764 330.50 752.50Q319 741 302 741Q285 741 273.50 752.50Q262 764 262 781Q262 798 273.50 809Q285 820 302 820Q319 820 330.50 809Q342 798 342 781Z"  horiz-adv-x="477" vert-adv-y="1000"  />

      
      <glyph glyph-name="unid9" unicode="&#xd9;" d="M424 263Q426 246 426 232.50Q426 219 426 208Q426 95 381.50 42.50Q337-10 238-10Q139-10 95 42Q51 94 51 208Q51 222 51.50 235.50Q52 249 53 263L81 667L138 667L108 265Q107 253 107 236Q107 219 107 200Q107 119 138.50 81.50Q170 44 238 44Q310 44 340 83.50Q370 123 370 212Q370 227 369.50 240.50Q369 254 369 265Q361 363 354 466Q347 569 339 667L396 667L424 263L424 263M227 710L130 836L200 836L272 710L227 710Z"  horiz-adv-x="477" vert-adv-y="1000"  />

      
      <glyph glyph-name="unidd" unicode="&#xdd;" d="M241 266L241 0L183 0L183 266Q144 362 100 467Q56 572 16 667L82 667L214 331Q246 416 279 499.50Q312 583 344 667L411 667L241 266M226 710L182 710L254 836L324 836L226 710Z"  horiz-adv-x="426" vert-adv-y="1000"  />

      
      <glyph glyph-name="uni0178" unicode="&#x0178;" d="M241 266L241 0L183 0L183 266Q144 362 100 467Q56 572 16 667L82 667L214 331Q246 416 279 499.50Q312 583 344 667L411 667L241 266M191 781Q191 764 179.50 752.50Q168 741 152 741Q135 741 123 752.50Q111 764 111 781Q111 798 123 809Q135 820 152 820Q168 820 179.50 809Q191 798 191 781M316 781Q316 764 304.50 752.50Q293 741 276 741Q259 741 247.50 752.50Q236 764 236 781Q236 798 247.50 809Q259 820 276 820Q293 820 304.50 809Q316 798 316 781Z"  horiz-adv-x="426" vert-adv-y="1000"  />

      
      <glyph glyph-name="uni017D" unicode="&#x017D;" d="M81 52L300 52L300 0L4 0L232 614L31 614L31 667L312 667L81 52M188 710L149 710L55 834L98 849L169 762Q187 783 205 806Q223 829 240 849L283 834L188 710Z"  horiz-adv-x="319" vert-adv-y="1000"  />

      
      <glyph glyph-name="uniad" unicode="&#xad;" d="M37 267L37 317L236 317L236 267L37 267Z"  horiz-adv-x="273" vert-adv-y="1000"  />

      
      <glyph glyph-name="uni02C9" unicode="&#x02C9;" d="M151 516L151 569L345 569L345 516L151 516Z"  horiz-adv-x="500" vert-adv-y="1000"  />

      
      <glyph glyph-name="uni03A9" unicode="&#x03A9;" d="M384 0L384 51Q406 72 430 101Q454 130 474 169.50Q494 209 507 260Q520 311 520 377Q520 438 506.50 489.50Q493 541 467.50 578.50Q442 616 404.50 637Q367 658 319 658Q270 658 231.50 636.50Q193 615 166.50 577.50Q140 540 126 489Q112 438 112 378Q112 315 124.50 264.50Q137 214 156.50 174.50Q176 135 200.50 105Q225 75 250 51L250 0L52 0L52 53L181 53Q160 73 137 102.50Q114 132 95 172.50Q76 213 63.50 265Q51 317 51 382Q51 452 70.50 512Q90 572 125 616.50Q160 661 209.50 686.50Q259 712 319 712Q380 712 428.50 688.50Q477 665 511 621.50Q545 578 563 517.50Q581 457 581 383Q581 325 569.50 275Q558 225 540 183.50Q522 142 499 109Q476 76 452 53L582 53L582 0L384 0Z"  horiz-adv-x="634" vert-adv-y="1000"  />

      
      <glyph glyph-name="uni03BC" unicode="&#x03BC;" d="M84 231Q78 196 78 164Q78 105 100 74.50Q122 44 164 44Q209 44 244 96.50Q279 149 298 244Q309 311 322 382.50Q335 454 347 521L401 521L336 136L333 115Q331 99 329 87Q327 75 327 72Q327 45 349 45Q350 45 353.50 45Q357 45 369 47L361-8Q360-8 358.50-8.50Q357-9 355-9Q338-14 328-14Q273-14 273 51L273 53Q254 21 225.50 3.50Q197-14 158-14Q123-14 95.50 5Q68 24 53 56Q43-8 32-74.50Q21-141 10-205L-45-205L78 521L133 521L84 231Z"  horiz-adv-x="427" vert-adv-y="1000"  />

      
      <glyph glyph-name="uni03C0" unicode="&#x03C0;" d="M510 8Q497 0 483-3Q469-6 455-6Q426-6 406.50 4Q387 14 374 30.50Q361 47 355.50 69.50Q350 92 350 116L350 450L185 450L185 131Q185 93 181.50 59Q178 25 172 0L111 0Q119 30 122 65Q125 100 125 131L125 450Q107 449 81 443.50Q55 438 38 431Q36 437 34 442Q32 447 30 451.50Q28 456 27 459Q25 464 23 469.50Q21 475 19 480Q35 486 65 494Q95 502 142 502L508 502L508 450L410 450L410 120Q410 87 422.50 66.50Q435 46 466 46Q479 46 496 53L510 8Z"  horiz-adv-x="529" vert-adv-y="1000"  />

      
      <glyph glyph-name="uni20AC" unicode="&#x20AC;" d="M132 305Q156 218 225.50 147.50Q295 77 404 39L373-9Q312 12 261.50 43.50Q211 75 172.50 115.50Q134 156 108.50 204Q83 252 71 305L4 305L4 353L63 353Q62 362 61.50 374Q61 386 61 395L61 406Q61 409 61.50 410Q62 411 62 414L4 414L4 463L67 463Q83 564 147 619Q211 674 311 674Q371 674 420 654L404 601Q355 621 311 621Q240 621 192 579.50Q144 538 128 463L313 463L313 414L121 414Q120 409 120.50 402.50Q121 396 121 391Q121 382 121 372.50Q121 363 123 353L313 353L313 305L132 305Z"  horiz-adv-x="426" vert-adv-y="1000"  />

      
      <glyph glyph-name="uni2113" unicode="&#x2113;" d="M371 54Q362 43 350 31.50Q338 20 323.50 10Q309 0 292-6Q275-12 255-12Q235-12 216.50-4Q198 4 185 15Q168 32 159 61Q150 90 150 129L150 249Q148 247 146 244.50Q144 242 142 240Q131 227 120 214Q109 201 98 189Q91 194 88.50 196Q86 198 85 200Q80 205 73 210.50Q66 216 61 221Q83 248 105.50 274.50Q128 301 150 328L150 568Q150 650 178.50 689Q207 728 256 728Q278 728 294.50 719Q311 710 321.50 695.50Q332 681 337 663Q342 645 342 628Q342 558 311.50 491.50Q281 425 235 358Q230 350 222.50 340Q215 330 209 322L209 122Q209 75 225.50 57.50Q242 40 262 40Q285 40 305 55.50Q325 71 344 93Q353 80 371 60L371 54M286 625Q286 641 280 658Q274 675 255 675Q246 675 237.50 670.50Q229 666 223 654Q217 642 213 620.50Q209 599 209 565L209 407Q211 410 212.50 412.50Q214 415 216 418Q248 469 267 521.50Q286 574 286 625Z"  horiz-adv-x="436" vert-adv-y="1000"  />

      
      <glyph glyph-name="uni2126" unicode="&#x2126;" d="M384 0L384 51Q406 72 430 101Q454 130 474 169.50Q494 209 507 260Q520 311 520 377Q520 438 506.50 489.50Q493 541 467.50 578.50Q442 616 404.50 637Q367 658 319 658Q270 658 231.50 636.50Q193 615 166.50 577.50Q140 540 126 489Q112 438 112 378Q112 315 124.50 264.50Q137 214 156.50 174.50Q176 135 200.50 105Q225 75 250 51L250 0L52 0L52 53L181 53Q160 73 137 102.50Q114 132 95 172.50Q76 213 63.50 265Q51 317 51 382Q51 452 70.50 512Q90 572 125 616.50Q160 661 209.50 686.50Q259 712 319 712Q380 712 428.50 688.50Q477 665 511 621.50Q545 578 563 517.50Q581 457 581 383Q581 325 569.50 275Q558 225 540 183.50Q522 142 499 109Q476 76 452 53L582 53L582 0L384 0Z"  horiz-adv-x="634" vert-adv-y="1000"  />

      
      <glyph glyph-name="uni212E" unicode="&#x212E;" d="M162 268L162 90Q191 62 227 47Q263 32 305 32Q430 32 500 155Q507 151 514 147Q521 143 526 139L526 140Q529 138 534 135.50Q539 133 542 131Q497 64 442.50 26Q388-12 305-12Q243-12 194 10.50Q145 33 110.50 71.50Q76 110 57.50 161.50Q39 213 39 272Q39 331 57 383Q75 435 109 473.50Q143 512 192.50 534.50Q242 557 304 557Q367 557 416.50 535Q466 513 500.50 474Q535 435 554 382Q573 329 576 268L162 268M448 453Q419 481 381.50 497Q344 513 303 513Q262 513 226 497.50Q190 482 162 455L162 312L448 312L448 453Z"  horiz-adv-x="615" vert-adv-y="1000"  />

      
      <glyph glyph-name="uni2202" unicode="&#x2202;" d="M462 508Q462 471 456.50 418.50Q451 366 438 308Q426 256 405 200Q384 144 352.50 97.50Q321 51 279 21Q237-9 183-9Q117-9 77 38Q37 85 37 163Q37 230 56.50 292Q76 354 109.50 400.50Q143 447 188 475Q233 503 284 503Q326 503 354 485Q382 467 398 441Q400 456 401 473Q402 490 402 510Q402 599 371 635.50Q340 672 285 672Q268 672 246.50 666Q225 660 205 649Q203 654 201 659.50Q199 665 197 670Q195 675 193.50 681Q192 687 187 696Q196 701 208.50 706.50Q221 712 235 716Q249 720 263.50 722.50Q278 725 290 725Q371 725 416.50 672.50Q462 620 462 508M186 44Q254 44 306 128Q358 212 387 369Q378 406 351 429Q324 452 283 452Q245 452 211 427Q177 402 152 361.50Q127 321 112.50 268.50Q98 216 98 161Q98 103 123 73.50Q148 44 186 44Z"  horiz-adv-x="500" vert-adv-y="1000"  />

      
      <glyph glyph-name="uni2206" unicode="&#x2206;" d="M12 0L12 36Q66 202 119.50 368Q173 534 227 700L288 700Q314 616 341 532.50Q368 449 394 366Q421 282 447.50 200Q474 118 500 36L500 0L12 0M245 575Q204 447 162.50 315Q121 183 80 53L430 53Q410 118 389.50 181.50Q369 245 349 311L266 575Q263 586 261 595Q259 604 257 612Q256 613 257 614Q257 614 256 616Q251 595 245 575Z"  horiz-adv-x="513" vert-adv-y="1000"  />

      
      <glyph glyph-name="uni220F" unicode="&#x220F;" d="M481-227L481 647L138 647L138-227L78-227L78 700L541 700L541-227L481-227Z"  horiz-adv-x="620" vert-adv-y="1000"  />

      
      <glyph glyph-name="uni2211" unicode="&#x2211;" d="M26-227L26-203Q63-147 100.50-91Q138-35 175 21Q213 76 249 130Q285 184 322 240L187 453Q153 507 118.50 561Q84 615 50 669L50 700L498 700L498 647L127 647Q147 613 168.50 581.50Q190 550 211 516Q254 449 298.50 378.50Q343 308 386 241Q316 136 247.50 33.50Q179-69 108-174L523-174L523-227L26-227Z"  horiz-adv-x="550" vert-adv-y="1000"  />

      
      <glyph glyph-name="uni2215" unicode="&#x2215;" d="M31-53L-21-45L122 722L175 713L31-53Z"  horiz-adv-x="153" vert-adv-y="1000"  />

      
      <glyph glyph-name="uni2219" unicode="&#x2219;" d="M114 334Q114 317 102 305.50Q90 294 73 294Q56 294 44 305.50Q32 317 32 334Q32 352 44 364Q56 376 73 376Q90 376 102 363.50Q114 351 114 334Z"  horiz-adv-x="146" vert-adv-y="1000"  />

      
      <glyph glyph-name="uni221A" unicode="&#x221A;" d="M410 723Q389 630 368 539.50Q347 449 327 357Q306 265 284.50 172.50Q263 80 243-12L191-12Q179 22 167.50 57Q156 92 144 127Q125 181 107.50 232.50Q90 284 71 338Q66 336 60.50 332.50Q55 329 50 327L23 313Q19 319 14.50 327.50Q10 336 7 343Q5 345 2.50 351Q0 357-1 359Q23 372 52 386Q81 400 105 412Q133 331 159 253.50Q185 176 214 94Q234 180 251.50 261Q269 342 289 429Q306 502 323 579Q340 656 356 728L406 728L410 723Z"  horiz-adv-x="412" vert-adv-y="1000"  />

      
      <glyph glyph-name="uni221E" unicode="&#x221E;" d="M617 294Q617 264 606.50 237.50Q596 211 578 191.50Q560 172 535.50 160.50Q511 149 483 149Q457 149 434.50 157.50Q412 166 393 179.50Q374 193 359 210Q344 227 332 244Q320 226 305 209Q290 192 272 178.50Q254 165 233.50 157Q213 149 191 149Q159 149 133 160Q107 171 88.50 189.50Q70 208 60 234Q50 260 50 290Q50 321 60 348Q70 375 88 394Q106 413 131 424Q156 435 187 435Q217 435 240.50 425.50Q264 416 282 402Q300 388 313 371.50Q326 355 335 341Q345 357 358.50 373.50Q372 390 389.50 403.50Q407 417 429 426Q451 435 478 435Q507 435 532.50 425Q558 415 576.50 396.50Q595 378 606 352Q617 326 617 294M559 294Q559 332 538.50 357.50Q518 383 477 383Q441 383 414 359.50Q387 336 361 293Q385 248 415.50 224.50Q446 201 476 201Q518 201 538.50 227.50Q559 254 559 294M191 201Q210 201 226.50 208.50Q243 216 257.50 229Q272 242 284 258Q296 274 306 292Q296 310 283 326.50Q270 343 255 355.50Q240 368 223.50 375.50Q207 383 191 383Q169 383 153.50 375.50Q138 368 128 355Q118 342 113.50 325.50Q109 309 109 290Q109 248 132 224.50Q155 201 191 201Z"  horiz-adv-x="668" vert-adv-y="1000"  />

      
      <glyph glyph-name="uni222B" unicode="&#x222B;" d="M356 687Q351 690 340.50 692.50Q330 695 320 695Q285 695 267 671Q249 647 249 602L249-68Q249-134 215-173.50Q181-213 118-213Q104-213 87.50-210Q71-207 61-203L68-178Q70-173 71.50-165Q73-157 75-152Q84-156 93-158Q102-160 116-160Q188-160 188-68L188 603Q188 669 222.50 708Q257 747 320 747Q335 747 351 743.50Q367 740 375 735Q373 730 371.50 723Q370 716 368 711L362 690L356 687Z"  horiz-adv-x="436" vert-adv-y="1000"  />

      
      <glyph glyph-name="uni2248" unicode="&#x2248;" d="M518 416Q496 384 466 360Q436 336 394 336Q365 336 339.50 345.50Q314 355 291 369Q272 380 250.50 389.50Q229 399 208 399Q184 399 161 380.50Q138 362 121 333L81 377Q104 410 133.50 435Q163 460 208 460Q237 460 261.50 450.50Q286 441 309 427Q331 413 351 404.50Q371 396 393 396Q417 396 439.50 414Q462 432 480 462L518 421L518 416M518 209Q496 176 466 152.50Q436 129 394 129Q365 129 339.50 138Q314 147 291 161Q272 172 250.50 182Q229 192 208 192Q184 192 161 173.50Q138 155 121 126L81 169Q104 203 133.50 227.50Q163 252 208 252Q237 252 261.50 242.50Q286 233 309 219Q331 206 351 197.50Q371 189 393 189Q417 189 439.50 207Q462 225 480 254L518 214L518 209Z"  horiz-adv-x="600" vert-adv-y="1000"  />

      
      <glyph glyph-name="uni2260" unicode="&#x2260;" d="M266 159Q252 127 236 93.50Q220 60 205 28L141 28L203 159L95 159L95 219L232 219Q250 258 266 293.50Q282 329 300 368L95 368L95 428L329 428Q343 461 359 495Q375 529 390 562L454 562L392 428L505 428L505 368L363 368Q346 330 329 294Q312 258 294 219L505 219L505 159L266 159Z"  horiz-adv-x="600" vert-adv-y="1000"  />

      
      <glyph glyph-name="uni2264" unicode="&#x2264;" d="M95 328L95 366L505 567L505 498L191 346Q270 309 348 271Q426 233 505 196L505 128L95 328M95 0L95 60L505 60L505 0L95 0Z"  horiz-adv-x="600" vert-adv-y="1000"  />

      
      <glyph glyph-name="uni2265" unicode="&#x2265;" d="M95 128L95 196L409 348Q331 384 252 423Q173 462 95 498L95 567L505 366L505 328L95 128M95 0L95 60L505 60L505 0L95 0Z"  horiz-adv-x="600" vert-adv-y="1000"  />

      
      <glyph glyph-name="uni25CA" unicode="&#x25CA;" d="M422 348Q401 304 380.50 261Q360 218 339 175Q318 132 296.50 87.50Q275 43 255 0L218 0L134 174Q113 217 92 261.50Q71 306 51 349Q71 392 92 436Q113 480 134 524Q155 567 176.50 611.50Q198 656 218 700L255 700Q275 656 296.50 612Q318 568 339 525Q360 482 380.50 438.50Q401 395 422 352L422 348M236 83Q268 149 300.50 216Q333 283 365 350Q331 419 300 483Q269 547 237 616Q220 583 204.50 551Q189 519 174 486Q157 451 141 417Q125 383 108 349Q119 326 130.50 302.50Q142 279 153 256Q173 214 193.50 170Q214 126 236 83Z"  horiz-adv-x="475" vert-adv-y="1000"  />

      
      <glyph glyph-name="uniE09C" unicode="&#xE09C;" d="M347 0L292 328L130 328Q116 247 103.50 164Q91 81 78 0L21 0L122 615L67 615L67 667L297 667L406 0L347 0M245 615L176 615Q167 555 158 498Q149 441 139 381L284 381L245 615Z"  horiz-adv-x="427" vert-adv-y="1000"  />

      
      <glyph glyph-name="uniE0A1" unicode="&#xE0A1;" d="M347 0L292 328L130 328Q116 247 103.50 164Q91 81 78 0L21 0L122 615L67 615L67 667L297 667L406 0L347 0M245 615L176 615Q167 555 158 498Q149 441 139 381L284 381L245 615M202 710L105 836L175 836L247 710L202 710Z"  horiz-adv-x="427" vert-adv-y="1000"  />

      
      <glyph glyph-name="uniE0A2" unicode="&#xE0A2;" d="M347 0L292 328L130 328Q116 247 103.50 164Q91 81 78 0L21 0L122 615L67 615L67 667L297 667L406 0L347 0M245 615L176 615Q167 555 158 498Q149 441 139 381L284 381L245 615M227 710L183 710L255 836L325 836L227 710Z"  horiz-adv-x="427" vert-adv-y="1000"  />

      
      <glyph glyph-name="uniE0A3" unicode="&#xE0A3;" d="M347 0L292 328L130 328Q116 247 103.50 164Q91 81 78 0L21 0L122 615L67 615L67 667L297 667L406 0L347 0M245 615L176 615Q167 555 158 498Q149 441 139 381L284 381L245 615M285 710L214 797Q196 776 178 753.50Q160 731 143 710L100 725L194 849L234 849L328 725L285 710Z"  horiz-adv-x="427" vert-adv-y="1000"  />

      
      <glyph glyph-name="uniE0A4" unicode="&#xE0A4;" d="M347 0L292 328L130 328Q116 247 103.50 164Q91 81 78 0L21 0L122 615L67 615L67 667L297 667L406 0L347 0M245 615L176 615Q167 555 158 498Q149 441 139 381L284 381L245 615M317 781Q317 764 305.50 752.50Q294 741 277 741Q260 741 248.50 752.50Q237 764 237 781Q237 798 248.50 809Q260 820 277 820Q294 820 305.50 809Q317 798 317 781M192 781Q192 764 180.50 752.50Q169 741 153 741Q136 741 124 752.50Q112 764 112 781Q112 798 124 809Q136 820 153 820Q169 820 180.50 809Q192 798 192 781Z"  horiz-adv-x="427" vert-adv-y="1000"  />

      
      <glyph glyph-name="uniE0A5" unicode="&#xE0A5;" d="M347 0L292 328L130 328Q116 247 103.50 164Q91 81 78 0L21 0L122 615L67 615L67 667L297 667L406 0L347 0M245 615L176 615Q167 555 158 498Q149 441 139 381L284 381L245 615M333 790Q333 757 316.50 739.50Q300 722 270 722Q250 722 230.50 735Q211 748 193 762Q181 772 171.50 779.50Q162 787 154 787Q143 787 143 773L143 727L93 727L93 764Q93 797 109.50 814.50Q126 832 156 832Q178 832 196.50 819.50Q215 807 232 793Q245 783 254.50 775Q264 767 272 767Q283 767 283 781L283 824L333 824L333 790L333 790Z"  horiz-adv-x="427" vert-adv-y="1000"  />

      
      <glyph glyph-name="uniE0A6" unicode="&#xE0A6;" d="M347 0L292 328L130 328Q116 247 103.50 164Q91 81 78 0L21 0L122 615L67 615L67 667L297 667L406 0L347 0M245 615L176 615Q167 555 158 498Q149 441 139 381L284 381L245 615M284 786Q284 755 263 733.50Q242 712 211 712Q180 712 159 733Q138 754 138 786Q138 818 159 838.50Q180 859 211 859Q242 859 263 838Q284 817 284 786M245 786Q245 800 235 810Q225 820 210 820Q196 820 186 810Q176 800 176 786Q176 772 186 762Q196 752 210 752Q225 752 235 762Q245 772 245 786Z"  horiz-adv-x="427" vert-adv-y="1000"  />

      
      <glyph glyph-name="uniE0AC" unicode="&#xE0AC;" d="M234 259Q234 208 225.50 169.50Q217 131 194.50 99.50Q172 68 133 42.50Q94 17 33-8L15 44Q64 66 95.50 87Q127 108 145 132.50Q163 157 170 187.50Q177 218 177 259L177 667L234 667L234 259L234 259Z"  horiz-adv-x="291" vert-adv-y="1000"  />

      
      <glyph glyph-name="uniE0B0" unicode="&#xE0B0;" d="M337 0L337 345Q282 401 227 458Q172 515 118 571Q107 430 96.50 285.50Q86 141 75 0L22 0L67 667L107 667L337 427L337 667L394 667L394 0L337 0Z"  horiz-adv-x="452" vert-adv-y="1000"  />

      
      <glyph glyph-name="uniE0DB" unicode="&#xE0DB;" d="M337 0L337 345Q282 401 227 458Q172 515 118 571Q107 430 96.50 285.50Q86 141 75 0L22 0L67 667L107 667L337 427L337 667L394 667L394 0L337 0M354 790Q354 722 292 722Q272 722 252.50 735Q233 748 215 762Q203 772 193 779.50Q183 787 175 787Q164 787 164 773L164 727L115 727L115 764Q115 797 131.50 814.50Q148 832 177 832Q200 832 218 819.50Q236 807 253 793Q266 783 276 775Q286 767 294 767Q305 767 305 781L305 824L354 824L354 790L354 790Z"  horiz-adv-x="452" vert-adv-y="1000"  />

      
      <glyph glyph-name="uniE0E3" unicode="&#xE0E3;" d="M336 0L268 283L147 283Q130 213 112.50 141.50Q95 70 78 0L21 0L186 667L232 667L394 0L336 0M213 514Q210 526 208 537Q207 532 206 526Q205 520 203 514L160 335L255 335L213 514Z"  horiz-adv-x="415" vert-adv-y="1000"  />

      
      <glyph glyph-name="uniE0E4" unicode="&#xE0E4;" d="M257 342Q229 394 185 394Q142 394 116.50 351Q91 308 91 224Q91 139 117 93.50Q143 48 185 48Q228 48 257 101L300 69Q256-3 184-3Q116-3 75.50 55Q35 113 35 224Q35 333 75 390Q115 447 184 447Q257 447 301 375L257 342Z"  horiz-adv-x="327" vert-adv-y="1000"  />

      
      <glyph glyph-name="uniE0E5" unicode="&#xE0E5;" d="M92 233Q92 48 186 48Q229 48 258 100L305 68Q261-4 184-4Q112-4 73.50 53.50Q35 111 35 224Q35 334 74.50 390.50Q114 447 186 447Q317 447 317 264L317 233L92 233M185 394Q115 394 97 288L259 288Q257 340 238 367Q219 394 185 394Z"  horiz-adv-x="339" vert-adv-y="1000"  />

      
      <glyph glyph-name="uniE0E6" unicode="&#xE0E6;" d="M336 0L268 283L147 283Q130 213 112.50 141.50Q95 70 78 0L21 0L186 667L232 667L394 0L336 0M213 514Q210 526 208 537Q207 532 206 526Q205 520 203 514L160 335L255 335L213 514M202 710L105 836L175 836L247 710L202 710Z"  horiz-adv-x="415" vert-adv-y="1000"  />

      
      <glyph glyph-name="uniE0E7" unicode="&#xE0E7;" d="M336 0L268 283L147 283Q130 213 112.50 141.50Q95 70 78 0L21 0L186 667L232 667L394 0L336 0M213 514Q210 526 208 537Q207 532 206 526Q205 520 203 514L160 335L255 335L213 514M227 710L183 710L254 836L325 836L227 710Z"  horiz-adv-x="415" vert-adv-y="1000"  />

      
      <glyph glyph-name="uniE0E8" unicode="&#xE0E8;" d="M336 0L268 283L147 283Q130 213 112.50 141.50Q95 70 78 0L21 0L186 667L232 667L394 0L336 0M285 710L214 797Q196 776 178 753.50Q160 731 143 710L100 725L194 849L234 849L328 725L285 710M213 514Q210 526 208 537Q207 532 206 526Q205 520 203 514L160 335L255 335L213 514Z"  horiz-adv-x="415" vert-adv-y="1000"  />

      
      <glyph glyph-name="uniE0E9" unicode="&#xE0E9;" d="M336 0L268 283L147 283Q130 213 112.50 141.50Q95 70 78 0L21 0L186 667L232 667L394 0L336 0M213 514Q210 526 208 537Q207 532 206 526Q205 520 203 514L160 335L255 335L213 514M317 781Q317 764 305.50 752.50Q294 741 277 741Q260 741 248.50 752.50Q237 764 237 781Q237 798 248.50 809Q260 820 277 820Q294 820 305.50 809Q317 798 317 781M192 781Q192 764 180.50 752.50Q169 741 153 741Q136 741 124 752.50Q112 764 112 781Q112 798 124 809Q136 820 153 820Q169 820 180.50 809Q192 798 192 781Z"  horiz-adv-x="415" vert-adv-y="1000"  />

      
      <glyph glyph-name="uniE0EA" unicode="&#xE0EA;" d="M336 0L268 283L147 283Q130 213 112.50 141.50Q95 70 78 0L21 0L186 667L232 667L394 0L336 0M333 790Q333 757 316.50 739.50Q300 722 270 722Q250 722 230.50 735Q211 748 193 762Q181 772 171 779.50Q161 787 154 787Q143 787 143 773L143 727L93 727L93 764Q93 797 109.50 814.50Q126 832 156 832Q178 832 196.50 819.50Q215 807 232 793Q245 783 254.50 775Q264 767 272 767Q283 767 283 781L283 824L333 824L333 790L333 790M213 514Q210 526 208 537Q207 532 206 526Q205 520 203 514L160 335L255 335L213 514Z"  horiz-adv-x="415" vert-adv-y="1000"  />

      
      <glyph glyph-name="uniE0EB" unicode="&#xE0EB;" d="M336 0L268 283L147 283Q130 213 112.50 141.50Q95 70 78 0L21 0L186 667L232 667L394 0L336 0M284 786Q284 755 262.50 733.50Q241 712 211 712Q180 712 159 733Q138 754 138 786Q138 818 159 838.50Q180 859 211 859Q241 859 262.50 838Q284 817 284 786M213 514Q210 526 208 537Q207 532 206 526Q205 520 203 514L160 335L255 335L213 514M245 786Q245 800 235 810Q225 820 210 820Q196 820 186 810Q176 800 176 786Q176 772 186 762Q196 752 210 752Q225 752 235 762Q245 772 245 786Z"  horiz-adv-x="415" vert-adv-y="1000"  />

      
      <glyph glyph-name="uniE0EC" unicode="&#xE0EC;" d="M257 342Q229 394 185 394Q142 394 116.50 351Q91 308 91 224Q91 139 117 93.50Q143 48 185 48Q228 48 257 101L300 69Q260 4 199-2Q195-8 192-13.50Q189-19 185-25Q225-43 245-63.50Q265-84 265-115Q265-144 242.50-164Q220-184 176-184Q159-184 141-180Q123-176 103-167L118-123Q135-131 149-136Q163-141 177-141Q196-141 206.50-134.50Q217-128 217-118Q217-98 192.50-82Q168-66 117-49L150 1Q96 12 65.50 69Q35 126 35 224Q35 333 75 390Q115 447 184 447Q257 447 301 375L257 342Z"  horiz-adv-x="327" vert-adv-y="1000"  />

      
      <glyph glyph-name="uniFB01" unicode="&#xFB01;" d="M262 0L262 393L121 393L121 0L66 0L66 393L9 393L9 443L65 443Q64 447 63.50 451.50Q63 456 62 460Q56 499 52 532Q48 565 48 591Q48 636 65 655Q82 674 121 674Q159 674 200 656L185 606Q153 623 128 623Q105 623 105 585Q105 568 108 543.50Q111 519 115 488Q117 477 118 466.50Q119 456 120 443L317 443L317 0L262 0M262 507L262 601L317 601L317 507L262 507Z"  horiz-adv-x="375" vert-adv-y="1000"  />

      
      <glyph glyph-name="uniFB02" unicode="&#xFB02;" d="M121 393L121 0L66 0L66 393L9 393L9 443L65 443Q64 447 63.50 451.50Q63 456 62 460Q56 499 52 532Q48 565 48 591Q48 636 65 655Q82 674 121 674Q159 674 200 656L185 606Q153 623 128 623Q105 623 105 585Q105 568 108 543.50Q111 519 115 488Q117 477 118 466.50Q119 456 120 443L211 443L211 393L121 393M262 0L262 671L317 671L317 0L262 0Z"  horiz-adv-x="375" vert-adv-y="1000"  />

      
      <glyph glyph-name="uni0410" unicode="&#x0410;" d="M339 0L284 328L122 328Q108 247 95.50 164Q83 81 70 0L13 0L122 673L289 673L398 0L339 0M237 621L168 621Q159 561 150 501Q141 441 131 381L276 381L237 621Z"  horiz-adv-x="410" vert-adv-y="1000"  />

      
      <glyph glyph-name="uni0412" unicode="&#x0412;" d="M338 546Q338 462 238 371Q310 326 346 277Q382 228 382 163Q382 126 369.50 96Q357 66 334.50 44.50Q312 23 282 11.50Q252 0 217 0L38 0L38 672L192 672Q262 672 300 638Q338 604 338 546M198 52Q256 52 289 81.50Q322 111 322 162Q322 230 264.50 281.50Q207 333 94 389L94 52L198 52M94 450Q119 437 143 424Q167 411 191 399Q277 473 277 540Q277 577 251.50 598Q226 619 178 619L94 619L94 450Z"  horiz-adv-x="420" vert-adv-y="1000"  />

      
      <glyph glyph-name="uni0413" unicode="&#x0413;" d="M98 619L98 0L42 0L42 672L321 672L321 619L98 619Z"  horiz-adv-x="349" vert-adv-y="1000"  />

      
      <glyph glyph-name="uni0415" unicode="&#x0415;" d="M40 0L40 673L319 673L319 620L96 620L96 443L294 443L294 391L96 391L96 52L326 52L326 0L40 0Z"  horiz-adv-x="359" vert-adv-y="1000"  />

      
      <glyph glyph-name="uni0416" unicode="&#x0416;" d="M328 294Q304 306 280.50 317Q257 328 234 340L87 0L20 0Q60 91 101.50 185Q143 279 183 370Q77 455 77 595Q77 632 95 677L147 663Q132 622 132 583Q132 451 263 386Q279 378 295 370Q311 362 328 354L328 672L384 672L384 354Q401 362 417 370Q433 378 449 386Q580 451 580 583Q580 622 565 663L617 677Q635 632 635 595Q635 455 529 370Q569 279 610.50 185Q652 91 692 0L625 0L478 340Q455 328 431.50 317Q408 306 384 294L384 0L328 0L328 294Z"  horiz-adv-x="712" vert-adv-y="1000"  />

      
      <glyph glyph-name="uni041A" unicode="&#x041A;" d="M337 0L190 341Q167 329 143.50 318Q120 307 96 295L96 0L40 0L40 673L96 673L96 355Q113 363 129 371Q145 379 161 387Q292 452 292 584Q292 623 277 664L329 678Q347 633 347 596Q347 456 241 371Q281 280 322.50 185.50Q364 91 404 0L337 0Z"  horiz-adv-x="444" vert-adv-y="1000"  />

      
      <glyph glyph-name="uni041C" unicode="&#x041C;" d="M387 0L387 558Q385 556 384 553Q383 550 381 548L242 309L103 539Q101 543 95 552L95 0L39 0L39 674L87 674L243 410Q281 476 319.50 542Q358 608 396 674L443 674L443 0L387 0Z"  horiz-adv-x="483" vert-adv-y="1000"  />

      
      <glyph glyph-name="uni041D" unicode="&#x041D;" d="M323 0L323 391L95 391L95 0L39 0L39 672L95 672L95 443L323 443L323 672L380 672L380 0L323 0Z"  horiz-adv-x="424" vert-adv-y="1000"  />

      
      <glyph glyph-name="uni041E" unicode="&#x041E;" d="M470 333Q470 251 453.50 187Q437 123 408 79.50Q379 36 338 13Q297-10 249-10Q201-10 161 12.50Q121 35 92.50 78.50Q64 122 48 186Q32 250 32 333Q32 416 48 479.50Q64 543 92.50 586.50Q121 630 161 652Q201 674 249 674Q299 674 339.50 651.50Q380 629 409 586Q438 543 454 479Q470 415 470 333M409 332Q409 473 366 547Q323 621 251 621Q178 621 135.50 547.50Q93 474 93 332Q93 190 135.50 117Q178 44 251 44Q323 44 366 117.50Q409 191 409 332Z"  horiz-adv-x="505" vert-adv-y="1000"  />

      
      <glyph glyph-name="uni041F" unicode="&#x041F;" d="M315 0L315 620L87 620L87 0L31 0L31 672L87 672L87 672L315 672L315 672L372 672L372 0L315 0Z"  horiz-adv-x="410" vert-adv-y="1000"  />

      
      <glyph glyph-name="uni0420" unicode="&#x0420;" d="M191 672Q266 672 305 638Q344 604 344 541Q344 486 299 431.50Q254 377 166 308L87 244L87 0L31 0L31 672L191 672M137 352Q208 406 245.50 450Q283 494 283 540Q283 577 257.50 598Q232 619 184 619L87 619L87 314Q99 323 112.50 333Q126 343 137 352Z"  horiz-adv-x="368" vert-adv-y="1000"  />

      
      <glyph glyph-name="uni0421" unicode="&#x0421;" d="M368 601Q319 621 275 621Q187 621 136 560.50Q85 500 85 391Q85 335 104 281.50Q123 228 159.50 182Q196 136 248.50 99Q301 62 368 39L337-9Q263 16 205 57Q147 98 107 150.50Q67 203 46 265Q25 327 25 395Q25 460 42.50 512Q60 564 92.50 600Q125 636 171.50 655Q218 674 275 674Q335 674 384 654L368 601Z"  horiz-adv-x="405" vert-adv-y="1000"  />

      
      <glyph glyph-name="uni0422" unicode="&#x0422;" d="M226 619L226 0L168 0L168 619L19 619L19 672L372 672L372 619L226 619Z"  horiz-adv-x="396" vert-adv-y="1000"  />

      
      <glyph glyph-name="uni0424" unicode="&#x0424;" d="M554 455Q556 471 550 489.50Q544 508 531 523.50Q518 539 498.50 547.50Q479 556 454 553L346 553L347 160Q360 172 373.50 184.50Q387 197 399 210Q474 279 510.50 337.50Q547 396 554 455M287 0L285 84L201 164Q156 207 121.50 245Q87 283 63.50 317.50Q40 352 28 386Q16 420 16 456Q16 486 26 513.50Q36 541 56 562Q76 583 106 595Q136 607 175 607L286 607L286 672L343 672L344 607L455 607Q494 607 524 595Q554 583 574 562Q594 541 604 513.50Q614 486 614 456Q614 420 602 386Q590 352 566.50 317.50Q543 283 508.50 245Q474 207 429 164L345 84L343 0L287 0M76 455Q83 396 119.50 337.50Q156 279 231 210Q243 197 256.50 184.50Q270 172 283 160L284 553L176 553Q151 556 131.50 547.50Q112 539 99 523.50Q86 508 80 489.50Q74 471 76 455Z"  horiz-adv-x="637" vert-adv-y="1000"  />

      
      <glyph glyph-name="uni0411" unicode="&#x0411;" d="M91 619L91 515Q164 456 214 404.50Q264 353 294 306Q324 259 336.50 215.50Q349 172 348 130Q348 67 309 33Q270-1 195-1L35-1L35 672L314 672L314 619L91 619M91 52L188 52Q236 52 261.50 73Q287 94 287 131Q289 173 272.50 216Q256 259 228 300Q200 341 164 378Q128 415 91 445L91 52Z"  horiz-adv-x="383" vert-adv-y="1000"  />

      
      <glyph glyph-name="uni0418" unicode="&#x0418;" d="M35 0L35 672L92 672L92 408L345 672L390 672L390 0L334 0L334 575Q272 511 213 450.50Q154 390 92 326L92 0L35 0Z"  horiz-adv-x="424" vert-adv-y="1000"  />

      
      <glyph glyph-name="uni0414" unicode="&#x0414;" d="M445-1L403-1L65-1L65-96L7-96L7 52L71 52L172 673L339 673L439 52L503 52L503-95L445-95L445-1M287 621L218 621Q195 477 172 335.50Q149 194 127 52L380 52L287 621Z"  horiz-adv-x="522" vert-adv-y="1000"  />

      
      <glyph glyph-name="uni0417" unicode="&#x0417;" d="M75 441L152 441Q185 441 211 461Q232 481 245.50 499Q259 517 259 544Q259 580 235.50 600Q212 620 170 620Q124 620 64 592L58 595L42 644Q106 674 169 674Q203 674 231 664Q259 654 278.50 637Q298 620 308.50 596Q319 572 319 544Q319 455 229 412Q254 391 277.50 366Q301 341 318 312.50Q335 284 345.50 252.50Q356 221 356 187Q356 100 304.50 49.50Q253-1 162-1Q124-1 91 8.50Q58 18 26 40L47 88Q104 53 162 53Q225 53 260.50 86.50Q296 120 296 183Q296 228 274.50 271Q253 314 219 348Q205 362 190 373Q175 384 158 389Q134 387 115 387.50Q96 388 75 389L75 441Z"  horiz-adv-x="383" vert-adv-y="1000"  />

      
      <glyph glyph-name="uni0419" unicode="&#x0419;" d="M92 0L92 326Q154 390 213 450.50Q272 511 334 575L334 0L390 0L390 672L345 672L92 408L92 672L35 672L35 0L92 0M346 841Q317 727 217 727Q115 727 86 846L137 846Q156 777 217 777Q276 777 296 846L342 846L346 841Z"  horiz-adv-x="424" vert-adv-y="1000"  />

      
      <glyph glyph-name="uni041B" unicode="&#x041B;" d="M426 673L426 0L368 0L368 616L175 616Q173 543 171.50 461.50Q170 380 162 302Q156 251 146.50 203.50Q137 156 120.50 115.50Q104 75 81 43Q58 11 25-8L7 50Q51 82 73 150Q95 218 105 303Q110 349 112.50 398Q115 447 116 495Q117 543 117 588.50Q117 634 118 673L426 673Z"  horiz-adv-x="468" vert-adv-y="1000"  />

      
      <glyph glyph-name="uni0423" unicode="&#x0423;" d="M191-9Q156-9 111.50 3.50Q67 16 32 47L55 104Q67 90 84.50 79.50Q102 69 121 61.50Q140 54 158.50 50Q177 46 191 45Q263 45 306 84Q349 123 349 212Q349 244 347 275.50Q345 307 343 337Q328 302 296 284.50Q264 267 227 263Q190 259 153 268.50Q116 278 91 298Q62 321 45.50 363.50Q29 406 33 473L51 672L111 672L94 489Q83 397 114 355.50Q145 314 208 316Q260 314 295 349Q330 384 334 449Q332 478 330.50 504.50Q329 531 327 557.50Q325 584 323 611.50Q321 639 318 671L375 671Q377 620 379.50 582Q382 544 384.50 511.50Q387 479 389.50 449.50Q392 420 394.50 385.50Q397 351 399.50 308.50Q402 266 404 208Q406 151 391.50 110Q377 69 349 42.50Q321 16 280.50 3.50Q240-9 191-9Z"  horiz-adv-x="434" vert-adv-y="1000"  />

      
      <glyph glyph-name="uni0425" unicode="&#x0425;" d="M331 0L201 288Q169 216 136 144Q103 72 71 0L7 0L170 343Q132 424 93 505.50Q54 587 16 672L84 672L202 404Q232 470 261.50 535.50Q291 601 321 672L385 672L233 347Q274 261 315 173.50Q356 86 398 0L331 0Z"  horiz-adv-x="405" vert-adv-y="1000"  />

      
      <glyph glyph-name="uni0426" unicode="&#x0426;" d="M216-4Q117-4 73 48Q29 100 29 214Q29 228 29.50 241.50Q30 255 31 269L59 674L116 674L86 271Q85 259 85 242Q85 225 85 206Q85 125 116.50 87.50Q148 50 216 50L315 51L315 672L372 672L372 52L436 52L436-95L378-95L378-1L216-4Z"  horiz-adv-x="466" vert-adv-y="1000"  />

      
      <glyph glyph-name="uni0427" unicode="&#x0427;" d="M323 356L323 671L380 671L380 0L323 0L323 303L280 303Q227 303 180 318Q133 333 98.50 359Q64 385 44 420Q24 455 24 495L24 672L81 672L81 495Q81 465 98.50 440Q116 415 145 396Q174 377 211 366.50Q248 356 287 356L323 356Z"  horiz-adv-x="420" vert-adv-y="1000"  />

      
      <glyph glyph-name="uni0428" unicode="&#x0428;" d="M220 1Q121-2 77 50Q33 102 33 216Q33 230 33.50 243.50Q34 257 35 271L63 675L120 675L90 273Q89 261 89 244Q89 227 89 208Q89 127 120.50 89.50Q152 52 220 52L319 53L319 668L375 668L375 53L603 53L603 668L660 668L660 1L603 1L603 1L375 1L375 1L220 1Z"  horiz-adv-x="698" vert-adv-y="1000"  />

      
      <glyph glyph-name="uni0429" unicode="&#x0429;" d="M665 1L375 1L375 1L220 1Q121-2 77 50Q33 102 33 216Q33 230 33.50 243.50Q34 257 35 271L63 675L120 675L90 273Q89 261 89 244Q89 227 89 208Q89 127 120.50 89.50Q152 52 220 52L319 53L319 668L375 668L375 53L603 53L603 668L660 668L660 57L724 57L724-90L666-90L665 1Z"  horiz-adv-x="759" vert-adv-y="1000"  />

      
      <glyph glyph-name="uni042C" unicode="&#x042C;" d="M91 668L91 471Q164 412 214 367.50Q264 323 294 284.50Q324 246 336.50 209Q349 172 348 130Q348 67 309 33Q270-1 195-1L35-1L35 668L91 668M91 52L188 52Q236 52 261.50 73Q287 94 287 131Q288 168 271.50 203.50Q255 239 227 273Q199 307 163.50 339Q128 371 91 401L91 52Z"  horiz-adv-x="383" vert-adv-y="1000"  />

      
      <glyph glyph-name="uni042B" unicode="&#x042B;" d="M91 668L91 471Q164 412 214 367.50Q264 323 294 284.50Q324 246 336.50 209Q349 172 348 130Q348 67 309 33Q270-1 195-1L35-1L35 668L91 668M91 52L188 52Q236 52 261.50 73Q287 94 287 131Q288 168 271.50 203.50Q255 239 227 273Q199 307 163.50 339Q128 371 91 401L91 52M394-1L394 666L451 666L451-1L394-1Z"  horiz-adv-x="493" vert-adv-y="1000"  />

      
      <glyph glyph-name="uni042A" unicode="&#x042A;" d="M387 131Q387 68 345.50 34Q304 0 229 0L4 0L232 614L31 614L31 667L312 667L226 436Q276 383 307.50 341Q339 299 356.50 263Q374 227 380.50 195Q387 163 387 131M82 53L222 53Q270 53 298 74Q326 95 326 132Q327 164 318.50 193.50Q310 223 294.50 252Q279 281 256 311.50Q233 342 204 377L82 53Z"  horiz-adv-x="417" vert-adv-y="1000"  />

      
      <glyph glyph-name="uni042D" unicode="&#x042D;" d="M12 654Q61 674 121 674Q178 674 224.50 655Q271 636 303.50 600Q336 564 353.50 512Q371 460 371 395Q371 327 350 265Q329 203 289 150.50Q249 98 191 57Q133 16 59-9L28 39Q95 62 147.50 99Q200 136 236.50 182Q273 228 292 281.50Q311 335 311 391L79 391L79 443L308 443Q298 515 260 560Q209 621 121 621Q77 621 28 601L12 654Z"  horiz-adv-x="405" vert-adv-y="1000"  />

      
      <glyph glyph-name="uni042E" unicode="&#x042E;" d="M607 333Q607 251 590.50 187Q574 123 545 79.50Q516 36 475 13Q434-10 386-10Q338-10 298 12.50Q258 35 229.50 78.50Q201 122 185 186Q169 250 169 333Q169 363 171 391L95 391L95 0L39 0L39 672L95 672L95 443L177 443Q180 462 185 479Q201 543 229.50 586.50Q258 630 298 652Q338 674 386 674Q436 674 476.50 651.50Q517 629 546 586Q575 543 591 479Q607 415 607 333M546 332Q546 473 503 547Q460 621 388 621Q315 621 272.50 547.50Q230 474 230 332Q230 190 272.50 117Q315 44 388 44Q460 44 503 117.50Q546 191 546 332Z"  horiz-adv-x="639" vert-adv-y="1000"  />

      
      <glyph glyph-name="uni042F" unicode="&#x042F;" d="M9 0Q55 84 101.50 169Q148 254 194 338Q126 393 93 441Q60 489 60 536Q60 599 97 633Q134 667 205 667L372 667L372 0L316 0L316 243Q297 257 278.50 272Q260 287 241 301L78 0L9 0M266 347Q277 338 290.50 328Q304 318 316 309L316 614L219 614Q171 614 145.50 593Q120 572 120 535Q120 488 158 444.50Q196 401 266 347Z"  horiz-adv-x="407" vert-adv-y="1000"  />

      
      <glyph glyph-name="uni0404" unicode="&#x0404;" d="M354 601Q305 621 261 621Q173 621 122 560Q84 515 74 443L303 443L303 391L71 391Q71 335 90 281.50Q109 228 145.50 182Q182 136 234.50 99Q287 62 354 39L323-9Q249 16 191 57Q133 98 93 150.50Q53 203 32 265Q11 327 11 395Q11 460 28.50 512Q46 564 78.50 600Q111 636 157.50 655Q204 674 261 674Q321 674 370 654L354 601Z"  horiz-adv-x="400" vert-adv-y="1000"  />

      
      <glyph glyph-name="uni0406" unicode="&#x0406;" d="M56 0L56 667L113 667L113 0L56 0Z"  horiz-adv-x="168" vert-adv-y="1000"  />

      
      <glyph glyph-name="uni0407" unicode="&#x0407;" d="M56 0L56 667L113 667L113 0L56 0M62 781Q62 764 50.50 752.50Q39 741 23 741Q6 741-6 752.50Q-18 764-18 781Q-18 798-6 809Q6 820 23 820Q39 820 50.50 809Q62 798 62 781M187 781Q187 764 175.50 752.50Q164 741 147 741Q130 741 118.50 752.50Q107 764 107 781Q107 798 118.50 809Q130 820 147 820Q164 820 175.50 809Q187 798 187 781Z"  horiz-adv-x="168" vert-adv-y="1000"  />

      
      <glyph glyph-name="uni0401" unicode="&#x0401;" d="M58 0L58 667L337 667L337 614L114 614L114 443L312 443L312 391L114 391L114 52L344 52L344 0L58 0M177 781Q177 764 165.50 752.50Q154 741 138 741Q121 741 109 752.50Q97 764 97 781Q97 798 109 809Q121 820 138 820Q154 820 165.50 809Q177 798 177 781M302 781Q302 764 290.50 752.50Q279 741 262 741Q245 741 233.50 752.50Q222 764 222 781Q222 798 233.50 809Q245 820 262 820Q279 820 290.50 809Q302 798 302 781Z"  horiz-adv-x="368" vert-adv-y="1000"  />

      
      <glyph glyph-name="uni2116" unicode="&#x2116;" d="M457 261L457 311L656 311L656 261L457 261M668 510Q668 429 638.50 386.50Q609 344 557 344Q506 344 476.50 386Q447 428 447 510Q447 590 475.50 631Q504 672 557 672Q611 672 639.50 631Q668 590 668 510M614 510Q614 565 598.50 594.50Q583 624 557 624Q531 624 516 594.50Q501 565 501 510Q501 453 516.50 422.50Q532 392 557 392Q583 392 598.50 422.50Q614 453 614 510M339 0L339 345Q284 401 229 458Q174 515 120 571Q109 430 98.50 285.50Q88 141 77 0L24 0L69 667L109 667L339 427L339 667L396 667L396 0L339 0Z"  horiz-adv-x="710" vert-adv-y="1000"  />

      
      <glyph glyph-name="uni040E" unicode="&#x040E;" d="M191-9Q156-9 111.50 3.50Q67 16 32 47L55 104Q67 90 84.50 79.50Q102 69 121 61.50Q140 54 158.50 50Q177 46 191 45Q263 45 306 84Q349 123 349 212Q349 244 347 275.50Q345 307 343 337Q328 302 296 284.50Q264 267 227 263Q190 259 153 268.50Q116 278 91 298Q62 321 45.50 363.50Q29 406 33 473L51 672L111 672L94 489Q83 397 114 355.50Q145 314 208 316Q260 314 295 349Q330 384 334 449Q332 478 330.50 504.50Q329 531 327 557.50Q325 584 323 611.50Q321 639 318 671L375 671Q377 620 379.50 582Q382 544 384.50 511.50Q387 479 389.50 449.50Q392 420 394.50 385.50Q397 351 399.50 308.50Q402 266 404 208Q406 151 391.50 110Q377 69 349 42.50Q321 16 280.50 3.50Q240-9 191-9M343 843Q314 729 214 729Q112 729 83 848L134 848Q153 779 214 779Q273 779 293 848L339 848L343 843Z"  horiz-adv-x="434" vert-adv-y="1000"  />

      
      <glyph glyph-name="uni0490" unicode="&#x0490;" d="M98 619L98 0L42 0L42 672L266 672L266 740L322 740L321 619L98 619Z"  horiz-adv-x="349" vert-adv-y="1000"  />

      
      <glyph glyph-name="uni0430" unicode="&#x0430;" d="M339 0L284 328L122 328Q108 247 95.50 164Q83 81 70 0L13 0L122 673L289 673L398 0L339 0M237 621L168 621Q159 561 150 501Q141 441 131 381L276 381L237 621Z"  horiz-adv-x="410" vert-adv-y="1000"  />

      
      <glyph glyph-name="uni0431" unicode="&#x0431;" d="M91 619L91 515Q164 456 214 404.50Q264 353 294 306Q324 259 336.50 215.50Q349 172 348 130Q348 67 309 33Q270-1 195-1L35-1L35 672L314 672L314 619L91 619M91 52L188 52Q236 52 261.50 73Q287 94 287 131Q289 173 272.50 216Q256 259 228 300Q200 341 164 378Q128 415 91 445L91 52Z"  horiz-adv-x="383" vert-adv-y="1000"  />

      
      <glyph glyph-name="uni0432" unicode="&#x0432;" d="M338 546Q338 462 238 371Q310 326 346 277Q382 228 382 163Q382 126 369.50 96Q357 66 334.50 44.50Q312 23 282 11.50Q252 0 217 0L38 0L38 672L192 672Q262 672 300 638Q338 604 338 546M198 52Q256 52 289 81.50Q322 111 322 162Q322 230 264.50 281.50Q207 333 94 389L94 52L198 52M94 450Q119 437 143 424Q167 411 191 399Q277 473 277 540Q277 577 251.50 598Q226 619 178 619L94 619L94 450Z"  horiz-adv-x="420" vert-adv-y="1000"  />

      
      <glyph glyph-name="uni0433" unicode="&#x0433;" d="M98 619L98 0L42 0L42 672L321 672L321 619L98 619Z"  horiz-adv-x="349" vert-adv-y="1000"  />

      
      <glyph glyph-name="uni0434" unicode="&#x0434;" d="M445-1L403-1L65-1L65-96L7-96L7 52L71 52L172 673L339 673L439 52L503 52L503-95L445-95L445-1M287 621L218 621Q195 477 172 335.50Q149 194 127 52L380 52L287 621Z"  horiz-adv-x="522" vert-adv-y="1000"  />

      
      <glyph glyph-name="uni0435" unicode="&#x0435;" d="M40 0L40 673L319 673L319 620L96 620L96 443L294 443L294 391L96 391L96 52L326 52L326 0L40 0Z"  horiz-adv-x="359" vert-adv-y="1000"  />

      
      <glyph glyph-name="uni0436" unicode="&#x0436;" d="M328 294Q304 306 280.50 317Q257 328 234 340L87 0L20 0Q60 91 101.50 185Q143 279 183 370Q77 455 77 595Q77 632 95 677L147 663Q132 622 132 583Q132 451 263 386Q279 378 295 370Q311 362 328 354L328 672L384 672L384 354Q401 362 417 370Q433 378 449 386Q580 451 580 583Q580 622 565 663L617 677Q635 632 635 595Q635 455 529 370Q569 279 610.50 185Q652 91 692 0L625 0L478 340Q455 328 431.50 317Q408 306 384 294L384 0L328 0L328 294Z"  horiz-adv-x="712" vert-adv-y="1000"  />

      
      <glyph glyph-name="uni0437" unicode="&#x0437;" d="M75 441L152 441Q185 441 211 461Q232 481 245.50 499Q259 517 259 544Q259 580 235.50 600Q212 620 170 620Q124 620 64 592L58 595L42 644Q106 674 169 674Q203 674 231 664Q259 654 278.50 637Q298 620 308.50 596Q319 572 319 544Q319 455 229 412Q254 391 277.50 366Q301 341 318 312.50Q335 284 345.50 252.50Q356 221 356 187Q356 100 304.50 49.50Q253-1 162-1Q124-1 91 8.50Q58 18 26 40L47 88Q104 53 162 53Q225 53 260.50 86.50Q296 120 296 183Q296 228 274.50 271Q253 314 219 348Q205 362 190 373Q175 384 158 389Q134 387 115 387.50Q96 388 75 389L75 441Z"  horiz-adv-x="383" vert-adv-y="1000"  />

      
      <glyph glyph-name="uni0438" unicode="&#x0438;" d="M35 0L35 672L92 672L92 408L345 672L390 672L390 0L334 0L334 575Q272 511 213 450.50Q154 390 92 326L92 0L35 0Z"  horiz-adv-x="424" vert-adv-y="1000"  />

      
      <glyph glyph-name="uni0439" unicode="&#x0439;" d="M92 0L92 326Q154 390 213 450.50Q272 511 334 575L334 0L390 0L390 672L345 672L92 408L92 672L35 672L35 0L92 0M346 841Q317 727 217 727Q115 727 86 846L137 846Q156 777 217 777Q276 777 296 846L342 846L346 841Z"  horiz-adv-x="424" vert-adv-y="1000"  />

      
      <glyph glyph-name="uni043A" unicode="&#x043A;" d="M337 0L190 341Q167 329 143.50 318Q120 307 96 295L96 0L40 0L40 673L96 673L96 355Q113 363 129 371Q145 379 161 387Q292 452 292 584Q292 623 277 664L329 678Q347 633 347 596Q347 456 241 371Q281 280 322.50 185.50Q364 91 404 0L337 0Z"  horiz-adv-x="444" vert-adv-y="1000"  />

      
      <glyph glyph-name="uni043B" unicode="&#x043B;" d="M426 673L426 0L368 0L368 616L175 616Q173 543 171.50 461.50Q170 380 162 302Q156 251 146.50 203.50Q137 156 120.50 115.50Q104 75 81 43Q58 11 25-8L7 50Q51 82 73 150Q95 218 105 303Q110 349 112.50 398Q115 447 116 495Q117 543 117 588.50Q117 634 118 673L426 673Z"  horiz-adv-x="468" vert-adv-y="1000"  />

      
      <glyph glyph-name="uni043C" unicode="&#x043C;" d="M387 0L387 558Q385 556 384 553Q383 550 381 548L242 309L103 539Q101 543 95 552L95 0L39 0L39 674L87 674L243 410Q281 476 319.50 542Q358 608 396 674L443 674L443 0L387 0Z"  horiz-adv-x="483" vert-adv-y="1000"  />

      
      <glyph glyph-name="uni043D" unicode="&#x043D;" d="M323 0L323 391L95 391L95 0L39 0L39 672L95 672L95 443L323 443L323 672L380 672L380 0L323 0Z"  horiz-adv-x="424" vert-adv-y="1000"  />

      
      <glyph glyph-name="uni043E" unicode="&#x043E;" d="M470 333Q470 251 453.50 187Q437 123 408 79.50Q379 36 338 13Q297-10 249-10Q201-10 161 12.50Q121 35 92.50 78.50Q64 122 48 186Q32 250 32 333Q32 416 48 479.50Q64 543 92.50 586.50Q121 630 161 652Q201 674 249 674Q299 674 339.50 651.50Q380 629 409 586Q438 543 454 479Q470 415 470 333M409 332Q409 473 366 547Q323 621 251 621Q178 621 135.50 547.50Q93 474 93 332Q93 190 135.50 117Q178 44 251 44Q323 44 366 117.50Q409 191 409 332Z"  horiz-adv-x="505" vert-adv-y="1000"  />

      
      <glyph glyph-name="uni043F" unicode="&#x043F;" d="M315 0L315 620L87 620L87 0L31 0L31 672L87 672L315 672L372 672L372 0L315 0Z"  horiz-adv-x="410" vert-adv-y="1000"  />

      
      </font>
</defs>
</svg>
