<?xml version="1.0" encoding="UTF-8"?>
<svg width="200px" height="200px" viewBox="0 0 2028 1256" xmlns="http://www.w3.org/2000/svg" xmlns:xlink="http://www.w3.org/1999/xlink" version="1.1">
 <!-- Generated by Pixelmator Pro 2.0.6 -->
 <path id="Фигура" d="M1003 1159.74 C990.625 1159.683 974.65 1159.282 967.5 1158.848 960.35 1158.414 950.9 1157.638 946.5 1157.124 942.1 1156.61 935.35 1155.72 931.5 1155.147 927.65 1154.573 921.8 1153.646 918.5 1153.087 915.2 1152.528 907.215 1150.917 900.756 1149.508 894.297 1148.098 885.071 1146.088 880.256 1145.04 875.44 1143.992 866.1 1141.503 859.5 1139.509 852.9 1137.515 842.219 1134.109 835.764 1131.939 829.31 1129.77 819.635 1126.224 814.264 1124.06 808.894 1121.895 800.9 1118.583 796.5 1116.7 792.1 1114.817 783.55 1110.87 777.5 1107.93 771.45 1104.99 762.9 1100.607 758.5 1098.19 754.1 1095.774 747.8 1092.361 744.5 1090.606 741.2 1088.851 733.325 1084.084 727 1080.013 720.675 1075.941 712.229 1070.335 708.231 1067.555 704.234 1064.775 697.484 1059.872 693.231 1056.661 688.979 1053.45 681.573 1047.691 676.773 1043.863 671.973 1040.036 662.973 1032.353 656.773 1026.791 650.573 1021.229 641.112 1012.372 635.75 1007.108 630.388 1001.844 626 996.762 626 995.814 626 994.594 627.094 993.919 629.75 993.503 631.813 993.18 634.731 992.723 636.235 992.486 637.739 992.25 640.851 991.096 643.15 989.923 645.449 988.75 650.16 984.819 653.618 981.186 659.191 975.332 660.167 974.69 662.203 975.543 663.466 976.072 667.875 979.83 672 983.894 676.125 987.958 683.955 995.157 689.4 999.892 694.845 1004.626 703.884 1012.1 709.487 1016.5 715.09 1020.9 724.36 1027.773 730.087 1031.774 735.814 1035.775 743.2 1040.689 746.5 1042.695 749.8 1044.701 757.225 1049.205 763 1052.704 768.775 1056.202 779.35 1062.05 786.5 1065.698 793.65 1069.347 804 1074.338 809.5 1076.79 815 1079.242 824.225 1083.036 830 1085.222 835.775 1087.407 844.1 1090.485 848.5 1092.063 852.9 1093.64 861.9 1096.489 868.5 1098.394 875.1 1100.3 886.125 1103.28 893 1105.016 899.875 1106.753 908.875 1108.838 913 1109.649 917.125 1110.461 924.1 1111.583 928.5 1112.142 932.9 1112.701 939.65 1113.557 943.5 1114.043 947.35 1114.529 956.35 1115.497 963.5 1116.195 970.661 1116.894 989.526 1117.462 1005.5 1117.459 1021.45 1117.457 1040.125 1116.901 1047 1116.225 1053.875 1115.549 1062.875 1114.563 1067 1114.036 1071.125 1113.508 1077.875 1112.653 1082 1112.136 1086.125 1111.619 1095.232 1110.008 1102.238 1108.556 1109.244 1107.104 1121.619 1104.103 1129.738 1101.889 1137.857 1099.674 1150.575 1095.822 1158 1093.329 1165.425 1090.835 1177.575 1086.413 1185 1083.502 1192.425 1080.59 1204.125 1075.469 1211 1072.121 1217.875 1068.773 1228.675 1063.264 1235 1059.879 1241.325 1056.495 1250.775 1051.016 1256 1047.705 1261.225 1044.394 1269.257 1039.236 1273.848 1036.243 1278.439 1033.25 1286.539 1027.517 1291.848 1023.503 1297.156 1019.488 1304.949 1013.345 1309.165 1009.852 1313.381 1006.358 1320.094 1000.8 1324.083 997.5 1331.336 991.5 1331.336 991.5 1341.418 991.692 1346.963 991.798 1357.8 992.144 1365.5 992.462 1373.2 992.78 1380.512 993.265 1381.75 993.539 1383.081 993.834 1384 994.785 1384 995.866 1384 996.899 1377.802 1003.757 1369.75 1011.633 1361.912 1019.3 1350.325 1029.996 1344 1035.401 1337.675 1040.807 1327.892 1048.76 1322.261 1053.075 1316.629 1057.39 1306.054 1064.951 1298.761 1069.876 1291.467 1074.801 1281.45 1081.278 1276.5 1084.268 1271.55 1087.258 1263 1092.208 1257.5 1095.267 1252 1098.326 1241.609 1103.76 1234.409 1107.342 1227.208 1110.924 1213.933 1116.844 1204.909 1120.498 1195.884 1124.151 1182.78 1129.108 1175.789 1131.514 1168.798 1133.92 1157.773 1137.464 1151.289 1139.39 1144.805 1141.316 1132.3 1144.526 1123.5 1146.523 1114.7 1148.52 1105.137 1150.57 1102.25 1151.077 1099.363 1151.585 1094.412 1152.48 1091.25 1153.066 1088.088 1153.653 1082.35 1154.594 1078.5 1155.157 1074.65 1155.72 1068.125 1156.584 1064 1157.077 1059.875 1157.57 1049.525 1158.394 1041 1158.909 1032.475 1159.423 1015.375 1159.797 1003 1159.74 Z M1022.5 938.5 C1022.5 916.5 1022.5 916.5 1016 916.191 1010.692 915.938 1009.317 916.197 1008.5 917.603 1007.95 918.55 1006.713 920.151 1005.75 921.162 1004.253 922.734 1002.366 923 992.691 923 985.153 923 980.855 922.583 979.802 921.75 978.933 921.063 977.706 919.487 977.076 918.25 975.932 916.006 975.866 916 950.465 916 926.333 916 924.895 915.895 923 914 921.259 912.259 921 910.667 921 901.691 921 894.685 921.427 890.799 922.332 889.561 923.064 888.559 925.427 887.454 927.582 887.104 931.5 886.469 931.5 886.469 932 864.652 932.461 844.531 932.651 842.725 934.441 841.417 935.914 840.342 940.04 840 951.555 840 966.472 840 966.886 839.941 976.114 836.477 981.276 834.539 987.355 832.686 989.623 832.358 992.419 831.955 996.282 832.48 1001.623 833.989 1005.955 835.213 1012.175 837.067 1015.444 838.108 1020.087 839.586 1024.411 840 1035.194 840 1047.667 840 1049.193 840.193 1051 842 1052.833 843.833 1053 845.333 1053 860 1053 874.667 1052.833 876.167 1051 878 1049.247 879.753 1047.667 880 1038.191 880 1030.596 880 1026.823 879.591 1025.501 878.624 1024.29 877.739 1023.42 875.511 1023.06 872.374 1022.5 867.5 1022.5 867.5 993 867.5 L963.5 867.5 963.5 876 C963.5 884.5 963.5 884.5 969.301 884.801 974.66 885.08 975.319 884.87 977.952 882.051 980.802 879 980.802 879 992.5 879 1004.198 879 1004.198 879 1007 882 1009.802 885 1009.802 885 1035.901 885 1060.667 885 1062.102 885.102 1064 887 1065.764 888.764 1066 890.333 1066 900.309 1066 908.329 1065.6 912.165 1064.624 913.499 1063.739 914.71 1061.511 915.58 1058.374 915.94 1053.5 916.5 1053.5 916.5 1053 939.832 1052.537 961.455 1052.358 963.269 1050.559 964.582 1049.098 965.65 1045.077 966 1034.296 966 1023.146 966 1018.409 966.434 1012.903 967.96 1009.014 969.037 1003.282 970.892 1000.166 972.08 997.05 973.269 993.825 974.386 993 974.564 992.175 974.742 986.775 973.01 981 970.716 970.5 966.544 970.5 966.544 952.667 966.022 936.509 965.549 934.7 965.318 933.417 963.559 932.351 962.099 932 958.074 932 947.309 932 934.333 932.186 932.814 934 931 935.732 929.268 937.333 929 945.935 929 951.399 929 956.972 929.419 958.319 929.931 960.031 930.582 961.041 932.013 961.672 934.681 962.575 938.5 962.575 938.5 992.537 938.5 L1022.5 938.5 Z M1297.708 830.575 C1325.636 839.993 1325.678 840 1339.329 840 1351.786 840 1353.182 840.182 1355.054 842.054 1357.02 844.02 1357.094 845.038 1356.804 865.911 1356.5 887.715 1356.5 887.715 1350.25 894.394 1346.813 898.068 1344 901.551 1344 902.134 1344 902.717 1346.813 905.879 1350.25 909.159 1356.5 915.122 1356.5 915.122 1356.801 938.51 1357.09 960.969 1357.021 961.979 1355.051 963.949 1353.18 965.82 1351.782 966 1339.127 966 1325.592 966 1324.942 966.101 1312.377 970.153 1305.295 972.437 1298.6 974.426 1297.5 974.574 1296.4 974.721 1290.55 972.871 1284.5 970.461 1273.5 966.08 1273.5 966.08 1256.941 966.04 1244.279 966.009 1239.926 965.666 1238.441 964.582 1236.642 963.269 1236.463 961.455 1236 939.848 1235.5 916.531 1235.5 916.531 1231.582 915.896 1229.427 915.546 1227.064 914.441 1226.332 913.439 1225.431 912.207 1225 908.347 1225 901.5 1225 894.653 1225.431 890.793 1226.332 889.561 1227.064 888.559 1229.427 887.454 1231.582 887.104 1235.5 886.469 1235.5 886.469 1236 864.652 1236.461 844.531 1236.651 842.725 1238.441 841.417 1239.913 840.343 1244.024 840 1255.439 840 1270.496 840 1270.496 840 1284.102 835.287 L1297.708 830.575 Z M616.814 968.821 C606.066 969.061 602.084 968.812 600.832 967.821 599.343 966.642 599.282 965.532 600.263 957.5 600.868 952.55 601.394 941.3 601.431 932.5 601.5 916.5 601.5 916.5 597.106 915.914 594.51 915.567 592.158 914.568 591.356 913.473 590.426 912.201 590 908.439 590 901.5 590 894.653 590.431 890.793 591.332 889.561 592.064 888.559 594.378 887.461 596.473 887.12 598.568 886.779 600.718 885.81 601.25 884.966 601.823 884.057 601.982 878.349 601.641 870.966 601.324 864.11 600.645 854.9 600.133 850.5 599.334 843.639 599.428 842.322 600.792 841.25 601.883 840.392 606.559 840 615.691 840 627.667 840 629.2 840.2 631 842 632.92 843.92 633 845.333 633 877.5 633 906.043 633.214 911 634.445 911 635.24 911 639.149 907.287 643.133 902.75 647.117 898.213 652.879 891.607 655.938 888.071 658.997 884.535 664.159 878.797 667.409 875.321 670.658 871.844 674.08 869 675.013 869 675.946 869 678.913 871.382 681.605 874.292 684.297 877.203 689.2 882.674 692.5 886.45 695.8 890.225 700.34 895.446 702.59 898.051 704.839 900.657 707.995 904.384 709.603 906.335 711.211 908.285 713.308 910.181 714.263 910.547 715.891 911.172 716 909.106 716 877.607 716 845.333 716.079 843.921 718 842 719.802 840.198 721.333 840 733.5 840 745.854 840 747.177 840.177 749.087 842.087 750.664 843.664 750.997 844.823 750.453 846.837 750.056 848.302 749.337 852.875 748.854 857 748.372 861.125 747.705 868.891 747.372 874.257 746.934 881.317 747.109 884.427 748.006 885.507 748.687 886.328 750.765 887 752.622 887 754.667 887 756.79 887.79 758 889 759.746 890.746 760 892.333 760 901.5 760 910.667 759.746 912.254 758 914 756.79 915.21 754.667 916 752.622 916 750.765 916 748.692 916.666 748.017 917.48 747.121 918.559 746.947 922.152 747.372 930.73 747.694 937.204 748.366 946.1 748.866 950.5 749.367 954.9 750.098 959.916 750.492 961.646 751.062 964.149 750.763 965.237 749.03 966.97 746.968 969.032 746.118 969.131 733.127 968.824 722.036 968.562 718.882 968.159 716.693 966.722 715.203 965.744 708.7 957.776 702.242 949.016 695.784 940.255 687.34 928.46 683.479 922.803 679.617 917.147 675.738 912.381 674.859 912.211 673.853 912.018 671.408 914.421 668.256 918.702 665.504 922.441 660.986 928.791 658.217 932.812 655.448 936.834 650.338 944.259 646.86 949.312 643.383 954.366 638.42 960.75 635.833 963.5 631.128 968.5 631.128 968.5 616.814 968.821 Z M870.5 916.5 L810.5 916.5 810.5 927.5 C810.5 938.5 810.5 938.5 816.457 939.14 820.995 939.627 822.9 940.345 824.457 942.157 825.581 943.464 829.143 948.425 832.372 953.182 835.602 957.938 838.455 962.93 838.712 964.275 839.079 966.195 838.677 966.854 836.84 967.346 835.553 967.691 822.999 967.979 808.941 967.986 788.444 967.997 782.998 967.719 781.441 966.582 779.637 965.265 779.465 963.446 779 940.848 778.5 916.531 778.5 916.531 774.582 915.896 772.427 915.546 770.064 914.441 769.332 913.439 768.412 912.181 768 908.18 768 900.5 768 892.82 768.412 888.819 769.332 887.561 770.064 886.559 772.427 885.454 774.582 885.104 778.5 884.469 778.5 884.469 779 863.652 779.459 844.522 779.657 842.72 781.441 841.417 782.914 840.342 787.035 840 798.512 840 813.642 840 813.642 840 824.501 835.908 830.473 833.657 836.764 831.588 838.481 831.309 840.56 830.972 846.46 832.34 856.135 835.401 870.174 839.844 871.091 840 883.142 840 892.329 840 896.129 840.374 897.559 841.417 899.349 842.725 899.539 844.531 900 864.667 900.5 886.5 900.5 886.5 905.374 887.06 908.511 887.42 910.739 888.29 911.624 889.501 912.577 890.804 913 894.491 913 901.5 913 908.509 912.577 912.196 911.624 913.499 910.739 914.71 908.511 915.58 905.374 915.94 900.5 916.5 900.5 916.5 900.545 932.5 900.569 941.3 901.129 952.325 901.788 957 902.869 964.667 902.822 965.623 901.302 966.75 900.172 967.589 895.629 968 887.5 968 878.62 968 874.864 967.621 873.441 966.582 871.637 965.265 871.465 963.446 871 940.832 L870.5 916.5 Z M1174.5 916.5 L1114.5 916.5 1114.5 927.5 C1114.5 938.5 1114.5 938.5 1120.356 939.129 1124.696 939.595 1126.791 940.372 1128.445 942.129 1129.672 943.433 1132.276 946.75 1134.232 949.5 1136.187 952.25 1139.282 956.91 1141.109 959.856 1144.32 965.033 1144.367 965.259 1142.524 966.606 1141.007 967.715 1135.183 968 1114 968 1092.605 968 1087.001 967.722 1085.441 966.582 1083.637 965.265 1083.465 963.446 1083 940.848 1082.5 916.531 1082.5 916.531 1078.582 915.896 1076.427 915.546 1074.064 914.441 1073.332 913.439 1072.412 912.181 1072 908.18 1072 900.5 1072 892.82 1072.412 888.819 1073.332 887.561 1074.064 886.559 1076.427 885.454 1078.582 885.104 1082.5 884.469 1082.5 884.469 1083 863.652 1083.459 844.522 1083.657 842.72 1085.441 841.417 1086.921 840.337 1091.115 840 1103.098 840 1118.613 840 1118.938 839.955 1128.656 836.429 1134.07 834.465 1140.075 832.396 1142 831.831 1145.066 830.93 1147.166 831.373 1158.946 835.401 1172.341 839.982 1172.444 840 1186.005 840 1196.173 840 1200.109 840.359 1201.559 841.417 1203.343 842.72 1203.541 844.522 1204 863.667 1204.5 884.5 1204.5 884.5 1209.374 885.06 1212.511 885.42 1214.739 886.29 1215.624 887.501 1216.6 888.835 1217 892.671 1217 900.691 1217 910.667 1216.764 912.236 1215 914 1213.79 915.21 1211.667 916 1209.622 916 1207.765 916 1205.701 916.656 1205.035 917.457 1204.171 918.499 1203.982 922.137 1204.372 930.207 1204.672 936.418 1205.359 945.325 1205.898 950 1206.437 954.675 1207.175 959.693 1207.537 961.152 1208.024 963.113 1207.649 964.351 1206.098 965.902 1204.195 967.805 1202.858 968 1191.691 968 1182.647 968 1178.867 967.624 1177.441 966.582 1175.637 965.265 1175.465 963.446 1175 940.832 L1174.5 916.5 Z M1394.691 968 C1385.647 968 1381.867 967.624 1380.441 966.582 1378.637 965.265 1378.465 963.446 1378 940.832 1377.5 916.5 1377.5 916.5 1372.626 915.94 1369.489 915.58 1367.261 914.71 1366.376 913.499 1365.403 912.169 1365 908.358 1365 900.5 1365 892.642 1365.403 888.831 1366.376 887.501 1367.261 886.29 1369.489 885.42 1372.626 885.06 1377.5 884.5 1377.5 884.5 1377.422 870.5 1377.379 862.8 1376.985 853.745 1376.545 850.377 1375.825 844.869 1375.959 844.041 1377.873 842.127 1379.812 840.188 1381.088 840 1392.309 840 1401.352 840 1405.133 840.376 1406.559 841.417 1408.343 842.72 1408.541 844.522 1409 863.667 1409.5 884.5 1409.5 884.5 1414.374 885.06 1417.511 885.42 1419.739 886.29 1420.624 887.501 1421.597 888.831 1422 892.642 1422 900.5 1422 908.358 1421.597 912.169 1420.624 913.499 1419.739 914.71 1417.511 915.58 1414.374 915.94 1409.5 916.5 1409.5 916.5 1409.631 931 1409.703 938.975 1410.094 949.61 1410.498 954.633 1411.182 963.129 1411.086 963.914 1409.117 965.883 1407.19 967.81 1405.893 968 1394.691 968 Z M1325.5 936.5 L1325.5 916.5 1296.5 916.5 1267.5 916.5 1267.208 925.421 C1267.048 930.327 1267.149 934.947 1267.433 935.686 1267.852 936.778 1273.363 936.981 1296.724 936.765 L1325.5 936.5 Z M563.467 915 C562.674 915 560.963 913.313 559.665 911.25 558.367 909.188 553.681 901.2 549.252 893.5 544.823 885.8 537.744 872.158 533.521 863.185 529.298 854.212 523.346 840.937 520.294 833.685 517.243 826.433 513.198 815.775 511.306 810 509.414 804.225 506.311 794.593 504.41 788.595 502.509 782.597 499.845 773.372 498.49 768.095 497.134 762.818 494.877 753.1 493.474 746.5 492.072 739.9 490.513 732.025 490.012 729 489.51 725.975 488.585 720.8 487.957 717.5 487.328 714.2 486.419 707.9 485.937 703.5 485.455 699.1 484.488 689.2 483.789 681.5 483.09 673.8 482.526 654 482.536 637.5 482.546 621 483.109 600.975 483.787 593 484.466 585.025 485.42 575.125 485.908 571 486.397 566.875 487.248 560.575 487.801 557 488.354 553.425 489.965 544.986 491.382 538.246 492.799 531.506 494.837 521.831 495.912 516.746 496.987 511.661 499.651 501.425 501.833 494 504.015 486.575 508.138 473.569 510.995 465.098 513.852 456.627 518.799 443.577 521.988 436.098 525.177 428.619 531.185 415.525 535.339 407 539.494 398.475 545.46 387 548.598 381.5 551.735 376 557.04 367 560.386 361.5 563.732 356 570.066 346.325 574.462 340 578.858 333.675 585.535 324.45 589.299 319.5 593.064 314.55 600.936 304.875 606.794 298 612.652 291.125 624.882 277.9 633.972 268.61 643.063 259.321 653.234 249.421 656.575 246.61 659.917 243.799 666.442 238.33 671.075 234.455 675.709 230.581 683.325 224.458 688 220.849 692.675 217.24 700.632 211.477 705.682 208.043 710.733 204.608 717.353 200.086 720.394 197.993 723.435 195.9 731.228 191.07 737.712 187.26 744.195 183.45 755.575 177.163 763 173.289 770.425 169.415 782.522 163.445 789.883 160.021 797.243 156.598 806.018 152.772 809.383 151.519 812.747 150.266 820.9 147.2 827.5 144.705 834.1 142.211 845.125 138.516 852 136.494 858.875 134.472 869.45 131.512 875.5 129.916 881.55 128.319 890.775 126.152 896 125.1 901.225 124.048 909.325 122.511 914 121.685 918.675 120.859 925.987 119.692 930.25 119.092 934.513 118.491 941.263 117.566 945.25 117.035 949.237 116.504 955.875 115.73 960 115.315 964.125 114.9 984.6 114.578 1005.5 114.6 1027.979 114.623 1047.993 115.129 1054.5 115.839 1060.55 116.499 1068.65 117.45 1072.5 117.954 1076.35 118.457 1082.425 119.34 1086 119.916 1089.575 120.492 1096.1 121.612 1100.5 122.404 1104.9 123.197 1113.177 124.821 1118.895 126.013 1124.612 127.205 1136.987 130.393 1146.395 133.097 1155.802 135.801 1168 139.532 1173.5 141.389 1179 143.245 1189.8 147.259 1197.5 150.309 1205.2 153.359 1217.575 158.624 1225 162.01 1232.425 165.396 1244.35 171.356 1251.5 175.253 1258.65 179.151 1269 185.044 1274.5 188.349 1280 191.653 1289.898 197.96 1296.497 202.364 1303.095 206.767 1312.688 213.549 1317.815 217.435 1322.943 221.321 1328.843 225.85 1330.927 227.5 1333.01 229.15 1337.817 233.052 1341.608 236.171 1345.398 239.29 1351.901 244.915 1356.057 248.671 1360.214 252.427 1368.036 259.775 1373.44 265 1378.844 270.225 1387.593 279.362 1392.883 285.305 1398.172 291.249 1404.075 298.084 1406 300.496 1407.925 302.908 1412.464 308.62 1416.086 313.191 1419.708 317.761 1425.356 325.1 1428.637 329.5 1431.917 333.9 1437.572 342 1441.203 347.5 1444.833 353 1450.473 362 1453.736 367.5 1456.999 373 1462.125 382 1465.128 387.5 1468.131 393 1472.678 401.775 1475.233 407 1477.788 412.225 1481.981 421.225 1484.551 427 1487.121 432.775 1491.707 444.025 1494.742 452 1497.776 459.975 1501.723 471.225 1503.511 477 1505.3 482.775 1508.366 493.125 1510.324 500 1512.282 506.875 1515.014 518.125 1516.395 525 1517.776 531.875 1519.636 541.55 1520.528 546.5 1521.42 551.45 1522.595 558.425 1523.141 562 1523.686 565.575 1524.547 572.1 1525.056 576.5 1525.564 580.9 1526.5 590.575 1527.136 598 1527.772 605.425 1528.288 622.75 1528.283 636.5 1528.279 650.25 1527.761 668.025 1527.135 676 1526.508 683.975 1525.547 694.1 1525.001 698.5 1524.455 702.9 1523.6 709.2 1523.103 712.5 1522.605 715.8 1521.736 721.2 1521.171 724.5 1520.606 727.8 1518.737 737.475 1517.019 746 1515.3 754.525 1511.156 770.95 1507.81 782.5 1504.464 794.05 1499.491 809.35 1496.758 816.5 1494.026 823.65 1490.772 832.2 1489.528 835.5 1488.283 838.8 1484.214 848.025 1480.486 856 1476.757 863.975 1470.393 876.7 1466.343 884.279 1462.292 891.857 1456.831 901.529 1454.206 905.771 1451.58 910.014 1448.686 913.629 1447.773 913.805 1446.579 914.035 1445.952 913.196 1445.535 910.812 1445.217 908.991 1444.854 897.15 1444.728 884.5 1444.5 861.5 1444.5 861.5 1442 861.216 1440.625 861.059 1438.44 860.485 1437.144 859.939 1435.196 859.118 1434.867 858.388 1435.244 855.723 1435.496 853.95 1439.543 843.95 1444.239 833.5 1448.935 823.05 1455.108 807.975 1457.958 800 1460.808 792.025 1464.511 780.775 1466.187 775 1467.862 769.225 1470.33 760.225 1471.671 755 1473.011 749.775 1474.487 743.7 1474.949 741.5 1475.411 739.3 1476.762 732.775 1477.952 727 1479.142 721.225 1480.791 711.55 1481.617 705.5 1482.442 699.45 1483.614 688.875 1484.22 682 1484.825 675.125 1485.306 654.65 1485.288 636.5 1485.269 618.35 1484.972 599.9 1484.626 595.5 1484.281 591.1 1483.519 583.675 1482.933 579 1482.347 574.325 1481.197 566 1480.376 560.5 1479.556 555 1478.249 547.35 1477.471 543.5 1476.694 539.65 1474.75 531.325 1473.151 525 1471.552 518.675 1469.036 509 1467.559 503.5 1466.082 498 1463.808 490.35 1462.506 486.5 1461.204 482.65 1458.573 475.225 1456.66 470 1454.747 464.775 1451.637 456.9 1449.749 452.5 1447.861 448.1 1444.042 439.458 1441.26 433.296 1438.48 427.133 1433.159 416.558 1429.437 409.796 1425.715 403.033 1419.529 392.325 1415.69 386 1411.851 379.675 1405.873 370.45 1402.405 365.5 1398.938 360.55 1392.895 352.225 1388.977 347 1385.059 341.775 1379.974 335.184 1377.677 332.354 1375.38 329.523 1370.917 324.123 1367.761 320.354 1364.605 316.584 1354.553 306.075 1345.425 297 1336.296 287.925 1325.15 277.35 1320.655 273.5 1316.159 269.65 1308.211 263.095 1302.991 258.934 1297.771 254.773 1289.792 248.803 1285.261 245.669 1280.729 242.534 1273.53 237.588 1269.261 234.678 1264.992 231.768 1256.1 226.21 1249.5 222.328 1242.9 218.445 1231.875 212.395 1225 208.884 1218.125 205.373 1208.824 200.808 1204.332 198.74 1199.839 196.672 1191.514 193.136 1185.832 190.882 1180.149 188.628 1171 185.213 1165.5 183.293 1160 181.373 1151.675 178.543 1147 177.005 1142.325 175.468 1132.65 172.764 1125.5 170.999 1118.35 169.233 1107.325 166.701 1101 165.373 1094.675 164.045 1084.775 162.262 1079 161.412 1073.225 160.561 1064 159.43 1058.5 158.898 1053 158.366 1039.95 157.476 1029.5 156.92 1019.05 156.364 1008.25 155.911 1005.5 155.912 1002.75 155.913 991.725 156.367 981 156.921 970.275 157.474 957 158.346 951.5 158.857 946 159.369 936.785 160.526 931.023 161.429 925.261 162.332 916.036 164 910.523 165.135 905.01 166.271 894.2 168.762 886.5 170.671 878.8 172.58 868.105 175.482 862.734 177.119 857.363 178.756 847.463 182.138 840.734 184.634 834.005 187.13 824 191.013 818.5 193.263 813 195.513 799.4 201.951 788.279 207.57 777.157 213.188 763.882 220.387 758.779 223.566 753.675 226.746 745.225 232.152 740 235.579 734.775 239.007 726.675 244.676 722 248.178 717.325 251.681 708.55 258.415 702.5 263.143 696.45 267.872 688.315 274.611 684.422 278.12 680.529 281.629 672.717 289 667.061 294.5 661.406 300 652.562 309.306 647.407 315.18 642.253 321.054 634.308 330.504 629.753 336.18 625.197 341.856 617.638 351.9 612.954 358.5 608.271 365.1 601.034 375.9 596.873 382.5 592.712 389.1 586.588 399.45 583.264 405.5 579.94 411.55 574.459 422.259 571.084 429.298 567.71 436.337 562.766 447.587 560.098 454.298 557.431 461.009 553.421 471.45 551.189 477.5 548.956 483.55 545.477 494.35 543.458 501.5 541.439 508.65 538.486 519.675 536.896 526 535.306 532.325 533.509 540.425 532.903 544 532.298 547.575 531.396 553.2 530.899 556.5 530.402 559.8 529.524 565.875 528.948 570 528.371 574.125 527.47 581.325 526.945 586 526.42 590.675 525.595 604.175 525.112 616 524.597 628.601 524.609 646.192 525.14 658.5 525.639 670.05 526.452 683.55 526.946 688.5 527.441 693.45 528.33 700.538 528.921 704.25 529.513 707.963 530.429 714.101 530.957 717.892 531.486 721.682 532.864 729.427 534.021 735.103 535.178 740.779 537.466 750.39 539.107 756.461 540.748 762.533 543.681 772.9 545.626 779.5 547.57 786.1 551.663 798.025 554.72 806 557.777 813.975 562.015 824.438 564.138 829.25 566.261 834.063 569.661 841.713 571.693 846.25 573.726 850.788 575.576 855.725 575.804 857.222 576.128 859.348 575.702 860.161 573.859 860.937 572.562 861.484 570.375 862.059 569 862.216 566.5 862.5 566.5 862.5 566.272 885.5 566.146 898.15 565.788 909.963 565.476 911.75 565.145 913.652 564.311 915 563.467 915 Z M870.5 886.5 L870.5 867.5 840.5 867.5 810.5 867.5 810.207 875.916 C810.046 880.545 810.147 884.94 810.431 885.681 810.853 886.779 816.482 886.981 840.724 886.765 L870.5 886.5 Z M1174.5 886.5 L1174.5 867.5 1144.5 867.5 1114.5 867.5 1114.207 875.916 C1114.046 880.545 1114.147 884.94 1114.431 885.681 1114.853 886.779 1120.482 886.981 1144.724 886.765 L1174.5 886.5 Z M1325.5 884.5 L1325.5 867.5 1296.5 867.5 1267.5 867.5 1267.203 874.906 C1267.04 878.98 1267.141 882.924 1267.427 883.672 1267.854 884.782 1273.213 884.982 1296.724 884.765 L1325.5 884.5 Z M696.5 608.5 C649.554 607.535 647.735 607.363 646.418 605.559 645.235 603.94 645 594.604 645 549.309 645 496.333 645.049 494.951 647 493 648.883 491.117 650.333 491 671.878 491 690.283 491 694.983 490.726 695.919 489.598 696.778 488.562 696.971 477.13 696.656 445.848 696.421 422.557 695.77 400.8 695.21 397.5 694.649 394.2 693.904 388.8 693.552 385.5 693.201 382.2 692.51 377.025 692.016 374 691.523 370.975 690.619 364.45 690.008 359.5 689.397 354.55 688.458 347.35 687.922 343.5 687.386 339.65 686.535 333.125 686.032 329 685.529 324.875 684.815 319.863 684.446 317.863 683.905 314.929 684.183 313.817 685.887 312.113 687.996 310.004 688.134 310 755.5 310 821.667 310 823.04 310.039 825 312 826.981 313.981 827 315.333 827 457.941 827 552.103 827.343 602.094 827.993 602.495 828.538 602.833 831.351 600.517 834.243 597.35 837.134 594.182 844.225 586.597 850 580.494 855.775 574.39 866.667 562.763 874.204 554.655 881.741 546.547 893.85 533.52 901.114 525.707 908.377 517.893 919.985 505.454 926.91 498.065 933.834 490.676 944.225 479.623 950 473.504 955.775 467.384 965.775 456.715 972.222 449.794 978.67 442.874 988.486 432.214 994.037 426.106 999.588 419.998 1004.742 415 1005.49 415 1006.239 415 1013.298 421.836 1021.176 430.191 1029.054 438.546 1040 450.144 1045.5 455.964 1051 461.784 1059.512 470.811 1064.415 476.023 1069.318 481.235 1076.518 488.957 1080.415 493.182 1084.312 497.407 1092.9 506.617 1099.5 513.649 1106.1 520.68 1116.326 531.522 1122.225 537.741 1128.123 543.96 1136.546 552.877 1140.941 557.557 1145.337 562.236 1153.335 570.704 1158.716 576.373 1164.097 582.043 1171.962 590.395 1176.194 594.934 1180.426 599.473 1184.363 602.894 1184.944 602.535 1185.677 602.081 1186 557.921 1186 457.941 1186 315.333 1186.019 313.981 1188 312 1189.96 310.04 1191.333 310 1256.5 310 1322.917 310 1323.003 310.003 1325.12 312.12 1326.898 313.898 1327.139 314.984 1326.619 318.87 1326.277 321.416 1325.526 327.1 1324.949 331.5 1324.372 335.9 1323.439 342.65 1322.875 346.5 1322.312 350.35 1321.451 356.2 1320.963 359.5 1320.474 362.8 1319.591 368.875 1319 373 1318.409 377.125 1317.515 383.2 1317.014 386.5 1316.512 389.8 1315.571 396.1 1314.921 400.5 1314.078 406.205 1313.937 418.253 1314.428 442.5 1314.807 461.2 1315.428 479.65 1315.809 483.5 L1316.5 490.5 1339.832 491 C1361.455 491.463 1363.269 491.642 1364.582 493.441 1365.765 495.06 1366 504.371 1366 549.5 1366 594.629 1365.765 603.94 1364.582 605.559 1363.269 607.358 1361.455 607.537 1339.832 608 L1316.5 608.5 1316.564 670 C1316.608 712.089 1317.003 733.946 1317.814 739.25 1318.466 743.513 1319.45 750.375 1320 754.5 1320.55 758.625 1321.433 765.263 1321.962 769.25 1322.492 773.237 1323.379 780.069 1323.934 784.431 1324.489 788.792 1325.457 795.872 1326.084 800.164 1326.712 804.455 1326.954 809.045 1326.624 810.364 1326.287 811.706 1325.027 813.028 1323.761 813.367 1322.517 813.7 1291.44 813.979 1254.7 813.986 1197.688 813.998 1187.505 813.784 1185.2 812.525 1183.715 811.713 1181.037 809.126 1179.249 806.775 1177.461 804.424 1169.003 793.5 1160.452 782.5 1151.902 771.5 1141.031 757.492 1136.294 751.371 1131.557 745.25 1124.423 736.104 1120.44 731.046 1116.457 725.988 1109.666 717.296 1105.349 711.731 1101.032 706.166 1095.626 699.196 1093.337 696.242 1091.047 693.288 1086.67 687.637 1083.611 683.685 1080.552 679.733 1069.268 665.25 1058.536 651.5 1047.805 637.75 1035.825 622.372 1031.915 617.326 1028.005 612.281 1020.997 603.283 1016.341 597.331 1011.686 591.38 1007.235 586.151 1006.45 585.712 1005.445 585.15 1003.582 586.479 1000.148 590.207 997.466 593.118 992.192 599.325 988.428 604 984.663 608.675 978.937 615.958 975.704 620.185 972.471 624.411 966.325 632.444 962.047 638.035 957.768 643.626 946.895 657.856 937.884 669.658 928.873 681.459 920.511 692.552 919.303 694.307 918.095 696.063 913.247 702.45 908.53 708.5 903.812 714.55 896.766 723.627 892.872 728.671 888.978 733.715 883.026 741.41 879.646 745.769 876.266 750.129 867.332 761.527 859.794 771.098 852.255 780.669 841.905 793.662 836.793 799.971 831.681 806.28 826.374 812.011 824.999 812.706 823.059 813.688 807.452 813.974 755.25 813.985 688.278 814 687.991 813.991 685.902 811.902 684.392 810.392 683.969 809.061 684.394 807.152 684.718 805.693 685.43 800.9 685.975 796.5 686.52 792.1 687.429 784.9 687.993 780.5 688.558 776.1 689.443 769.8 689.959 766.5 690.475 763.2 691.163 758.25 691.487 755.5 691.811 752.75 692.513 747.125 693.047 743 693.581 738.875 694.543 732.125 695.186 728 695.965 722.993 696.378 701.888 696.427 664.5 L696.5 608.5 Z" fill="#000000" fill-opacity="1" stroke="none"/>
</svg>
