<svg width="200" height="200" viewBox="0 0 200 200" fill="none" xmlns="http://www.w3.org/2000/svg">
<g filter="url(#filter0_d_39_9)">
<path d="M99.3278 151.071C98.1074 151.065 96.532 151.026 95.8268 150.983C95.1217 150.94 94.1898 150.864 93.7558 150.813C93.3219 150.762 92.6562 150.675 92.2765 150.618C91.8969 150.562 91.3199 150.47 90.9945 150.415C90.669 150.36 89.8816 150.201 89.2446 150.062C88.6076 149.923 87.6977 149.725 87.2229 149.621C86.7479 149.518 85.8268 149.273 85.1759 149.076C84.5251 148.879 83.4717 148.543 82.8351 148.329C82.1986 148.115 81.2445 147.766 80.7148 147.552C80.1852 147.339 79.3969 147.012 78.9629 146.827C78.529 146.641 77.6858 146.252 77.0892 145.962C76.4925 145.672 75.6493 145.239 75.2154 145.001C74.7815 144.763 74.1602 144.426 73.8347 144.253C73.5093 144.08 72.7327 143.61 72.1089 143.208C71.4851 142.807 70.6522 142.254 70.2579 141.98C69.8637 141.706 69.198 141.222 68.7786 140.906C68.3593 140.589 67.6289 140.021 67.1555 139.643C66.6822 139.266 65.7946 138.508 65.1832 137.96C64.5717 137.411 63.6387 136.538 63.1099 136.019C62.5811 135.5 62.1483 134.998 62.1483 134.905C62.1483 134.785 62.2562 134.718 62.5182 134.677C62.7216 134.645 63.0094 134.6 63.1577 134.577C63.306 134.553 63.6129 134.44 63.8397 134.324C64.0664 134.208 64.531 133.821 64.872 133.462C65.4216 132.885 65.5179 132.822 65.7187 132.906C65.8432 132.958 66.278 133.329 66.6848 133.729C67.0916 134.13 67.8638 134.84 68.4008 135.307C68.9378 135.774 69.8292 136.511 70.3818 136.945C70.9343 137.379 71.8485 138.057 72.4133 138.451C72.9781 138.846 73.7065 139.33 74.032 139.528C74.3574 139.726 75.0897 140.17 75.6592 140.515C76.2287 140.86 77.2716 141.437 77.9767 141.797C78.6819 142.157 79.7026 142.649 80.245 142.891C80.7874 143.132 81.6972 143.507 82.2667 143.722C82.8362 143.938 83.6572 144.241 84.0911 144.397C84.5251 144.552 85.4126 144.833 86.0635 145.021C86.7144 145.209 87.8017 145.503 88.4797 145.674C89.1577 145.846 90.0453 146.051 90.4521 146.131C90.8589 146.211 91.5468 146.322 91.9807 146.377C92.4146 146.432 93.0803 146.517 93.46 146.564C93.8397 146.612 94.7272 146.708 95.4324 146.777C96.1386 146.846 97.999 146.902 99.5744 146.901C101.147 146.901 102.989 146.846 103.667 146.78C104.345 146.713 105.233 146.616 105.639 146.564C106.046 146.512 106.712 146.427 107.119 146.376C107.526 146.325 108.424 146.167 109.115 146.023C109.806 145.88 111.026 145.584 111.827 145.366C112.627 145.147 113.882 144.768 114.614 144.522C115.346 144.276 116.544 143.84 117.277 143.553C118.009 143.265 119.163 142.76 119.841 142.43C120.519 142.1 121.584 141.557 122.208 141.223C122.831 140.889 123.763 140.349 124.279 140.022C124.794 139.696 125.586 139.187 126.039 138.892C126.491 138.597 127.29 138.031 127.814 137.636C128.337 137.24 129.106 136.634 129.522 136.289C129.937 135.945 130.599 135.397 130.993 135.071C131.708 134.479 131.708 134.479 132.702 134.498C133.249 134.509 134.318 134.543 135.077 134.574C135.837 134.606 136.558 134.653 136.68 134.68C136.811 134.71 136.902 134.803 136.902 134.91C136.902 135.012 136.291 135.688 135.496 136.465C134.723 137.221 133.581 138.276 132.957 138.809C132.333 139.342 131.368 140.126 130.813 140.552C130.258 140.977 129.215 141.723 128.496 142.209C127.776 142.694 126.788 143.333 126.3 143.628C125.812 143.923 124.969 144.411 124.426 144.713C123.884 145.014 122.859 145.55 122.149 145.904C121.439 146.257 120.13 146.841 119.24 147.201C118.35 147.561 117.058 148.05 116.368 148.287C115.679 148.525 114.591 148.874 113.952 149.064C113.313 149.254 112.079 149.571 111.211 149.768C110.344 149.965 109.401 150.167 109.116 150.217C108.831 150.267 108.343 150.355 108.031 150.413C107.719 150.471 107.153 150.564 106.774 150.619C106.394 150.675 105.75 150.76 105.344 150.808C104.937 150.857 103.916 150.938 103.075 150.989C102.235 151.04 100.548 151.077 99.3278 151.071ZM101.251 129.253C101.251 127.083 101.251 127.083 100.61 127.052C100.086 127.028 99.9508 127.053 99.8702 127.192C99.816 127.285 99.694 127.443 99.599 127.543C99.4514 127.698 99.2653 127.724 98.3112 127.724C97.5678 127.724 97.1439 127.683 97.0401 127.601C96.9544 127.533 96.8333 127.378 96.7712 127.256C96.6584 127.034 96.6519 127.034 94.1469 127.034C91.767 127.034 91.6252 127.023 91.4383 126.836C91.2666 126.665 91.241 126.508 91.241 125.622C91.241 124.932 91.2831 124.548 91.3724 124.426C91.4446 124.327 91.6776 124.218 91.8901 124.184C92.2765 124.121 92.2765 124.121 92.3259 121.97C92.3713 119.985 92.39 119.807 92.5666 119.678C92.7118 119.572 93.1188 119.539 94.2544 119.539C95.7255 119.539 95.7663 119.533 96.6763 119.191C97.1854 119 97.7849 118.817 98.0086 118.785C98.2843 118.745 98.6653 118.797 99.192 118.946C99.6192 119.066 100.233 119.249 100.555 119.352C101.013 119.498 101.439 119.539 102.503 119.539C103.733 119.539 103.883 119.558 104.062 119.736C104.242 119.917 104.259 120.064 104.259 121.511C104.259 122.957 104.242 123.105 104.062 123.286C103.889 123.459 103.733 123.483 102.798 123.483C102.049 123.483 101.677 123.443 101.547 123.348C101.427 123.26 101.342 123.041 101.306 122.731C101.251 122.251 101.251 122.251 98.3416 122.251H95.4324V123.089C95.4324 123.927 95.4324 123.927 96.0045 123.957C96.533 123.984 96.5979 123.964 96.8576 123.686C97.1387 123.385 97.1387 123.385 98.2923 123.385C99.446 123.385 99.446 123.385 99.7223 123.681C99.9986 123.976 99.9986 123.976 102.572 123.976C105.015 123.976 105.156 123.986 105.344 124.174C105.518 124.348 105.541 124.502 105.541 125.486C105.541 126.277 105.501 126.655 105.405 126.787C105.318 126.906 105.098 126.992 104.789 127.028C104.308 127.083 104.308 127.083 104.259 129.384C104.213 131.516 104.195 131.695 104.018 131.825C103.874 131.93 103.477 131.965 102.414 131.965C101.315 131.965 100.847 132.007 100.304 132.158C99.9209 132.264 99.3556 132.447 99.0483 132.564C98.741 132.681 98.423 132.792 98.3416 132.809C98.2603 132.827 97.7277 132.656 97.1582 132.43C96.1227 132.018 96.1227 132.018 94.364 131.967C92.7705 131.92 92.5921 131.897 92.4656 131.724C92.3605 131.58 92.3259 131.183 92.3259 130.121C92.3259 128.842 92.3442 128.692 92.5231 128.513C92.6939 128.342 92.8518 128.316 93.7001 128.316C94.239 128.316 94.7886 128.357 94.9214 128.408C95.0902 128.472 95.1899 128.613 95.2521 128.876C95.3411 129.253 95.3411 129.253 98.296 129.253H101.251ZM128.392 118.609C131.146 119.538 131.15 119.539 132.496 119.539C133.725 119.539 133.863 119.557 134.047 119.741C134.241 119.935 134.248 120.035 134.22 122.094C134.19 124.244 134.19 124.244 133.573 124.903C133.234 125.265 132.957 125.609 132.957 125.666C132.957 125.724 133.234 126.036 133.573 126.359C134.19 126.947 134.19 126.947 134.219 129.254C134.248 131.468 134.241 131.568 134.047 131.762C133.862 131.947 133.724 131.965 132.476 131.965C131.142 131.965 131.078 131.975 129.838 132.374C129.14 132.599 128.48 132.796 128.371 132.81C128.263 132.825 127.686 132.642 127.089 132.405C126.004 131.972 126.004 131.972 124.371 131.969C123.123 131.965 122.693 131.932 122.547 131.825C122.369 131.695 122.352 131.516 122.306 129.386C122.257 127.086 122.257 127.086 121.87 127.023C121.658 126.989 121.425 126.88 121.353 126.781C121.264 126.66 121.221 126.279 121.221 125.604C121.221 124.928 121.264 124.548 121.353 124.426C121.425 124.327 121.658 124.218 121.87 124.184C122.257 124.121 122.257 124.121 122.306 121.97C122.352 119.985 122.37 119.807 122.547 119.678C122.692 119.572 123.097 119.539 124.223 119.539C125.708 119.539 125.708 119.539 127.05 119.074L128.392 118.609ZM61.2424 132.243C60.1825 132.266 59.7898 132.242 59.6663 132.144C59.5194 132.028 59.5134 131.918 59.6102 131.126C59.6698 130.638 59.7217 129.529 59.7254 128.661C59.7322 127.083 59.7322 127.083 59.2988 127.025C59.0428 126.991 58.8109 126.892 58.7318 126.784C58.6401 126.659 58.598 126.288 58.598 125.604C58.598 124.928 58.6405 124.548 58.7294 124.426C58.8016 124.327 59.0298 124.219 59.2364 124.186C59.443 124.152 59.655 124.056 59.7075 123.973C59.764 123.883 59.7797 123.321 59.7461 122.592C59.7148 121.916 59.6478 121.008 59.5973 120.574C59.5186 119.897 59.5278 119.768 59.6623 119.662C59.7699 119.577 60.2311 119.539 61.1317 119.539C62.3127 119.539 62.4639 119.558 62.6414 119.736C62.8308 119.925 62.8387 120.064 62.8387 123.237C62.8387 126.052 62.8598 126.541 62.9812 126.541C63.0596 126.541 63.4451 126.174 63.838 125.727C64.2309 125.279 64.7991 124.628 65.1008 124.279C65.4025 123.931 65.9116 123.365 66.2321 123.022C66.5525 122.679 66.89 122.399 66.982 122.399C67.074 122.399 67.3666 122.633 67.6321 122.92C67.8975 123.207 68.3811 123.747 68.7065 124.119C69.032 124.492 69.4797 125.007 69.7016 125.264C69.9234 125.521 70.2346 125.888 70.3932 126.08C70.5518 126.273 70.7586 126.46 70.8528 126.496C71.0133 126.558 71.0241 126.354 71.0241 123.247C71.0241 120.064 71.0319 119.925 71.2213 119.736C71.399 119.558 71.55 119.539 72.7499 119.539C73.9683 119.539 74.0987 119.556 74.2871 119.744C74.4426 119.9 74.4755 120.014 74.4218 120.213C74.3827 120.357 74.3117 120.808 74.2641 121.215C74.2166 121.622 74.1508 122.388 74.118 122.917C74.0748 123.613 74.092 123.92 74.1805 124.026C74.2476 124.107 74.4526 124.174 74.6357 124.174C74.8374 124.174 75.0468 124.252 75.1661 124.371C75.3383 124.543 75.3633 124.7 75.3633 125.604C75.3633 126.508 75.3383 126.664 75.1661 126.836C75.0468 126.956 74.8374 127.034 74.6357 127.034C74.4526 127.034 74.2481 127.099 74.1816 127.18C74.0932 127.286 74.076 127.64 74.118 128.486C74.1497 129.125 74.216 130.002 74.2653 130.436C74.3147 130.87 74.3868 131.365 74.4257 131.535C74.4819 131.782 74.4524 131.889 74.2815 132.06C74.0781 132.264 73.9943 132.273 72.7131 132.243C71.6193 132.217 71.3083 132.178 71.0924 132.036C70.9455 131.939 70.3042 131.154 69.6673 130.29C69.0304 129.426 68.1976 128.262 67.8169 127.705C67.436 127.147 67.0535 126.677 66.9668 126.66C66.8676 126.641 66.6264 126.878 66.3156 127.3C66.0442 127.669 65.5986 128.295 65.3256 128.692C65.0525 129.088 64.5485 129.821 64.2055 130.319C63.8626 130.817 63.3732 131.447 63.1181 131.718C62.6541 132.211 62.6541 132.211 61.2424 132.243ZM86.2608 127.083H80.3436V128.168C80.3436 129.253 80.3436 129.253 80.9311 129.316C81.3786 129.364 81.5665 129.435 81.72 129.613C81.8309 129.742 82.1822 130.231 82.5006 130.701C82.8191 131.17 83.1005 131.662 83.1258 131.794C83.162 131.984 83.1224 132.049 82.9412 132.097C82.8143 132.131 81.5762 132.16 80.1899 132.16C78.1685 132.162 77.6314 132.134 77.4778 132.022C77.2999 131.892 77.283 131.713 77.2371 129.484C77.1878 127.086 77.1878 127.086 76.8014 127.023C76.5889 126.989 76.3558 126.88 76.2836 126.781C76.1929 126.657 76.1523 126.262 76.1523 125.505C76.1523 124.748 76.1929 124.353 76.2836 124.229C76.3558 124.13 76.5889 124.021 76.8014 123.987C77.1878 123.924 77.1878 123.924 77.2371 121.871C77.2824 119.985 77.3019 119.807 77.4778 119.678C77.6231 119.572 78.0295 119.539 79.1614 119.539C80.6535 119.539 80.6535 119.539 81.7244 119.135C82.3133 118.913 82.9337 118.709 83.1031 118.681C83.3081 118.648 83.89 118.783 84.8441 119.085C86.2286 119.523 86.319 119.539 87.5075 119.539C88.4135 119.539 88.7883 119.575 88.9293 119.678C89.1058 119.807 89.1246 119.985 89.17 121.971C89.2193 124.124 89.2193 124.124 89.7 124.18C90.0094 124.215 90.2291 124.301 90.3164 124.42C90.4104 124.549 90.4521 124.912 90.4521 125.604C90.4521 126.295 90.4104 126.658 90.3164 126.787C90.2291 126.906 90.0094 126.992 89.7 127.028C89.2193 127.083 89.2193 127.083 89.2238 128.661C89.2261 129.529 89.2814 130.616 89.3464 131.077C89.453 131.833 89.4483 131.927 89.2984 132.039C89.187 132.121 88.739 132.162 87.9373 132.162C87.0616 132.162 86.6911 132.124 86.5508 132.022C86.3729 131.892 86.3559 131.713 86.3101 129.483L86.2608 127.083ZM116.241 127.083H110.324V128.168C110.324 129.253 110.324 129.253 110.901 129.315C111.329 129.361 111.536 129.437 111.699 129.61C111.82 129.739 112.077 130.066 112.27 130.337C112.463 130.609 112.768 131.068 112.948 131.359C113.265 131.869 113.269 131.892 113.088 132.024C112.938 132.134 112.364 132.162 110.275 132.162C108.165 132.162 107.612 132.134 107.458 132.022C107.28 131.892 107.263 131.713 107.217 129.484C107.168 127.086 107.168 127.086 106.782 127.023C106.569 126.989 106.336 126.88 106.264 126.781C106.173 126.657 106.133 126.262 106.133 125.505C106.133 124.748 106.173 124.353 106.264 124.229C106.336 124.13 106.569 124.021 106.782 123.987C107.168 123.924 107.168 123.924 107.217 121.871C107.263 119.985 107.282 119.807 107.458 119.678C107.604 119.572 108.018 119.539 109.199 119.539C110.73 119.539 110.762 119.534 111.72 119.186C112.254 118.993 112.846 118.789 113.036 118.733C113.338 118.644 113.545 118.688 114.707 119.085C116.028 119.537 116.038 119.539 117.376 119.539C118.378 119.539 118.767 119.574 118.91 119.678C119.086 119.807 119.105 119.985 119.15 121.873C119.2 123.927 119.2 123.927 119.68 123.982C119.99 124.018 120.209 124.104 120.297 124.223C120.393 124.355 120.432 124.733 120.432 125.524C120.432 126.508 120.409 126.662 120.235 126.836C120.116 126.956 119.906 127.034 119.705 127.034C119.522 127.034 119.318 127.098 119.252 127.177C119.167 127.28 119.149 127.639 119.187 128.435C119.217 129.047 119.284 129.926 119.337 130.387C119.391 130.848 119.463 131.343 119.499 131.486C119.547 131.68 119.51 131.802 119.357 131.955C119.17 132.143 119.038 132.162 117.936 132.162C117.044 132.162 116.672 132.125 116.531 132.022C116.353 131.892 116.336 131.713 116.29 129.483L116.241 127.083ZM137.956 132.162C137.064 132.162 136.691 132.125 136.551 132.022C136.373 131.892 136.356 131.713 136.31 129.483C136.261 127.083 136.261 127.083 135.78 127.028C135.471 126.992 135.251 126.906 135.164 126.787C135.068 126.656 135.028 126.28 135.028 125.505C135.028 124.73 135.068 124.354 135.164 124.223C135.251 124.104 135.471 124.018 135.78 123.982C136.261 123.927 136.261 123.927 136.253 122.546C136.249 121.787 136.21 120.894 136.167 120.562C136.096 120.019 136.109 119.937 136.298 119.748C136.489 119.557 136.615 119.539 137.721 119.539C138.613 119.539 138.986 119.576 139.127 119.678C139.302 119.807 139.322 119.985 139.367 121.873C139.417 123.927 139.417 123.927 139.897 123.982C140.207 124.018 140.426 124.104 140.514 124.223C140.61 124.354 140.649 124.73 140.649 125.505C140.649 126.28 140.61 126.656 140.514 126.787C140.426 126.906 140.207 126.992 139.897 127.028C139.417 127.083 139.417 127.083 139.43 128.513C139.437 129.299 139.475 130.348 139.515 130.844C139.582 131.681 139.573 131.759 139.379 131.953C139.189 132.143 139.061 132.162 137.956 132.162ZM131.133 129.055V127.083H128.273H125.413L125.384 127.963C125.368 128.447 125.378 128.902 125.406 128.975C125.447 129.083 125.991 129.103 128.295 129.081L131.133 129.055ZM55.9814 126.935C55.9032 126.935 55.7344 126.769 55.6064 126.565C55.4784 126.362 55.0163 125.574 54.5795 124.815C54.1427 124.055 53.4446 122.71 53.0281 121.825C52.6116 120.94 52.0247 119.631 51.7237 118.916C51.4228 118.201 51.0239 117.15 50.8373 116.58C50.6507 116.01 50.3447 115.061 50.1572 114.469C49.9697 113.878 49.707 112.968 49.5734 112.447C49.4397 111.927 49.2171 110.969 49.0787 110.318C48.9404 109.667 48.7867 108.89 48.7373 108.592C48.6878 108.293 48.5966 107.783 48.5346 107.458C48.4726 107.132 48.383 106.511 48.3354 106.077C48.2879 105.643 48.1925 104.667 48.1236 103.907C48.0546 103.148 47.999 101.195 48 99.5681C48.001 97.9409 48.0565 95.9661 48.1234 95.1796C48.1903 94.3931 48.2844 93.4168 48.3326 93.01C48.3808 92.6032 48.4647 91.9819 48.5192 91.6293C48.5738 91.2767 48.7327 90.4445 48.8724 89.7798C49.0121 89.1151 49.2131 88.1609 49.3191 87.6595C49.4252 87.158 49.6879 86.1485 49.9031 85.4163C50.1183 84.684 50.5249 83.4014 50.8066 82.566C51.0884 81.7306 51.5762 80.4436 51.8907 79.706C52.2052 78.9684 52.7977 77.6771 53.2074 76.8364C53.6172 75.9957 54.2055 74.864 54.515 74.3216C54.8244 73.7792 55.3475 72.8916 55.6775 72.3492C56.0075 71.8068 56.6322 70.8527 57.0657 70.2289C57.4992 69.6051 58.1577 68.6954 58.5289 68.2072C58.9002 67.719 59.6765 66.7649 60.2543 66.0869C60.832 65.4089 62.0381 64.1046 62.9345 63.1885C63.8311 62.2724 64.8341 61.2961 65.1636 61.0188C65.4932 60.7416 66.1367 60.2023 66.5936 59.8201C67.0506 59.4381 67.8017 58.8342 68.2627 58.4783C68.7238 58.1224 69.5085 57.554 70.0065 57.2154C70.5046 56.8766 71.1575 56.4307 71.4574 56.2243C71.7573 56.0179 72.5258 55.5415 73.1653 55.1658C73.8046 54.79 74.9269 54.17 75.6592 53.788C76.3914 53.4059 77.5844 52.8172 78.3104 52.4795C79.0362 52.1419 79.9016 51.7646 80.2334 51.641C80.5652 51.5175 81.3692 51.2151 82.0201 50.969C82.671 50.7231 83.7583 50.3587 84.4363 50.1593C85.1143 49.9599 86.1572 49.668 86.7539 49.5106C87.3505 49.3531 88.2603 49.1394 88.7756 49.0356C89.2908 48.9319 90.0897 48.7803 90.5507 48.6988C91.0118 48.6174 91.7329 48.5023 92.1533 48.4431C92.5737 48.3838 93.2394 48.2926 93.6326 48.2402C94.0258 48.1879 94.6804 48.1115 95.0872 48.0706C95.494 48.0297 97.5132 47.9979 99.5744 48.0001C101.791 48.0024 103.765 48.0523 104.407 48.1223C105.003 48.1874 105.802 48.2812 106.182 48.3309C106.562 48.3805 107.161 48.4676 107.513 48.5244C107.866 48.5812 108.509 48.6916 108.943 48.7697C109.377 48.8479 110.193 49.0081 110.757 49.1256C111.321 49.2432 112.542 49.5576 113.469 49.8243C114.397 50.0909 115.6 50.4589 116.142 50.642C116.685 50.8251 117.75 51.2209 118.509 51.5217C119.269 51.8225 120.489 52.3417 121.221 52.6756C121.954 53.0096 123.13 53.5973 123.835 53.9817C124.54 54.3661 125.561 54.9472 126.103 55.2732C126.645 55.599 127.622 56.221 128.272 56.6553C128.923 57.0896 129.869 57.7584 130.375 58.1416C130.88 58.5249 131.462 58.9715 131.668 59.1342C131.873 59.2969 132.347 59.6818 132.721 59.9894C133.095 60.2969 133.736 60.8517 134.146 61.2221C134.556 61.5925 135.327 62.3172 135.86 62.8325C136.393 63.3477 137.256 64.2488 137.778 64.8349C138.299 65.4211 138.882 66.0952 139.071 66.333C139.261 66.5709 139.709 67.1342 140.066 67.585C140.423 68.0357 140.98 68.7595 141.304 69.1934C141.627 69.6273 142.185 70.4261 142.543 70.9685C142.901 71.511 143.457 72.3985 143.779 72.9409C144.101 73.4833 144.606 74.3709 144.903 74.9133C145.199 75.4557 145.647 76.3211 145.899 76.8364C146.151 77.3517 146.565 78.2393 146.818 78.8088C147.072 79.3783 147.524 80.4878 147.823 81.2743C148.122 82.0608 148.512 83.1702 148.688 83.7397C148.864 84.3093 149.167 85.33 149.36 86.008C149.553 86.686 149.822 87.7955 149.958 88.4735C150.095 89.1515 150.278 90.1056 150.366 90.5938C150.454 91.082 150.57 91.7698 150.624 92.1224C150.678 92.475 150.762 93.1184 150.813 93.5524C150.863 93.9863 150.955 94.9404 151.018 95.6727C151.08 96.4049 151.131 98.1135 151.131 99.4695C151.13 100.826 151.079 102.579 151.018 103.365C150.956 104.151 150.861 105.15 150.807 105.584C150.753 106.018 150.669 106.639 150.62 106.965C150.571 107.29 150.485 107.823 150.43 108.148C150.374 108.473 150.189 109.428 150.02 110.268C149.851 111.109 149.442 112.729 149.112 113.868C148.782 115.007 148.291 116.516 148.022 117.221C147.752 117.926 147.432 118.769 147.309 119.095C147.186 119.42 146.785 120.33 146.417 121.116C146.049 121.903 145.422 123.158 145.022 123.905C144.623 124.653 144.084 125.607 143.825 126.025C143.566 126.443 143.281 126.8 143.191 126.817C143.073 126.84 143.011 126.757 142.97 126.522C142.939 126.342 142.903 125.175 142.891 123.927C142.868 121.659 142.868 121.659 142.622 121.631C142.486 121.615 142.271 121.559 142.143 121.505C141.951 121.424 141.918 121.352 141.955 121.089C141.98 120.914 142.379 119.928 142.843 118.898C143.306 117.867 143.914 116.38 144.195 115.594C144.477 114.807 144.842 113.698 145.007 113.128C145.172 112.559 145.416 111.671 145.548 111.156C145.68 110.641 145.826 110.042 145.871 109.825C145.917 109.608 146.05 108.964 146.167 108.395C146.285 107.825 146.447 106.871 146.529 106.274C146.61 105.678 146.726 104.635 146.785 103.957C146.845 103.279 146.893 101.259 146.891 99.4695C146.889 97.6796 146.86 95.8601 146.825 95.4261C146.791 94.9922 146.716 94.26 146.658 93.7989C146.601 93.3379 146.487 92.5169 146.406 91.9745C146.325 91.4321 146.197 90.6776 146.12 90.2979C146.043 89.9183 145.851 89.0972 145.694 88.4735C145.536 87.8497 145.288 86.8956 145.142 86.3532C144.997 85.8108 144.772 85.0563 144.644 84.6766C144.516 84.2969 144.256 83.5647 144.067 83.0494C143.879 82.5341 143.572 81.7575 143.386 81.3236C143.2 80.8896 142.823 80.0374 142.549 79.4297C142.275 78.8219 141.75 77.779 141.383 77.1121C141.016 76.4452 140.406 75.3892 140.027 74.7654C139.648 74.1416 139.059 73.2319 138.717 72.7437C138.375 72.2555 137.779 71.4345 137.393 70.9192C137.006 70.404 136.505 69.754 136.278 69.4749C136.052 69.1957 135.612 68.6631 135.3 68.2914C134.989 67.9196 133.998 66.8832 133.098 65.9883C132.197 65.0933 131.098 64.0504 130.655 63.6707C130.211 63.291 129.428 62.6446 128.913 62.2342C128.398 61.8239 127.611 61.2351 127.164 60.926C126.717 60.6169 126.007 60.1291 125.586 59.8421C125.165 59.5551 124.288 59.007 123.637 58.6242C122.987 58.2412 121.899 57.6446 121.221 57.2983C120.543 56.9521 119.626 56.5019 119.183 56.2979C118.74 56.094 117.919 55.7453 117.359 55.523C116.798 55.3007 115.896 54.9639 115.353 54.7746C114.811 54.5852 113.99 54.3061 113.529 54.1544C113.068 54.0029 112.114 53.7362 111.409 53.5621C110.704 53.388 109.616 53.1383 108.993 53.0073C108.369 52.8763 107.392 52.7005 106.823 52.6167C106.253 52.5327 105.344 52.4212 104.801 52.3687C104.259 52.3163 102.972 52.2285 101.941 52.1737C100.911 52.1188 99.8456 52.0742 99.5744 52.0743C99.3032 52.0744 98.2159 52.1191 97.1582 52.1738C96.1005 52.2283 94.7913 52.3143 94.2489 52.3647C93.7065 52.4152 92.7977 52.5293 92.2295 52.6183C91.6613 52.7074 90.7515 52.8719 90.2078 52.9838C89.6641 53.0959 88.598 53.3415 87.8387 53.5298C87.0793 53.7181 86.0246 54.0042 85.4949 54.1657C84.9652 54.3271 83.9889 54.6607 83.3253 54.9068C82.6617 55.153 81.675 55.5359 81.1326 55.7578C80.5902 55.9797 79.2489 56.6146 78.1522 57.1687C77.0553 57.7228 75.7462 58.4327 75.2429 58.7463C74.7396 59.0599 73.9062 59.593 73.3909 59.931C72.8757 60.269 72.0768 60.8281 71.6158 61.1735C71.1547 61.5189 70.2894 62.183 69.6927 62.6493C69.0961 63.1157 68.2938 63.7803 67.9099 64.1263C67.526 64.4724 66.7555 65.1993 66.1977 65.7417C65.6401 66.2841 64.7679 67.2019 64.2595 67.7812C63.7512 68.3605 62.9677 69.2924 62.5185 69.8522C62.0691 70.4119 61.3237 71.4025 60.8617 72.0534C60.3999 72.7042 59.6862 73.7693 59.2758 74.4202C58.8655 75.0711 58.2615 76.0918 57.9337 76.6885C57.6059 77.2851 57.0654 78.3412 56.7326 79.0354C56.3998 79.7296 55.9122 80.8391 55.6491 81.5009C55.3861 82.1627 54.9906 83.1924 54.7705 83.7891C54.5503 84.3857 54.2072 85.4508 54.0081 86.1559C53.809 86.8611 53.5178 87.9483 53.361 88.5721C53.2042 89.1959 53.0269 89.9947 52.9672 90.3472C52.9075 90.6998 52.8186 91.2545 52.7695 91.58C52.7205 91.9054 52.6339 92.5045 52.5771 92.9113C52.5202 93.3182 52.4314 94.0282 52.3796 94.4893C52.3278 94.9503 52.2465 96.2817 52.1988 97.4478C52.148 98.6905 52.1492 100.425 52.2016 101.639C52.2508 102.778 52.331 104.11 52.3797 104.598C52.4285 105.086 52.5162 105.785 52.5745 106.151C52.6329 106.517 52.7232 107.122 52.7753 107.496C52.8274 107.87 52.9633 108.634 53.0774 109.194C53.1915 109.753 53.4172 110.701 53.579 111.3C53.7408 111.899 54.0301 112.921 54.2219 113.572C54.4136 114.223 54.8173 115.399 55.1187 116.186C55.4202 116.972 55.8382 118.004 56.0475 118.478C56.2569 118.953 56.5922 119.708 56.7926 120.155C56.9931 120.602 57.1756 121.089 57.198 121.237C57.23 121.447 57.188 121.527 57.0062 121.603C56.8783 121.657 56.6626 121.714 56.527 121.729C56.2805 121.758 56.2805 121.757 56.258 124.026C56.2456 125.273 56.2103 126.438 56.1795 126.615C56.1469 126.802 56.0646 126.935 55.9814 126.935ZM86.2608 124.124V122.251H83.3022H80.3436L80.3147 123.081C80.2988 123.537 80.3088 123.971 80.3368 124.044C80.3784 124.152 80.9335 124.172 83.3243 124.15L86.2608 124.124ZM116.241 124.124V122.251H113.282H110.324L110.295 123.081C110.279 123.537 110.289 123.971 110.317 124.044C110.359 124.152 110.914 124.172 113.305 124.15L116.241 124.124ZM131.133 123.927V122.251H128.273H125.413L125.383 122.981C125.367 123.383 125.377 123.772 125.405 123.845C125.448 123.955 125.976 123.975 128.295 123.953L131.133 123.927ZM69.101 96.7082C64.4712 96.613 64.2918 96.5961 64.1619 96.4182C64.0453 96.2585 64.0221 95.3378 64.0221 90.8708C64.0221 85.6464 64.0269 85.5101 64.2193 85.3177C64.405 85.132 64.548 85.1204 66.6728 85.1204C68.4879 85.1204 68.9514 85.0934 69.0437 84.9822C69.1284 84.88 69.1474 83.7526 69.1164 80.6676C69.0932 78.3706 69.029 76.225 68.9738 75.8995C68.9185 75.5741 68.845 75.0415 68.8103 74.7161C68.7757 74.3906 68.7075 73.8803 68.6588 73.582C68.6102 73.2836 68.521 72.6401 68.4608 72.152C68.4005 71.6638 68.3079 70.9538 68.255 70.5741C68.2022 70.1944 68.1183 69.5509 68.0687 69.1441C68.019 68.7373 67.9486 68.243 67.9122 68.0458C67.8589 67.7564 67.8863 67.6468 68.0544 67.4787C68.2623 67.2707 68.2759 67.2703 74.9195 67.2703C81.4449 67.2703 81.5803 67.2742 81.7736 67.4676C81.9689 67.6629 81.9708 67.7963 81.9708 81.8602C81.9708 91.1464 82.0046 96.0764 82.0687 96.116C82.1225 96.1493 82.3999 95.9209 82.6851 95.6086C82.9702 95.2962 83.6695 94.5481 84.2391 93.9463C84.8086 93.3443 85.8828 92.1976 86.626 91.398C87.3693 90.5984 88.5635 89.3137 89.2799 88.5432C89.9962 87.7726 91.1409 86.5459 91.8239 85.8172C92.5067 85.0885 93.5315 83.9984 94.101 83.395C94.6705 82.7914 95.6567 81.7393 96.2925 81.0567C96.9284 80.3743 97.8965 79.323 98.4439 78.7206C98.9913 78.1182 99.4996 77.6254 99.5734 77.6254C99.6473 77.6254 100.343 78.2995 101.12 79.1235C101.897 79.9474 102.977 81.0912 103.519 81.6652C104.062 82.2392 104.901 83.1294 105.385 83.6434C105.868 84.1574 106.578 84.9189 106.962 85.3356C107.347 85.7523 108.194 86.6606 108.845 87.354C109.495 88.0474 110.504 89.1167 111.086 89.73C111.667 90.3433 112.498 91.2227 112.931 91.6842C113.365 92.1457 114.154 92.9808 114.684 93.5398C115.215 94.099 115.991 94.9227 116.408 95.3703C116.825 95.818 117.214 96.1553 117.271 96.1199C117.343 96.0751 117.375 91.7201 117.375 81.8602C117.375 67.7963 117.377 67.6629 117.572 67.4676C117.766 67.2743 117.901 67.2703 124.328 67.2703C130.878 67.2703 130.886 67.2706 131.095 67.4794C131.27 67.6547 131.294 67.7618 131.243 68.1451C131.209 68.3962 131.135 68.9567 131.078 69.3906C131.021 69.8246 130.929 70.4902 130.874 70.8699C130.818 71.2496 130.733 71.8265 130.685 72.152C130.637 72.4774 130.55 73.0765 130.492 73.4833C130.433 73.8901 130.345 74.4893 130.296 74.8147C130.246 75.1401 130.153 75.7614 130.089 76.1954C130.006 76.758 129.992 77.9462 130.041 80.3374C130.078 82.1816 130.139 84.0011 130.177 84.3808L130.245 85.0711L132.546 85.1204C134.678 85.1661 134.857 85.1837 134.987 85.3611C135.103 85.5208 135.127 86.4391 135.127 90.8896C135.127 95.3402 135.103 96.2585 134.987 96.4182C134.857 96.5956 134.678 96.6132 132.546 96.6589L130.245 96.7082L130.251 102.773C130.256 106.924 130.295 109.08 130.375 109.603C130.439 110.023 130.536 110.7 130.59 111.107C130.644 111.513 130.731 112.168 130.784 112.561C130.836 112.954 130.923 113.628 130.978 114.058C131.033 114.488 131.128 115.187 131.19 115.61C131.252 116.033 131.276 116.486 131.243 116.616C131.21 116.748 131.086 116.879 130.961 116.912C130.838 116.945 127.774 116.972 124.15 116.973C118.528 116.974 117.524 116.953 117.296 116.829C117.15 116.749 116.886 116.494 116.709 116.262C116.533 116.03 115.699 114.953 114.856 113.868C114.012 112.783 112.94 111.402 112.473 110.798C112.006 110.194 111.302 109.292 110.91 108.794C110.517 108.295 109.847 107.438 109.421 106.889C108.996 106.34 108.463 105.653 108.237 105.361C108.011 105.07 107.579 104.513 107.278 104.123C106.976 103.733 105.863 102.305 104.805 100.949C103.746 99.5928 102.565 98.0762 102.179 97.5786C101.794 97.0811 101.103 96.1937 100.644 95.6067C100.184 95.0198 99.7455 94.5041 99.6681 94.4608C99.5689 94.4054 99.3852 94.5365 99.0466 94.9041C98.7821 95.1912 98.2619 95.8034 97.8907 96.2644C97.5194 96.7254 96.9547 97.4437 96.6359 97.8606C96.3171 98.2773 95.711 99.0695 95.2891 99.6209C94.8671 100.172 93.7948 101.576 92.9061 102.74C92.0175 103.903 91.1928 104.997 91.0737 105.17C90.9545 105.344 90.4764 105.973 90.0113 106.57C89.546 107.167 88.8511 108.062 88.4671 108.559C88.0831 109.057 87.4961 109.816 87.1627 110.246C86.8294 110.676 85.9483 111.8 85.2049 112.743C84.4615 113.687 83.4407 114.969 82.9366 115.591C82.4325 116.213 81.9091 116.778 81.7735 116.847C81.5822 116.944 80.043 116.972 74.8949 116.973C68.2902 116.974 68.2618 116.974 68.0558 116.768C67.9069 116.619 67.8652 116.487 67.9071 116.299C67.9391 116.155 68.0093 115.683 68.063 115.249C68.1168 114.815 68.2064 114.105 68.262 113.671C68.3178 113.237 68.405 112.615 68.4559 112.29C68.5068 111.965 68.5747 111.476 68.6066 111.205C68.6386 110.934 68.7078 110.379 68.7605 109.972C68.8131 109.566 68.908 108.9 68.9714 108.493C69.0482 107.999 69.089 105.918 69.0938 102.231L69.101 96.7082Z" fill="#550F00"/>
</g>
<defs>
<filter id="filter0_d_39_9" x="41" y="38" width="123.131" height="123.072" filterUnits="userSpaceOnUse" color-interpolation-filters="sRGB">
<feFlood flood-opacity="0" result="BackgroundImageFix"/>
<feColorMatrix in="SourceAlpha" type="matrix" values="0 0 0 0 0 0 0 0 0 0 0 0 0 0 0 0 0 0 127 0" result="hardAlpha"/>
<feOffset dx="3"/>
<feGaussianBlur stdDeviation="5"/>
<feComposite in2="hardAlpha" operator="out"/>
<feColorMatrix type="matrix" values="0 0 0 0 0.0258333 0 0 0 0 0.0258333 0 0 0 0 0.0258333 0 0 0 0.75 0"/>
<feBlend mode="normal" in2="BackgroundImageFix" result="effect1_dropShadow_39_9"/>
<feBlend mode="normal" in="SourceGraphic" in2="effect1_dropShadow_39_9" result="shape"/>
</filter>
</defs>
</svg>
